<?xml version="1.0" encoding="UTF-8"?>
<svg xmlns="http://www.w3.org/2000/svg" viewBox="0 0 1480 2480" font-family="-apple-system, BlinkMacSystemFont, 'Segoe UI', 'PingFang SC', 'Helvetica Neue', sans-serif">

  <defs>
    <linearGradient id="bg" x1="0" y1="0" x2="0" y2="1">
      <stop offset="0%" stop-color="#FAFAF7"/>
      <stop offset="100%" stop-color="#F3F2EC"/>
    </linearGradient>

    <marker id="arrow" viewBox="0 0 10 10" refX="9" refY="5" markerWidth="8" markerHeight="8" orient="auto-start-reverse">
      <path d="M2 1L8 5L2 9" fill="none" stroke="context-stroke" stroke-width="1.6" stroke-linecap="round" stroke-linejoin="round"/>
    </marker>
    <marker id="arrow-thin" viewBox="0 0 10 10" refX="9" refY="5" markerWidth="6" markerHeight="6" orient="auto-start-reverse">
      <path d="M2 1L8 5L2 9" fill="none" stroke="context-stroke" stroke-width="1.2" stroke-linecap="round" stroke-linejoin="round"/>
    </marker>
  </defs>

  <rect width="1480" height="2480" fill="url(#bg)"/>

  <!-- Title -->
  <text x="60" y="58" font-size="28" font-weight="600" fill="#1a1a1a" letter-spacing="-0.4">FSDP vs Tensor Parallel · 两种切分方式的本质对比</text>
  <text x="60" y="86" font-size="14" fill="#6b6b66" font-style="italic">7B 模型 · 32 层 · 8 卡 · 数字均经过验证</text>
  <line x1="60" y1="100" x2="1420" y2="100" stroke="#d4d2c7" stroke-width="0.8"/>

  <!-- ============================================== -->
  <!-- 一句话核心区分                                   -->
  <!-- ============================================== -->
  <g transform="translate(60, 120)">
    <rect x="0" y="0" width="1360" height="120" rx="6" fill="#FFFFFF" stroke="#534AB7" stroke-width="0.8"/>
    <text x="22" y="28" font-size="14" font-weight="700" fill="#26215C">本质区分（决定一切其他差异）</text>
    <line x1="22" y1="40" x2="320" y2="40" stroke="#CECBF6" stroke-width="0.6"/>

    <g transform="translate(22, 60)" font-size="13">
      <text x="0" y="0" fill="#444441">
        <tspan font-weight="700" fill="#0F6E56">FSDP：</tspan>
        <tspan>切"参数 flat 维度" · 把整个模型参数当作一维数组切 N 份 · 每卡持有"模型的 1/N 部分参数"</tspan>
      </text>
      <text x="0" y="24" fill="#444441">
        <tspan font-weight="700" fill="#BA7517">TP：</tspan>
        <tspan>切"权重矩阵的某个维度" · 每个矩阵被切成 N 列（或 N 行）· 每卡持有"每层的 1/N 宽度"</tspan>
      </text>
      <text x="0" y="56" font-size="12" fill="#5f5e5a" font-style="italic">
        看起来都是"切 N 份"，但切的方向完全不同 · 这导致通信模式、显存峰值、网络带宽要求全都不同
      </text>
    </g>
  </g>

  <!-- ============================================== -->
  <!-- 视觉对比：怎么切                                  -->
  <!-- ============================================== -->
  <g transform="translate(60, 260)">
    <rect x="0" y="0" width="1360" height="600" rx="8" fill="#FFFFFF" stroke="#d4d2c7" stroke-width="0.8"/>
    <text x="22" y="32" font-size="18" font-weight="700" fill="#1a1a1a">视觉对比 · 同样 8 卡切 7B 模型，切法完全不同</text>
    <line x1="22" y1="44" x2="500" y2="44" stroke="#d4d2c7" stroke-width="0.6"/>

    <!-- FSDP -->
    <g transform="translate(40, 80)">
      <text x="320" y="0" font-size="15" font-weight="700" fill="#04342C" text-anchor="middle">FSDP · 整体切</text>

      <!-- 完整模型 -->
      <text x="0" y="30" font-size="11" fill="#5f5e5a">完整模型（32 层）：</text>
      <rect x="0" y="40" width="640" height="40" rx="3" fill="#FFFFFF" stroke="#0F6E56" stroke-width="0.8"/>
      <!-- 32 层用细线分隔 -->
      <g stroke="#5DCAA5" stroke-width="0.4">
        <line x1="20" y1="40" x2="20" y2="80"/>
        <line x1="40" y1="40" x2="40" y2="80"/>
        <line x1="60" y1="40" x2="60" y2="80"/>
        <line x1="80" y1="40" x2="80" y2="80"/>
        <line x1="100" y1="40" x2="100" y2="80"/>
        <line x1="120" y1="40" x2="120" y2="80"/>
        <line x1="140" y1="40" x2="140" y2="80"/>
        <line x1="160" y1="40" x2="160" y2="80"/>
        <line x1="180" y1="40" x2="180" y2="80"/>
        <line x1="200" y1="40" x2="200" y2="80"/>
        <line x1="220" y1="40" x2="220" y2="80"/>
        <line x1="240" y1="40" x2="240" y2="80"/>
        <line x1="260" y1="40" x2="260" y2="80"/>
        <line x1="280" y1="40" x2="280" y2="80"/>
        <line x1="300" y1="40" x2="300" y2="80"/>
        <line x1="320" y1="40" x2="320" y2="80"/>
        <line x1="340" y1="40" x2="340" y2="80"/>
        <line x1="360" y1="40" x2="360" y2="80"/>
        <line x1="380" y1="40" x2="380" y2="80"/>
        <line x1="400" y1="40" x2="400" y2="80"/>
        <line x1="420" y1="40" x2="420" y2="80"/>
        <line x1="440" y1="40" x2="440" y2="80"/>
        <line x1="460" y1="40" x2="460" y2="80"/>
        <line x1="480" y1="40" x2="480" y2="80"/>
        <line x1="500" y1="40" x2="500" y2="80"/>
        <line x1="520" y1="40" x2="520" y2="80"/>
        <line x1="540" y1="40" x2="540" y2="80"/>
        <line x1="560" y1="40" x2="560" y2="80"/>
        <line x1="580" y1="40" x2="580" y2="80"/>
        <line x1="600" y1="40" x2="600" y2="80"/>
        <line x1="620" y1="40" x2="620" y2="80"/>
      </g>
      <text x="320" y="98" font-size="10.5" fill="#5f5e5a" text-anchor="middle">32 层 × 0.44 GB/层 = 14 GB 总参数</text>

      <!-- 切成 8 份的箭头 -->
      <text x="320" y="130" font-size="11" fill="#0F6E56" text-anchor="middle" font-weight="600">↓ 按参数 flat 顺序切 8 份</text>

      <!-- 8 份分给 8 卡 -->
      <g transform="translate(0, 150)">
        <text x="0" y="14" font-size="11" fill="#5f5e5a">每卡持有：</text>

        <!-- 8 个分片 -->
        <g>
          <rect x="0" y="20" width="80" height="40" rx="3" fill="#9FE1CB" stroke="#0F6E56" stroke-width="0.8"/>
          <text x="40" y="36" font-size="10" fill="#04342C" text-anchor="middle" font-weight="600">GPU 0</text>
          <text x="40" y="50" font-size="9" fill="#04342C" text-anchor="middle">参数 1/8</text>
          
          <rect x="80" y="20" width="80" height="40" rx="3" fill="#B5E8D2" stroke="#0F6E56" stroke-width="0.8"/>
          <text x="120" y="36" font-size="10" fill="#04342C" text-anchor="middle" font-weight="600">GPU 1</text>
          <text x="120" y="50" font-size="9" fill="#04342C" text-anchor="middle">参数 2/8</text>

          <rect x="160" y="20" width="80" height="40" rx="3" fill="#9FE1CB" stroke="#0F6E56" stroke-width="0.8"/>
          <text x="200" y="36" font-size="10" fill="#04342C" text-anchor="middle" font-weight="600">GPU 2</text>
          <text x="200" y="50" font-size="9" fill="#04342C" text-anchor="middle">参数 3/8</text>

          <rect x="240" y="20" width="80" height="40" rx="3" fill="#B5E8D2" stroke="#0F6E56" stroke-width="0.8"/>
          <text x="280" y="36" font-size="10" fill="#04342C" text-anchor="middle" font-weight="600">GPU 3</text>
          <text x="280" y="50" font-size="9" fill="#04342C" text-anchor="middle">参数 4/8</text>

          <rect x="320" y="20" width="80" height="40" rx="3" fill="#9FE1CB" stroke="#0F6E56" stroke-width="0.8"/>
          <text x="360" y="36" font-size="10" fill="#04342C" text-anchor="middle" font-weight="600">GPU 4</text>
          <text x="360" y="50" font-size="9" fill="#04342C" text-anchor="middle">参数 5/8</text>

          <rect x="400" y="20" width="80" height="40" rx="3" fill="#B5E8D2" stroke="#0F6E56" stroke-width="0.8"/>
          <text x="440" y="36" font-size="10" fill="#04342C" text-anchor="middle" font-weight="600">GPU 5</text>
          <text x="440" y="50" font-size="9" fill="#04342C" text-anchor="middle">参数 6/8</text>

          <rect x="480" y="20" width="80" height="40" rx="3" fill="#9FE1CB" stroke="#0F6E56" stroke-width="0.8"/>
          <text x="520" y="36" font-size="10" fill="#04342C" text-anchor="middle" font-weight="600">GPU 6</text>
          <text x="520" y="50" font-size="9" fill="#04342C" text-anchor="middle">参数 7/8</text>

          <rect x="560" y="20" width="80" height="40" rx="3" fill="#B5E8D2" stroke="#0F6E56" stroke-width="0.8"/>
          <text x="600" y="36" font-size="10" fill="#04342C" text-anchor="middle" font-weight="600">GPU 7</text>
          <text x="600" y="50" font-size="9" fill="#04342C" text-anchor="middle">参数 8/8</text>
        </g>

        <text x="320" y="80" font-size="11" fill="#04342C" text-anchor="middle" font-weight="600">每卡 1.75 GB</text>
      </g>

      <!-- 关键说明 -->
      <g transform="translate(0, 260)">
        <rect x="0" y="0" width="640" height="100" rx="6" fill="#E1F5EE" stroke="#1D9E75" stroke-width="0.6"/>
        <text x="14" y="20" font-size="11.5" font-weight="700" fill="#04342C">FSDP 的特点</text>
        <text x="14" y="40" font-size="11" fill="#444441">· 每卡只持有"模型某一段"参数（前 1/8 层、第 2/8 层段...）</text>
        <text x="14" y="58" font-size="11" fill="#444441">· 每张卡都缺别的卡那段 · 算的时候必须 all-gather 拼起来</text>
        <text x="14" y="76" font-size="11" fill="#444441">· 算完即扔，下一层重新 gather</text>
        <text x="14" y="94" font-size="10.5" fill="#5f5e5a" font-style="italic">类比：32 卷书的图书馆，8 个分馆每馆藏 4 本</text>
      </g>
    </g>

    <!-- TP -->
    <g transform="translate(720, 80)">
      <text x="320" y="0" font-size="15" font-weight="700" fill="#412402" text-anchor="middle">TP · 每层切</text>

      <!-- 完整模型 -->
      <text x="0" y="30" font-size="11" fill="#5f5e5a">完整模型（32 层）：</text>
      <rect x="0" y="40" width="640" height="40" rx="3" fill="#FFFFFF" stroke="#BA7517" stroke-width="0.8"/>
      <g stroke="#FAC775" stroke-width="0.4">
        <line x1="20" y1="40" x2="20" y2="80"/>
        <line x1="40" y1="40" x2="40" y2="80"/>
        <line x1="60" y1="40" x2="60" y2="80"/>
        <line x1="80" y1="40" x2="80" y2="80"/>
        <line x1="100" y1="40" x2="100" y2="80"/>
        <line x1="120" y1="40" x2="120" y2="80"/>
        <line x1="140" y1="40" x2="140" y2="80"/>
        <line x1="160" y1="40" x2="160" y2="80"/>
        <line x1="180" y1="40" x2="180" y2="80"/>
        <line x1="200" y1="40" x2="200" y2="80"/>
        <line x1="220" y1="40" x2="220" y2="80"/>
        <line x1="240" y1="40" x2="240" y2="80"/>
        <line x1="260" y1="40" x2="260" y2="80"/>
        <line x1="280" y1="40" x2="280" y2="80"/>
        <line x1="300" y1="40" x2="300" y2="80"/>
        <line x1="320" y1="40" x2="320" y2="80"/>
        <line x1="340" y1="40" x2="340" y2="80"/>
        <line x1="360" y1="40" x2="360" y2="80"/>
        <line x1="380" y1="40" x2="380" y2="80"/>
        <line x1="400" y1="40" x2="400" y2="80"/>
        <line x1="420" y1="40" x2="420" y2="80"/>
        <line x1="440" y1="40" x2="440" y2="80"/>
        <line x1="460" y1="40" x2="460" y2="80"/>
        <line x1="480" y1="40" x2="480" y2="80"/>
        <line x1="500" y1="40" x2="500" y2="80"/>
        <line x1="520" y1="40" x2="520" y2="80"/>
        <line x1="540" y1="40" x2="540" y2="80"/>
        <line x1="560" y1="40" x2="560" y2="80"/>
        <line x1="580" y1="40" x2="580" y2="80"/>
        <line x1="600" y1="40" x2="600" y2="80"/>
        <line x1="620" y1="40" x2="620" y2="80"/>
      </g>
      <text x="320" y="98" font-size="10.5" fill="#5f5e5a" text-anchor="middle">32 层 × 0.44 GB/层</text>

      <text x="320" y="130" font-size="11" fill="#BA7517" text-anchor="middle" font-weight="600">↓ 每层内部按矩阵列切 8 份</text>

      <!-- 8 卡每卡看到所有层但每层窄 -->
      <g transform="translate(0, 150)">
        <text x="0" y="14" font-size="11" fill="#5f5e5a">每卡持有：</text>

        <!-- GPU 0: 32 层但每层 1/8 宽 -->
        <g transform="translate(0, 20)">
          <rect x="0" y="0" width="640" height="14" rx="2" fill="#FFFFFF" stroke="#BA7517" stroke-width="0.6"/>
          <!-- 显示每层都被切, 每卡持有窄条 -->
          <g>
            <rect x="2" y="1" width="2.5" height="12" fill="#FAC775" stroke="none"/>
            <rect x="22" y="1" width="2.5" height="12" fill="#FAC775" stroke="none"/>
            <rect x="42" y="1" width="2.5" height="12" fill="#FAC775" stroke="none"/>
            <rect x="62" y="1" width="2.5" height="12" fill="#FAC775" stroke="none"/>
            <rect x="82" y="1" width="2.5" height="12" fill="#FAC775" stroke="none"/>
            <rect x="102" y="1" width="2.5" height="12" fill="#FAC775" stroke="none"/>
            <rect x="122" y="1" width="2.5" height="12" fill="#FAC775" stroke="none"/>
            <rect x="142" y="1" width="2.5" height="12" fill="#FAC775" stroke="none"/>
            <rect x="162" y="1" width="2.5" height="12" fill="#FAC775" stroke="none"/>
            <rect x="182" y="1" width="2.5" height="12" fill="#FAC775" stroke="none"/>
            <rect x="202" y="1" width="2.5" height="12" fill="#FAC775" stroke="none"/>
            <rect x="222" y="1" width="2.5" height="12" fill="#FAC775" stroke="none"/>
            <rect x="242" y="1" width="2.5" height="12" fill="#FAC775" stroke="none"/>
            <rect x="262" y="1" width="2.5" height="12" fill="#FAC775" stroke="none"/>
            <rect x="282" y="1" width="2.5" height="12" fill="#FAC775" stroke="none"/>
            <rect x="302" y="1" width="2.5" height="12" fill="#FAC775" stroke="none"/>
            <rect x="322" y="1" width="2.5" height="12" fill="#FAC775" stroke="none"/>
            <rect x="342" y="1" width="2.5" height="12" fill="#FAC775" stroke="none"/>
            <rect x="362" y="1" width="2.5" height="12" fill="#FAC775" stroke="none"/>
            <rect x="382" y="1" width="2.5" height="12" fill="#FAC775" stroke="none"/>
            <rect x="402" y="1" width="2.5" height="12" fill="#FAC775" stroke="none"/>
            <rect x="422" y="1" width="2.5" height="12" fill="#FAC775" stroke="none"/>
            <rect x="442" y="1" width="2.5" height="12" fill="#FAC775" stroke="none"/>
            <rect x="462" y="1" width="2.5" height="12" fill="#FAC775" stroke="none"/>
            <rect x="482" y="1" width="2.5" height="12" fill="#FAC775" stroke="none"/>
            <rect x="502" y="1" width="2.5" height="12" fill="#FAC775" stroke="none"/>
            <rect x="522" y="1" width="2.5" height="12" fill="#FAC775" stroke="none"/>
            <rect x="542" y="1" width="2.5" height="12" fill="#FAC775" stroke="none"/>
            <rect x="562" y="1" width="2.5" height="12" fill="#FAC775" stroke="none"/>
            <rect x="582" y="1" width="2.5" height="12" fill="#FAC775" stroke="none"/>
            <rect x="602" y="1" width="2.5" height="12" fill="#FAC775" stroke="none"/>
            <rect x="622" y="1" width="2.5" height="12" fill="#FAC775" stroke="none"/>
          </g>
          <text x="660" y="11" font-size="9" fill="#412402">GPU 0 (列 1/8)</text>
        </g>

        <!-- GPU 1 -->
        <g transform="translate(0, 36)">
          <rect x="0" y="0" width="640" height="14" rx="2" fill="#FFFFFF" stroke="#BA7517" stroke-width="0.6"/>
          <g>
            <rect x="4.5" y="1" width="2.5" height="12" fill="#FAC775" stroke="none"/>
            <rect x="24.5" y="1" width="2.5" height="12" fill="#FAC775" stroke="none"/>
            <rect x="44.5" y="1" width="2.5" height="12" fill="#FAC775" stroke="none"/>
            <rect x="64.5" y="1" width="2.5" height="12" fill="#FAC775" stroke="none"/>
            <rect x="84.5" y="1" width="2.5" height="12" fill="#FAC775" stroke="none"/>
            <rect x="104.5" y="1" width="2.5" height="12" fill="#FAC775" stroke="none"/>
            <rect x="124.5" y="1" width="2.5" height="12" fill="#FAC775" stroke="none"/>
            <rect x="144.5" y="1" width="2.5" height="12" fill="#FAC775" stroke="none"/>
            <rect x="164.5" y="1" width="2.5" height="12" fill="#FAC775" stroke="none"/>
            <rect x="184.5" y="1" width="2.5" height="12" fill="#FAC775" stroke="none"/>
            <rect x="204.5" y="1" width="2.5" height="12" fill="#FAC775" stroke="none"/>
            <rect x="224.5" y="1" width="2.5" height="12" fill="#FAC775" stroke="none"/>
            <rect x="244.5" y="1" width="2.5" height="12" fill="#FAC775" stroke="none"/>
            <rect x="264.5" y="1" width="2.5" height="12" fill="#FAC775" stroke="none"/>
            <rect x="284.5" y="1" width="2.5" height="12" fill="#FAC775" stroke="none"/>
            <rect x="304.5" y="1" width="2.5" height="12" fill="#FAC775" stroke="none"/>
            <rect x="324.5" y="1" width="2.5" height="12" fill="#FAC775" stroke="none"/>
            <rect x="344.5" y="1" width="2.5" height="12" fill="#FAC775" stroke="none"/>
            <rect x="364.5" y="1" width="2.5" height="12" fill="#FAC775" stroke="none"/>
            <rect x="384.5" y="1" width="2.5" height="12" fill="#FAC775" stroke="none"/>
            <rect x="404.5" y="1" width="2.5" height="12" fill="#FAC775" stroke="none"/>
            <rect x="424.5" y="1" width="2.5" height="12" fill="#FAC775" stroke="none"/>
            <rect x="444.5" y="1" width="2.5" height="12" fill="#FAC775" stroke="none"/>
            <rect x="464.5" y="1" width="2.5" height="12" fill="#FAC775" stroke="none"/>
            <rect x="484.5" y="1" width="2.5" height="12" fill="#FAC775" stroke="none"/>
            <rect x="504.5" y="1" width="2.5" height="12" fill="#FAC775" stroke="none"/>
            <rect x="524.5" y="1" width="2.5" height="12" fill="#FAC775" stroke="none"/>
            <rect x="544.5" y="1" width="2.5" height="12" fill="#FAC775" stroke="none"/>
            <rect x="564.5" y="1" width="2.5" height="12" fill="#FAC775" stroke="none"/>
            <rect x="584.5" y="1" width="2.5" height="12" fill="#FAC775" stroke="none"/>
            <rect x="604.5" y="1" width="2.5" height="12" fill="#FAC775" stroke="none"/>
            <rect x="624.5" y="1" width="2.5" height="12" fill="#FAC775" stroke="none"/>
          </g>
          <text x="660" y="11" font-size="9" fill="#412402">GPU 1 (列 2/8)</text>
        </g>

        <text x="320" y="60" font-size="10" fill="#5f5e5a" text-anchor="middle">⋯ GPU 2-7 同理 ⋯</text>

        <text x="320" y="86" font-size="11" fill="#412402" text-anchor="middle" font-weight="600">每卡 1.75 GB</text>
      </g>

      <!-- 关键说明 -->
      <g transform="translate(0, 260)">
        <rect x="0" y="0" width="640" height="100" rx="6" fill="#FAEEDA" stroke="#BA7517" stroke-width="0.6"/>
        <text x="14" y="20" font-size="11.5" font-weight="700" fill="#412402">TP 的特点</text>
        <text x="14" y="40" font-size="11" fill="#444441">· 每卡都有"所有层"的参数 · 但每层只有 1/8 宽度</text>
        <text x="14" y="58" font-size="11" fill="#444441">· 每个矩阵被切成 N 列 · 每卡持有几列</text>
        <text x="14" y="76" font-size="11" fill="#444441">· 算的时候各自算"自己列" · 然后 all-reduce 合成完整输出</text>
        <text x="14" y="94" font-size="10.5" fill="#5f5e5a" font-style="italic">类比：32 卷书每卷被撕成 8 份 · 8 个馆每馆藏 32 个残页</text>
      </g>
    </g>
  </g>

  <!-- ============================================== -->
  <!-- 计算过程对比                                     -->
  <!-- ============================================== -->
  <g transform="translate(60, 880)">
    <rect x="0" y="0" width="1360" height="500" rx="8" fill="#FFFFFF" stroke="#d4d2c7" stroke-width="0.8"/>
    <text x="22" y="32" font-size="18" font-weight="700" fill="#1a1a1a">计算过程对比 · forward 一层时各自做什么</text>
    <line x1="22" y1="44" x2="500" y2="44" stroke="#d4d2c7" stroke-width="0.6"/>

    <!-- FSDP forward -->
    <g transform="translate(40, 80)">
      <rect x="0" y="0" width="640" height="380" rx="8" fill="#E1F5EE" stroke="#0F6E56" stroke-width="1.2"/>
      <text x="320" y="28" font-size="14" font-weight="700" fill="#04342C" text-anchor="middle">FSDP · 层粒度的 gather-compute-discard</text>

      <g transform="translate(20, 50)" font-size="11.5">
        <!-- Step 1 -->
        <g>
          <circle cx="14" cy="14" r="11" fill="#0F6E56"/>
          <text x="14" y="18" font-size="11" font-weight="700" fill="#FFFFFF" text-anchor="middle">1</text>
          <text x="36" y="14" font-weight="700" fill="#04342C">all-gather 整层参数</text>
          <text x="36" y="32" fill="#444441">每卡发出 自己的 1/8 layer = 54.7 MB</text>
          <text x="36" y="48" fill="#444441">收齐 → 每卡都有完整 W_layer (440 MB)</text>
        </g>

        <!-- Step 2 -->
        <g transform="translate(0, 78)">
          <circle cx="14" cy="14" r="11" fill="#0F6E56"/>
          <text x="14" y="18" font-size="11" font-weight="700" fill="#FFFFFF" text-anchor="middle">2</text>
          <text x="36" y="14" font-weight="700" fill="#04342C">本地完整计算</text>
          <text x="36" y="32" fill="#444441">y = W_layer × x_local</text>
          <text x="36" y="48" fill="#5f5e5a" font-style="italic">每卡用同样的 W_layer，算自己的 batch</text>
        </g>

        <!-- Step 3 -->
        <g transform="translate(0, 156)">
          <circle cx="14" cy="14" r="11" fill="#0F6E56"/>
          <text x="14" y="18" font-size="11" font-weight="700" fill="#FFFFFF" text-anchor="middle">3</text>
          <text x="36" y="14" font-weight="700" fill="#04342C">扔掉非自己的部分</text>
          <text x="36" y="32" fill="#444441">每卡只留 1/8 layer · 释放 7/8</text>
          <text x="36" y="48" fill="#5f5e5a" font-style="italic">回到 1/8 状态，继续下一层</text>
        </g>

        <!-- Total cost -->
        <g transform="translate(0, 234)">
          <rect x="0" y="0" width="600" height="100" rx="6" fill="#FFFFFF" stroke="#0F6E56" stroke-width="0.6"/>
          <text x="14" y="20" font-weight="700" fill="#04342C">通信账单 (forward 全程)</text>
          <text x="14" y="40" fill="#444441">通信次数：32 次 all-gather（每层一次）</text>
          <text x="14" y="58" fill="#444441">通信总量：32 × 54.7 MB = 1750 MB</text>
          <text x="14" y="76" fill="#444441">通信内容：<tspan font-weight="700" fill="#04342C">参数</tspan>（与 batch 大小无关）</text>
          <text x="14" y="92" font-size="10.5" fill="#5f5e5a" font-style="italic">通信时机在层之间，可以 prefetch 下一层重叠计算</text>
        </g>
      </g>
    </g>

    <!-- TP forward -->
    <g transform="translate(720, 80)">
      <rect x="0" y="0" width="640" height="380" rx="8" fill="#FAEEDA" stroke="#BA7517" stroke-width="1.2"/>
      <text x="320" y="28" font-size="14" font-weight="700" fill="#412402" text-anchor="middle">TP · 算子内的 partial-compute + all-reduce</text>

      <g transform="translate(20, 50)" font-size="11.5">
        <!-- Step 1 -->
        <g>
          <circle cx="14" cy="14" r="11" fill="#BA7517"/>
          <text x="14" y="18" font-size="11" font-weight="700" fill="#FFFFFF" text-anchor="middle">1</text>
          <text x="36" y="14" font-weight="700" fill="#412402">直接用本地的 W_shard 算</text>
          <text x="36" y="32" fill="#444441">y_partial = W_shard × x_full</text>
          <text x="36" y="48" fill="#5f5e5a" font-style="italic">每卡只算自己列，不需要 gather W</text>
        </g>

        <!-- Step 2 -->
        <g transform="translate(0, 78)">
          <circle cx="14" cy="14" r="11" fill="#BA7517"/>
          <text x="14" y="18" font-size="11" font-weight="700" fill="#FFFFFF" text-anchor="middle">2</text>
          <text x="36" y="14" font-weight="700" fill="#412402">all-reduce 合并部分和</text>
          <text x="36" y="32" fill="#444441">每卡发自己的 y_partial，收所有人的并加和</text>
          <text x="36" y="48" fill="#5f5e5a" font-style="italic">所有卡都得到完整 y</text>
        </g>

        <!-- Step 3 -->
        <g transform="translate(0, 156)">
          <circle cx="14" cy="14" r="11" fill="#BA7517"/>
          <text x="14" y="18" font-size="11" font-weight="700" fill="#FFFFFF" text-anchor="middle">3</text>
          <text x="36" y="14" font-weight="700" fill="#412402">没有"释放"步骤</text>
          <text x="36" y="32" fill="#444441">参数永远只持有 1/8，不需要释放</text>
          <text x="36" y="48" fill="#5f5e5a" font-style="italic">没有 gather 临时峰值</text>
        </g>

        <!-- Total cost -->
        <g transform="translate(0, 234)">
          <rect x="0" y="0" width="600" height="100" rx="6" fill="#FFFFFF" stroke="#BA7517" stroke-width="0.6"/>
          <text x="14" y="20" font-weight="700" fill="#412402">通信账单 (forward 全程)</text>
          <text x="14" y="40" fill="#444441">通信次数：64 次 all-reduce（每层 2 个 matmul × 32 层）</text>
          <text x="14" y="58" fill="#444441">通信总量：64 × ~537 MB = ~34 GB <tspan font-size="10" fill="#A32D2D">← 注意是 GB</tspan></text>
          <text x="14" y="76" fill="#444441">通信内容：<tspan font-weight="700" fill="#412402">激活值</tspan>（与 batch×seq 强相关）</text>
          <text x="14" y="92" font-size="10.5" fill="#5f5e5a" font-style="italic">通信时机在算子之间，难以隐藏</text>
        </g>
      </g>
    </g>
  </g>

  <!-- ============================================== -->
  <!-- 数字对比                                         -->
  <!-- ============================================== -->
  <g transform="translate(60, 1400)">
    <rect x="0" y="0" width="1360" height="380" rx="8" fill="#FFFFFF" stroke="#d4d2c7" stroke-width="0.8"/>
    <text x="22" y="32" font-size="18" font-weight="700" fill="#1a1a1a">数字对比 · 同样 7B 模型 8 卡</text>
    <line x1="22" y1="44" x2="500" y2="44" stroke="#d4d2c7" stroke-width="0.6"/>

    <g transform="translate(40, 70)" font-size="12">
      <!-- Header -->
      <rect x="0" y="0" width="1280" height="32" fill="#F1EFE8"/>
      <text x="14" y="20" font-weight="700" fill="#444441">维度</text>
      <text x="320" y="20" font-weight="700" fill="#04342C">FSDP</text>
      <text x="640" y="20" font-weight="700" fill="#412402">TP</text>
      <text x="960" y="20" font-weight="700" fill="#444441">谁更优</text>

      <!-- Row 1: 常驻参数 -->
      <g transform="translate(0, 32)">
        <rect x="0" y="0" width="1280" height="32" fill="#FFFFFF" stroke="#F1EFE8" stroke-width="0.5"/>
        <text x="14" y="20" font-weight="600" fill="#444441">每卡常驻参数</text>
        <text x="320" y="20" fill="#444441">1.75 GB（1/8 模型）</text>
        <text x="640" y="20" fill="#444441">1.75 GB（每层 1/8 宽度 × 32 层）</text>
        <text x="960" y="20" fill="#5f5e5a">完全相同</text>
      </g>

      <!-- Row 2: gather 临时 -->
      <g transform="translate(0, 64)">
        <rect x="0" y="0" width="1280" height="32" fill="#F8F7F2" stroke="#F1EFE8" stroke-width="0.5"/>
        <text x="14" y="20" font-weight="600" fill="#444441">forward 临时显存峰值</text>
        <text x="320" y="20" fill="#A32D2D">+0.44 GB（gather 完整层）</text>
        <text x="640" y="20" fill="#04342C">0（无需 gather）</text>
        <text x="960" y="20" fill="#412402">TP 略好</text>
      </g>

      <!-- Row 3: 通信次数 -->
      <g transform="translate(0, 96)">
        <rect x="0" y="0" width="1280" height="32" fill="#FFFFFF" stroke="#F1EFE8" stroke-width="0.5"/>
        <text x="14" y="20" font-weight="600" fill="#444441">通信次数（fwd 一次）</text>
        <text x="320" y="20" fill="#444441">32 次 all-gather（层粒度）</text>
        <text x="640" y="20" fill="#444441">64 次 all-reduce（算子粒度）</text>
        <text x="960" y="20" fill="#04342C">FSDP 少一半</text>
      </g>

      <!-- Row 4: 通信总量 -->
      <g transform="translate(0, 128)">
        <rect x="0" y="0" width="1280" height="32" fill="#F8F7F2" stroke="#F1EFE8" stroke-width="0.5"/>
        <text x="14" y="20" font-weight="600" fill="#444441">通信总量（fwd 一次）</text>
        <text x="320" y="20" fill="#04342C" font-weight="600">1.75 GB（参数）</text>
        <text x="640" y="20" fill="#A32D2D" font-weight="600">~34 GB（激活值）</text>
        <text x="960" y="20" fill="#04342C">FSDP 小 20×</text>
      </g>

      <!-- Row 5: 通信内容 -->
      <g transform="translate(0, 160)">
        <rect x="0" y="0" width="1280" height="32" fill="#FFFFFF" stroke="#F1EFE8" stroke-width="0.5"/>
        <text x="14" y="20" font-weight="600" fill="#444441">通信内容</text>
        <text x="320" y="20" fill="#444441">参数（静态、与 batch 无关）</text>
        <text x="640" y="20" fill="#444441">激活（动态、随 batch×seq 增长）</text>
        <text x="960" y="20" fill="#5f5e5a">不同特性</text>
      </g>

      <!-- Row 6: 网络要求 -->
      <g transform="translate(0, 192)">
        <rect x="0" y="0" width="1280" height="32" fill="#F8F7F2" stroke="#F1EFE8" stroke-width="0.5"/>
        <text x="14" y="20" font-weight="600" fill="#444441">网络带宽要求</text>
        <text x="320" y="20" fill="#04342C">中等（跨节点可接受）</text>
        <text x="640" y="20" fill="#A32D2D">极高（必须 NVLink, 节点内）</text>
        <text x="960" y="20" fill="#04342C">FSDP 灵活</text>
      </g>

      <!-- Row 7: 可隐藏通信 -->
      <g transform="translate(0, 224)">
        <rect x="0" y="0" width="1280" height="32" fill="#FFFFFF" stroke="#F1EFE8" stroke-width="0.5"/>
        <text x="14" y="20" font-weight="600" fill="#444441">通信能否被计算隐藏</text>
        <text x="320" y="20" fill="#04342C">可以（prefetch 下一层）</text>
        <text x="640" y="20" fill="#A32D2D">很难（all-reduce 在算子之间）</text>
        <text x="960" y="20" fill="#04342C">FSDP 好</text>
      </g>

      <!-- Row 8: 适合规模 -->
      <g transform="translate(0, 256)">
        <rect x="0" y="0" width="1280" height="32" fill="#F8F7F2" stroke="#F1EFE8" stroke-width="0.5"/>
        <text x="14" y="20" font-weight="600" fill="#444441">适合的并行规模</text>
        <text x="320" y="20" fill="#444441">几十到几千卡都行</text>
        <text x="640" y="20" fill="#444441">通常 ≤ 8（节点内）</text>
        <text x="960" y="20" fill="#04342C">FSDP 可扩展</text>
      </g>
    </g>
  </g>

  <!-- ============================================== -->
  <!-- 何时用哪个                                       -->
  <!-- ============================================== -->
  <g transform="translate(60, 1800)">
    <rect x="0" y="0" width="1360" height="380" rx="8" fill="#FFFFFF" stroke="#534AB7" stroke-width="0.8"/>
    <text x="22" y="32" font-size="18" font-weight="700" fill="#26215C">何时用 FSDP / 何时用 TP</text>
    <line x1="22" y1="44" x2="500" y2="44" stroke="#CECBF6" stroke-width="0.6"/>

    <!-- 三种典型场景 -->
    <g transform="translate(40, 70)">
      <!-- Scenario 1: 训练 -->
      <g>
        <rect x="0" y="0" width="416" height="290" rx="6" fill="#E1F5EE" stroke="#0F6E56" stroke-width="0.8"/>
        <text x="14" y="22" font-size="13" font-weight="700" fill="#04342C">训练 → 主用 FSDP</text>
        <line x1="14" y1="34" x2="200" y2="34" stroke="#5DCAA5" stroke-width="0.6"/>

        <text x="14" y="60" font-size="12" fill="#444441">原因：训练需要切优化器状态</text>
        <text x="14" y="78" font-size="11.5" fill="#444441">FSDP 天然把优化器一起切（ZeRO-3）</text>
        <text x="14" y="96" font-size="11.5" fill="#444441">TP 不切优化器（需配 ZeRO-1 协同）</text>

        <text x="14" y="124" font-size="12" font-weight="700" fill="#04342C">规模可达：</text>
        <text x="14" y="142" font-size="11.5" fill="#444441">几千卡（DeepSpeed/FSDP-2）</text>

        <text x="14" y="172" font-size="12" font-weight="700" fill="#04342C">verl 默认：</text>
        <text x="14" y="190" font-size="11.5" fill="#444441">actor training 用 FSDP=N（N 全部卡数）</text>
        <text x="14" y="208" font-size="11.5" fill="#444441">这就是 verl yaml 里 fsdp_size 的来源</text>

        <text x="14" y="240" font-size="11" fill="#5f5e5a" font-style="italic">激活值大不要紧</text>
        <text x="14" y="258" font-size="11" fill="#5f5e5a" font-style="italic">→ 开 activation checkpointing 解决</text>
      </g>

      <!-- Scenario 2: 推理 -->
      <g transform="translate(432, 0)">
        <rect x="0" y="0" width="416" height="290" rx="6" fill="#FAEEDA" stroke="#BA7517" stroke-width="0.8"/>
        <text x="14" y="22" font-size="13" font-weight="700" fill="#412402">推理 → 主用 TP</text>
        <line x1="14" y1="34" x2="200" y2="34" stroke="#FAC775" stroke-width="0.6"/>

        <text x="14" y="60" font-size="12" fill="#444441">原因：推理 latency 敏感</text>
        <text x="14" y="78" font-size="11.5" fill="#444441">TP 让多卡并行算同一个 token</text>
        <text x="14" y="96" font-size="11.5" fill="#444441">FSDP 的 gather 引入 latency</text>

        <text x="14" y="124" font-size="12" font-weight="700" fill="#412402">规模限制：</text>
        <text x="14" y="142" font-size="11.5" fill="#444441">通常 TP ≤ 8（节点内 NVLink）</text>
        <text x="14" y="160" font-size="11.5" fill="#444441">超过节点 → 引入跨节点 PP</text>

        <text x="14" y="188" font-size="12" font-weight="700" fill="#412402">verl 默认：</text>
        <text x="14" y="206" font-size="11.5" fill="#444441">vLLM rollout 用 TP=8（节点内）</text>
        <text x="14" y="224" font-size="11.5" fill="#444441">节点间用 DP 复制实例</text>

        <text x="14" y="256" font-size="11" fill="#5f5e5a" font-style="italic">没有优化器 → 切优化器需求消失</text>
        <text x="14" y="274" font-size="11" fill="#5f5e5a" font-style="italic">推理优先延迟，TP 是首选</text>
      </g>

      <!-- Scenario 3: 大模型训练 -->
      <g transform="translate(864, 0)">
        <rect x="0" y="0" width="416" height="290" rx="6" fill="#EEEDFE" stroke="#534AB7" stroke-width="0.8"/>
        <text x="14" y="22" font-size="13" font-weight="700" fill="#26215C">大模型训练 → FSDP + TP 混合</text>
        <line x1="14" y1="34" x2="280" y2="34" stroke="#CECBF6" stroke-width="0.6"/>

        <text x="14" y="60" font-size="12" fill="#444441">规模超过 70B 时 FSDP 开始捉襟见肘</text>

        <text x="14" y="88" font-size="12" font-weight="700" fill="#26215C">解决方案：</text>
        <text x="14" y="106" font-size="11.5" fill="#444441">节点内 TP=8（吃 NVLink）</text>
        <text x="14" y="124" font-size="11.5" fill="#444441">节点间 FSDP=N_nodes（吃 IB）</text>
        <text x="14" y="142" font-size="11.5" fill="#444441">两者互补，不是二选一</text>

        <text x="14" y="170" font-size="12" font-weight="700" fill="#26215C">代表案例：</text>
        <text x="14" y="188" font-size="11.5" fill="#444441">Megatron-LM (TP+PP+DP)</text>
        <text x="14" y="206" font-size="11.5" fill="#444441">Megatron-FSDP（最新混合）</text>

        <text x="14" y="234" font-size="12" font-weight="700" fill="#26215C">verl 也支持：</text>
        <text x="14" y="252" font-size="11.5" fill="#444441">用 Megatron backend 时</text>
        <text x="14" y="270" font-size="11.5" fill="#444441">可以同时配 TP + PP + DP</text>
      </g>
    </g>
  </g>

  <!-- ============================================== -->
  <!-- 总结                                             -->
  <!-- ============================================== -->
  <g transform="translate(60, 2200)">
    <rect x="0" y="0" width="1360" height="240" rx="6" fill="#FFFFFF" stroke="#888780" stroke-width="0.6"/>
    <text x="22" y="28" font-size="14" font-weight="700" fill="#1a1a1a">一句话记忆法</text>
    <line x1="22" y1="40" x2="280" y2="40" stroke="#d4d2c7" stroke-width="0.6"/>

    <g transform="translate(22, 60)" font-size="12.5">
      <text x="0" y="0" fill="#444441">
        <tspan font-weight="700" fill="#04342C">FSDP：</tspan>
        <tspan>"参数住在不同卡，算的时候临时聚齐，算完散去" · 通信传参数 · 适合训练</tspan>
      </text>
      <text x="0" y="24" fill="#444441">
        <tspan font-weight="700" fill="#412402">TP：</tspan>
        <tspan>"参数永远是切的，每卡只算一部分输出，互相对账加起来" · 通信传激活 · 适合推理</tspan>
      </text>
      <text x="0" y="56" fill="#444441">
        <tspan font-weight="700" fill="#26215C">关键直觉：</tspan>
        <tspan>FSDP 像图书馆分馆（书被分到不同馆，借阅时凑齐）</tspan>
      </text>
      <text x="0" y="76" fill="#444441">
        <tspan font-weight="700" fill="#26215C">          </tspan>
        <tspan>TP 像流水线工人（每人只做某道工序的一小段，最后拼起来）</tspan>
      </text>

      <text x="0" y="116" fill="#5f5e5a" font-style="italic">
        在 verl 里：rollout 用 TP（vLLM 节点内 TP=8）· training 用 FSDP（全部卡 fsdp_size=N）· reshard 就是这两种切法之间的转换
      </text>
      <text x="0" y="136" fill="#5f5e5a" font-style="italic">
        这就是为什么 reshard 必要 · 因为 vLLM 的 TP 内存布局和 FSDP 的内存布局根本不兼容，必须显式转换
      </text>

      <text x="0" y="170" fill="#444441">
        <tspan font-weight="700" fill="#534AB7">回到之前问题的答案：</tspan>
        <tspan>"ref forward 应该用 TP 切，不是 FSDP" — 因为 ref 是推理（forward only），TP 是推理的标配</tspan>
      </text>
    </g>
  </g>

</svg>
