<?xml version="1.0" encoding="UTF-8"?>
<svg xmlns="http://www.w3.org/2000/svg" viewBox="0 0 1500 1180" font-family="-apple-system, BlinkMacSystemFont, 'Segoe UI', 'PingFang SC', 'Helvetica Neue', sans-serif">

  <defs>
    <linearGradient id="bg" x1="0" y1="0" x2="0" y2="1">
      <stop offset="0%" stop-color="#FAFAF7"/>
      <stop offset="100%" stop-color="#F3F2EC"/>
    </linearGradient>
    <linearGradient id="brain" x1="0" y1="0" x2="0" y2="1">
      <stop offset="0%" stop-color="#EAF1FF"/>
      <stop offset="100%" stop-color="#D7E4FF"/>
    </linearGradient>
    <marker id="arr" viewBox="0 0 10 10" refX="9" refY="5" markerWidth="7" markerHeight="7" orient="auto-start-reverse">
      <path d="M2 1L8 5L2 9" fill="none" stroke="context-stroke" stroke-width="1.6" stroke-linecap="round" stroke-linejoin="round"/>
    </marker>
  </defs>

  <rect width="1500" height="1180" fill="url(#bg)"/>

  <!-- Title -->
  <text x="60" y="56" font-size="26" font-weight="600" fill="#1a1a1a" letter-spacing="-0.4">项目整体架构 · 4 层管道 · Agent Runtime 是核心算法层</text>
  <text x="60" y="84" font-size="13" fill="#6b6b66">channel → gateway → agent_runtime → tools_factory · 中间这一格决定 Agent 的智商上限</text>
  <line x1="60" y1="100" x2="1440" y2="100" stroke="#d4d2c7" stroke-width="0.8"/>

  <text x="60" y="128" font-size="11" font-weight="700" fill="#888780" letter-spacing="2">PIPELINE · LEFT TO RIGHT · USER REQUEST → ACTION</text>

  <!-- Legend (top right) -->
  <g>
    <circle cx="1250" cy="124" r="8" fill="#0055FF"/>
    <text x="1250" y="128" font-size="9" fill="#FFF" text-anchor="middle" font-weight="700">A</text>
    <text x="1262" y="128" font-size="11" fill="#26215C">Agent Loop 设计</text>
    <circle cx="1378" cy="124" r="8" fill="#0055FF"/>
    <text x="1378" y="128" font-size="9" fill="#FFF" text-anchor="middle" font-weight="700">B</text>
    <text x="1390" y="128" font-size="11" fill="#26215C">模型 Agent 能力</text>
  </g>

  <!-- ============= STAGE 1 · CHANNEL ============= -->
  <g>
    <rect x="60" y="148" width="240" height="500" rx="6" fill="#FFFFFF" stroke="#A8A6A0" stroke-width="1.2"/>
    <rect x="60" y="148" width="240" height="42" rx="6" fill="#F0EFE8"/>
    <text x="78" y="174" font-size="11" font-weight="700" fill="#888780" letter-spacing="2">01 · INGRESS</text>
    <text x="78" y="216" font-size="22" font-weight="600" fill="#1a1a1a" letter-spacing="-0.3">Channel</text>
    <text x="78" y="237" font-size="11" fill="#6b6b66">多形态接入 · 协议适配</text>

    <g font-size="11" fill="#444441">
      <rect x="78" y="260" width="204" height="32" fill="#F8F7F1" stroke="#D4D2C7"/>
      <text x="88" y="280">Web · H5 / Web App</text>

      <rect x="78" y="296" width="204" height="32" fill="#F8F7F1" stroke="#D4D2C7"/>
      <text x="88" y="316">Mobile · iOS / Android</text>

      <rect x="78" y="332" width="204" height="32" fill="#F8F7F1" stroke="#D4D2C7"/>
      <text x="88" y="352">IM · 钉钉 / 企微 / Slack</text>

      <rect x="78" y="368" width="204" height="32" fill="#F8F7F1" stroke="#D4D2C7"/>
      <text x="88" y="388">Voice · ASR / TTS</text>

      <rect x="78" y="404" width="204" height="32" fill="#F8F7F1" stroke="#D4D2C7"/>
      <text x="88" y="424">Open API · OpenAI 兼容</text>

      <rect x="78" y="440" width="204" height="32" fill="#F8F7F1" stroke="#D4D2C7"/>
      <text x="88" y="460">Webhook / Event</text>

      <rect x="78" y="476" width="204" height="32" fill="#F8F7F1" stroke="#D4D2C7"/>
      <text x="88" y="496">SDK / Embedded</text>
    </g>

    <text x="78" y="544" font-size="10" font-style="italic" fill="#888780">· 协议适配 · 鉴权前置</text>
    <text x="78" y="562" font-size="10" font-style="italic" fill="#888780">· 上行: 文本 / 文件 / tool 回执</text>
    <text x="78" y="624" font-size="10" font-weight="700" fill="#888780" letter-spacing="1.5">前面专题已讲</text>
  </g>

  <!-- arrow 1 -->
  <path d="M305 398 L335 398" stroke="#888780" stroke-width="2" marker-end="url(#arr)" fill="none"/>

  <!-- ============= STAGE 2 · GATEWAY ============= -->
  <g>
    <rect x="340" y="148" width="260" height="500" rx="6" fill="#FFFFFF" stroke="#A8A6A0" stroke-width="1.2"/>
    <rect x="340" y="148" width="260" height="42" rx="6" fill="#F0EFE8"/>
    <text x="358" y="174" font-size="11" font-weight="700" fill="#888780" letter-spacing="2">02 · ROUTER · ORCHESTRATION</text>
    <text x="358" y="216" font-size="22" font-weight="600" fill="#1a1a1a" letter-spacing="-0.3">Gateway</text>
    <text x="358" y="237" font-size="11" fill="#6b6b66">编排 · 路由 · 流控 · 灰度</text>

    <g font-size="11" fill="#444441">
      <rect x="358" y="260" width="224" height="30" fill="#F8F7F1" stroke="#D4D2C7"/>
      <text x="368" y="279">Load Balancer · 接入层</text>

      <rect x="358" y="294" width="224" height="30" fill="#F8F7F1" stroke="#D4D2C7"/>
      <text x="368" y="313">Auth · ACL · API Key</text>

      <rect x="358" y="328" width="224" height="30" fill="#F8F7F1" stroke="#D4D2C7"/>
      <text x="368" y="347">Router · intent → agent_id</text>

      <rect x="358" y="362" width="224" height="30" fill="#F8F7F1" stroke="#D4D2C7"/>
      <text x="368" y="381">Session Manager · 会话状态</text>

      <rect x="358" y="396" width="224" height="30" fill="#F8F7F1" stroke="#D4D2C7"/>
      <text x="368" y="415">Context Assembler · 历史拼装</text>

      <rect x="358" y="430" width="224" height="30" fill="#F8F7F1" stroke="#D4D2C7"/>
      <text x="368" y="449">Rate Limit · Quota · 熔断</text>

      <rect x="358" y="464" width="224" height="30" fill="#F8F7F1" stroke="#D4D2C7"/>
      <text x="368" y="483">A/B · Canary · 灰度</text>

      <rect x="358" y="498" width="224" height="30" fill="#F8F7F1" stroke="#D4D2C7"/>
      <text x="368" y="517">Tracing · Logging · Metrics</text>
    </g>

    <text x="358" y="624" font-size="10" font-weight="700" fill="#888780" letter-spacing="1.5">前面专题已讲</text>
  </g>

  <!-- arrow 2 -->
  <path d="M605 398 L635 398" stroke="#888780" stroke-width="2" marker-end="url(#arr)" fill="none"/>

  <!-- ============= STAGE 3 · AGENT RUNTIME (HIGHLIGHTED) ============= -->
  <!-- Outer dashed highlight ring -->
  <rect x="628" y="130" width="412" height="540" rx="14" fill="none" stroke="#0055FF" stroke-width="2" stroke-dasharray="6 4" opacity="0.55"/>

  <g>
    <rect x="640" y="148" width="388" height="500" rx="8" fill="url(#brain)" stroke="#0055FF" stroke-width="2.4"/>
    <rect x="640" y="148" width="388" height="42" rx="8" fill="#0055FF"/>
    <text x="660" y="174" font-size="11" font-weight="700" fill="#FFFFFF" letter-spacing="2">03 · BRAIN · ★ 本课程核心 ★</text>
    <text x="660" y="216" font-size="24" font-weight="700" fill="#0055FF" letter-spacing="-0.3">Agent Runtime</text>
    <text x="660" y="238" font-size="11" fill="#26215C" font-weight="600">决策中枢 · 决定 Agent 智商上限</text>

    <!-- Internal sub-modules · two columns -->
    <g font-size="11" fill="#1a1a1a">
      <!-- Column 1 -->
      <rect x="660" y="260" width="172" height="36" fill="#FFFFFF" stroke="#0055FF" stroke-width="0.8"/>
      <text x="670" y="277" font-weight="600">Orchestrator</text>
      <text x="670" y="290" font-size="9" fill="#6b6b66">回合管理 · 状态机</text>

      <rect x="660" y="302" width="172" height="44" fill="#FFFFFF" stroke="#0055FF" stroke-width="1.6"/>
      <text x="670" y="320" font-weight="700" fill="#0055FF">Agent Loop ★</text>
      <text x="670" y="334" font-size="9" fill="#26215C">think → act → observe</text>
      <circle cx="816" cy="324" r="9" fill="#0055FF"/>
      <text x="816" y="328" font-size="10" fill="#FFF" text-anchor="middle" font-weight="700">A</text>

      <rect x="660" y="352" width="172" height="36" fill="#FFFFFF" stroke="#0055FF" stroke-width="0.8"/>
      <text x="670" y="369" font-weight="600">Planning · CoT / ToT</text>
      <text x="670" y="382" font-size="9" fill="#6b6b66">任务分解 · 子目标</text>

      <rect x="660" y="394" width="172" height="36" fill="#FFFFFF" stroke="#0055FF" stroke-width="0.8"/>
      <text x="670" y="411" font-weight="600">Memory</text>
      <text x="670" y="424" font-size="9" fill="#6b6b66">short / long / vector</text>

      <rect x="660" y="436" width="172" height="36" fill="#FFFFFF" stroke="#0055FF" stroke-width="0.8"/>
      <text x="670" y="453" font-weight="600">Tool Dispatcher</text>
      <text x="670" y="466" font-size="9" fill="#6b6b66">parse · route · retry</text>

      <!-- Column 2 -->
      <rect x="844" y="260" width="172" height="36" fill="#FFFFFF" stroke="#0055FF" stroke-width="0.8"/>
      <text x="854" y="277" font-weight="600">Prompt Manager</text>
      <text x="854" y="290" font-size="9" fill="#6b6b66">system / role / tool schema</text>

      <rect x="844" y="302" width="172" height="44" fill="#FFFFFF" stroke="#0055FF" stroke-width="1.6"/>
      <text x="854" y="320" font-weight="700" fill="#0055FF">Model · LLM ★</text>
      <text x="854" y="334" font-size="9" fill="#26215C">是否调 · 调什么 · 何时停</text>
      <circle cx="1000" cy="324" r="9" fill="#0055FF"/>
      <text x="1000" y="328" font-size="10" fill="#FFF" text-anchor="middle" font-weight="700">B</text>

      <rect x="844" y="352" width="172" height="36" fill="#FFFFFF" stroke="#0055FF" stroke-width="0.8"/>
      <text x="854" y="369" font-weight="600">Reflection · Self-Critic</text>
      <text x="854" y="382" font-size="9" fill="#6b6b66">错误纠正 · 重试</text>

      <rect x="844" y="394" width="172" height="36" fill="#FFFFFF" stroke="#0055FF" stroke-width="0.8"/>
      <text x="854" y="411" font-weight="600">Guardrails</text>
      <text x="854" y="424" font-size="9" fill="#6b6b66">安全 · 越权 · 内容过滤</text>

      <rect x="844" y="436" width="172" height="36" fill="#FFFFFF" stroke="#0055FF" stroke-width="0.8"/>
      <text x="854" y="453" font-weight="600">Trajectory Buffer</text>
      <text x="854" y="466" font-size="9" fill="#6b6b66">轨迹采集 · 训练样本源</text>
    </g>

    <!-- Two branch markers inside the box -->
    <line x1="660" y1="495" x2="1016" y2="495" stroke="#0055FF" stroke-dasharray="2 3" stroke-width="0.8"/>
    <text x="660" y="514" font-size="11" font-weight="700" fill="#0055FF" letter-spacing="0.5">两条核心路线 ↓</text>
    <text x="660" y="535" font-size="11" fill="#26215C">A · Agent Loop 的设计 — <tspan font-style="italic" fill="#888780">工程问题</tspan></text>
    <text x="660" y="554" font-size="11" fill="#26215C">B · 模型本身的 Agent 能力 — <tspan font-weight="700" fill="#0055FF">算法问题 → Agentic RL</tspan></text>

    <text x="660" y="612" font-size="11" font-weight="700" fill="#0055FF" letter-spacing="1.5">本课程: 攻 B 路线 · 用 verl 训出更强的 Agent 能力</text>
  </g>

  <!-- "本课程" tag -->
  <rect x="956" y="116" width="84" height="22" rx="2" fill="#0055FF"/>
  <text x="998" y="132" font-size="10" font-weight="700" fill="#FFFFFF" text-anchor="middle" letter-spacing="1.5">本课程</text>

  <!-- arrow 3 -->
  <path d="M1045 398 L1075 398" stroke="#888780" stroke-width="2" marker-end="url(#arr)" fill="none"/>

  <!-- ============= STAGE 4 · TOOLS FACTORY ============= -->
  <g>
    <rect x="1080" y="148" width="280" height="500" rx="6" fill="#FFFFFF" stroke="#A8A6A0" stroke-width="1.2"/>
    <rect x="1080" y="148" width="280" height="42" rx="6" fill="#F0EFE8"/>
    <text x="1098" y="174" font-size="11" font-weight="700" fill="#888780" letter-spacing="2">04 · ACTUATORS</text>
    <text x="1098" y="216" font-size="22" font-weight="600" fill="#1a1a1a" letter-spacing="-0.3">Tools Factory</text>
    <text x="1098" y="237" font-size="11" fill="#6b6b66">工具池 · 沙箱 · 业务连接</text>

    <g font-size="11" fill="#444441">
      <rect x="1098" y="260" width="244" height="30" fill="#F8F7F1" stroke="#D4D2C7"/>
      <text x="1108" y="279">Tool Registry · Schema 中心</text>

      <rect x="1098" y="294" width="244" height="30" fill="#F8F7F1" stroke="#D4D2C7"/>
      <text x="1108" y="313">Sandbox · Container / Subprocess</text>

      <rect x="1098" y="328" width="244" height="30" fill="#F8F7F1" stroke="#D4D2C7"/>
      <text x="1108" y="347">Code Executor · Python / JS</text>

      <rect x="1098" y="362" width="244" height="30" fill="#F8F7F1" stroke="#D4D2C7"/>
      <text x="1108" y="381">Web Search · Browser</text>

      <rect x="1098" y="396" width="244" height="30" fill="#F8F7F1" stroke="#D4D2C7"/>
      <text x="1108" y="415">RAG · Vector / Hybrid</text>

      <rect x="1098" y="430" width="244" height="30" fill="#F8F7F1" stroke="#D4D2C7"/>
      <text x="1108" y="449">SQL / Database Connector</text>

      <rect x="1098" y="464" width="244" height="30" fill="#F8F7F1" stroke="#D4D2C7"/>
      <text x="1108" y="483">HTTP · 业务系统连接器</text>

      <rect x="1098" y="498" width="244" height="30" fill="#F8F7F1" stroke="#D4D2C7"/>
      <text x="1108" y="517">Result Validator · 重试 · 回写</text>
    </g>

    <text x="1098" y="624" font-size="10" font-weight="700" fill="#888780" letter-spacing="1.5">前面专题已讲</text>
  </g>

  <!-- ============= CROSS-CUTTING BAR ============= -->
  <rect x="60" y="688" width="1300" height="62" rx="6" fill="#FFFFFF" stroke="#A8A6A0" stroke-width="1.2"/>
  <text x="80" y="713" font-size="11" font-weight="700" fill="#888780" letter-spacing="2">CROSS-CUTTING · 横切关注点</text>
  <g font-size="12" fill="#444441">
    <text x="80" y="737">· Observability (Trace/Log/Metric)</text>
    <text x="338" y="737">· Storage (Object/KV/Vector)</text>
    <text x="588" y="737">· Config Center</text>
    <text x="788" y="737">· Scheduler / Queue</text>
    <text x="978" y="737">· Model Serving (vLLM/SGLang)</text>
    <text x="1228" y="737">· CI / CD</text>
  </g>

  <!-- ============= TWO BRANCH CALLOUTS FROM AGENT RUNTIME ============= -->
  <!-- Branch A · Agent Loop 设计 -->
  <path d="M780 670 Q 540 770 360 820" stroke="#888780" stroke-width="2" stroke-dasharray="6 5" fill="none"/>
  <!-- Branch B · 模型本身的 Agent 能力 -->
  <path d="M960 670 Q 1080 770 1100 820" stroke="#0055FF" stroke-width="2.6" stroke-dasharray="6 5" fill="none"/>

  <!-- Branch A box -->
  <rect x="80" y="820" width="540" height="200" rx="8" fill="#FFFFFF" stroke="#888780" stroke-width="1.4"/>
  <rect x="80" y="820" width="540" height="38" rx="8" fill="#F0EFE8"/>
  <circle cx="108" cy="839" r="10" fill="#888780"/>
  <text x="108" y="843" font-size="10" fill="#FFF" text-anchor="middle" font-weight="700">A</text>
  <text x="128" y="844" font-size="11" font-weight="700" fill="#888780" letter-spacing="2">BRANCH A · 工程问题 · 已经讲过</text>

  <text x="98" y="884" font-size="20" font-weight="600" fill="#1a1a1a">Agent Loop 的设计</text>
  <g font-size="12" fill="#444441">
    <text x="98" y="916">· 多轮对话调度 · 何时切换 turn / 终止</text>
    <text x="98" y="940">· tool schema 设计 · function calling 协议</text>
    <text x="98" y="964">· context 管理 · 截断 / 摘要 / 滑窗</text>
    <text x="98" y="988">· error handling · retry / fallback</text>
  </g>
  <text x="98" y="1010" font-size="11" font-style="italic" fill="#888780">→ 上限被"模型怎么决策"卡住</text>

  <!-- Branch B box -->
  <rect x="660" y="820" width="700" height="200" rx="8" fill="#FFFFFF" stroke="#0055FF" stroke-width="2.4"/>
  <rect x="660" y="820" width="700" height="38" rx="8" fill="#0055FF"/>
  <circle cx="688" cy="839" r="10" fill="#FFFFFF"/>
  <text x="688" y="843" font-size="10" fill="#0055FF" text-anchor="middle" font-weight="700">B</text>
  <text x="708" y="844" font-size="11" font-weight="700" fill="#FFFFFF" letter-spacing="2">BRANCH B · 算法问题 · 本课程主线 ★</text>

  <text x="678" y="884" font-size="20" font-weight="700" fill="#0055FF">模型本身的 Agent 能力</text>
  <g font-size="12" fill="#26215C">
    <text x="678" y="916">· 工具该不该调用 · 调用哪个 · 参数怎么填</text>
    <text x="678" y="940">· 多轮规划 · 何时停止 · 错误后的纠正策略</text>
    <text x="678" y="964">· 长 trajectory 决策的稳定性</text>
  </g>
  <line x1="678" y1="978" x2="1340" y2="978" stroke="#0055FF" stroke-dasharray="3 3" stroke-width="0.8"/>
  <text x="678" y="1004" font-size="13" font-weight="700" fill="#0055FF">→ 这种"策略"靠 Agentic RL 训出来 · verl 是 Agentic RL 训练框架</text>

  <!-- Footer -->
  <text x="60" y="1060" font-size="11" font-weight="600" fill="#888780" letter-spacing="2">VERL · HYBRIDFLOW · AGENTIC RL TRAINING FRAMEWORK</text>
  <text x="1440" y="1060" font-size="11" font-weight="600" fill="#888780" letter-spacing="2" text-anchor="end">CH 0 · INTRO</text>

</svg>
