<?xml version="1.0" encoding="UTF-8"?>
<svg xmlns="http://www.w3.org/2000/svg" viewBox="0 0 1480 2280" font-family="-apple-system, BlinkMacSystemFont, 'Segoe UI', 'PingFang SC', 'Helvetica Neue', sans-serif">

  <defs>
    <linearGradient id="bg" x1="0" y1="0" x2="0" y2="1">
      <stop offset="0%" stop-color="#FAFAF7"/>
      <stop offset="100%" stop-color="#F3F2EC"/>
    </linearGradient>

    <marker id="arrow" viewBox="0 0 10 10" refX="9" refY="5" markerWidth="8" markerHeight="8" orient="auto-start-reverse">
      <path d="M2 1L8 5L2 9" fill="none" stroke="context-stroke" stroke-width="1.6" stroke-linecap="round" stroke-linejoin="round"/>
    </marker>
    <marker id="arrow-thin" viewBox="0 0 10 10" refX="9" refY="5" markerWidth="6" markerHeight="6" orient="auto-start-reverse">
      <path d="M2 1L8 5L2 9" fill="none" stroke="context-stroke" stroke-width="1.2" stroke-linecap="round" stroke-linejoin="round"/>
    </marker>

    <pattern id="wasted" patternUnits="userSpaceOnUse" width="6" height="6" patternTransform="rotate(45)">
      <rect width="6" height="6" fill="#FCEBEB"/>
      <line x1="0" y1="0" x2="0" y2="6" stroke="#E24B4A" stroke-width="1.2"/>
    </pattern>
  </defs>

  <rect width="1480" height="2280" fill="url(#bg)"/>

  <!-- Title -->
  <text x="60" y="58" font-size="28" font-weight="600" fill="#1a1a1a" letter-spacing="-0.4">Remove Padding · 长样本拼接的 attention 隔离机制</text>
  <text x="60" y="86" font-size="14" fill="#6b6b66" font-style="italic">把多个样本拼成一条 · 用 cu_seqlens + 块对角 mask 严格隔离 · 省 40%+ 计算</text>
  <line x1="60" y1="100" x2="1420" y2="100" stroke="#d4d2c7" stroke-width="0.8"/>

  <!-- ============================================== -->
  <!-- 核心问题                                         -->
  <!-- ============================================== -->
  <g transform="translate(60, 120)">
    <rect x="0" y="0" width="1360" height="120" rx="6" fill="#FFFFFF" stroke="#A32D2D" stroke-width="0.8"/>
    <text x="22" y="28" font-size="14" font-weight="700" fill="#501313">核心问题</text>
    <line x1="22" y1="40" x2="200" y2="40" stroke="#F09595" stroke-width="0.6"/>

    <g transform="translate(22, 60)" font-size="13">
      <text x="0" y="0" fill="#444441">如果把 3 个样本直接拼成一条 15 token 的长序列：</text>
      <text x="0" y="22" font-family="ui-monospace, monospace" fill="#A32D2D">[我, 爱, 北, 京, 天, 安, 门 | 你, 好 | 今, 天, 天, 气, 真, 好]</text>
      <text x="0" y="44" fill="#444441">普通 attention 让"你"看到"北京天安门" → <tspan font-weight="700" fill="#A32D2D">完全错了</tspan></text>
    </g>
  </g>

  <!-- ============================================== -->
  <!-- 三个样本的设定                                    -->
  <!-- ============================================== -->
  <g transform="translate(60, 260)">
    <rect x="0" y="0" width="1360" height="180" rx="6" fill="#FFFFFF" stroke="#534AB7" stroke-width="0.8"/>
    <text x="22" y="28" font-size="14" font-weight="700" fill="#26215C">输入：3 个不等长样本</text>
    <line x1="22" y1="40" x2="280" y2="40" stroke="#CECBF6" stroke-width="0.6"/>

    <g transform="translate(40, 60)">
      <!-- 样本 1 -->
      <text x="0" y="20" font-size="12" font-weight="600" fill="#26215C">样本 1 (7 token):</text>
      <g transform="translate(180, 0)" font-family="ui-monospace, monospace" font-size="14">
        <rect x="0" y="0" width="40" height="36" rx="3" fill="#E1F5EE" stroke="#0F6E56" stroke-width="0.6"/>
        <text x="20" y="24" fill="#04342C" text-anchor="middle">我</text>
        <rect x="44" y="0" width="40" height="36" rx="3" fill="#E1F5EE" stroke="#0F6E56" stroke-width="0.6"/>
        <text x="64" y="24" fill="#04342C" text-anchor="middle">爱</text>
        <rect x="88" y="0" width="40" height="36" rx="3" fill="#E1F5EE" stroke="#0F6E56" stroke-width="0.6"/>
        <text x="108" y="24" fill="#04342C" text-anchor="middle">北</text>
        <rect x="132" y="0" width="40" height="36" rx="3" fill="#E1F5EE" stroke="#0F6E56" stroke-width="0.6"/>
        <text x="152" y="24" fill="#04342C" text-anchor="middle">京</text>
        <rect x="176" y="0" width="40" height="36" rx="3" fill="#E1F5EE" stroke="#0F6E56" stroke-width="0.6"/>
        <text x="196" y="24" fill="#04342C" text-anchor="middle">天</text>
        <rect x="220" y="0" width="40" height="36" rx="3" fill="#E1F5EE" stroke="#0F6E56" stroke-width="0.6"/>
        <text x="240" y="24" fill="#04342C" text-anchor="middle">安</text>
        <rect x="264" y="0" width="40" height="36" rx="3" fill="#E1F5EE" stroke="#0F6E56" stroke-width="0.6"/>
        <text x="284" y="24" fill="#04342C" text-anchor="middle">门</text>
      </g>

      <!-- 样本 2 -->
      <text x="0" y="68" font-size="12" font-weight="600" fill="#26215C">样本 2 (2 token):</text>
      <g transform="translate(180, 48)" font-family="ui-monospace, monospace" font-size="14">
        <rect x="0" y="0" width="40" height="36" rx="3" fill="#FAEEDA" stroke="#BA7517" stroke-width="0.6"/>
        <text x="20" y="24" fill="#412402" text-anchor="middle">你</text>
        <rect x="44" y="0" width="40" height="36" rx="3" fill="#FAEEDA" stroke="#BA7517" stroke-width="0.6"/>
        <text x="64" y="24" fill="#412402" text-anchor="middle">好</text>
      </g>

      <!-- 样本 3 -->
      <text x="0" y="116" font-size="12" font-weight="600" fill="#26215C">样本 3 (6 token):</text>
      <g transform="translate(180, 96)" font-family="ui-monospace, monospace" font-size="14">
        <rect x="0" y="0" width="40" height="36" rx="3" fill="#E6F1FB" stroke="#378ADD" stroke-width="0.6"/>
        <text x="20" y="24" fill="#042C53" text-anchor="middle">今</text>
        <rect x="44" y="0" width="40" height="36" rx="3" fill="#E6F1FB" stroke="#378ADD" stroke-width="0.6"/>
        <text x="64" y="24" fill="#042C53" text-anchor="middle">天</text>
        <rect x="88" y="0" width="40" height="36" rx="3" fill="#E6F1FB" stroke="#378ADD" stroke-width="0.6"/>
        <text x="108" y="24" fill="#042C53" text-anchor="middle">天</text>
        <rect x="132" y="0" width="40" height="36" rx="3" fill="#E6F1FB" stroke="#378ADD" stroke-width="0.6"/>
        <text x="152" y="24" fill="#042C53" text-anchor="middle">气</text>
        <rect x="176" y="0" width="40" height="36" rx="3" fill="#E6F1FB" stroke="#378ADD" stroke-width="0.6"/>
        <text x="196" y="24" fill="#042C53" text-anchor="middle">真</text>
        <rect x="220" y="0" width="40" height="36" rx="3" fill="#E6F1FB" stroke="#378ADD" stroke-width="0.6"/>
        <text x="244" y="24" fill="#042C53" text-anchor="middle">好</text>
      </g>
    </g>
  </g>

  <!-- ============================================== -->
  <!-- 方案 1: Padding                                  -->
  <!-- ============================================== -->
  <g transform="translate(60, 460)">
    <rect x="0" y="0" width="1360" height="540" rx="8" fill="#FFFFFF" stroke="#A32D2D" stroke-width="1.2"/>
    <rect x="0" y="0" width="6" height="540" rx="2" fill="#A32D2D"/>

    <text x="22" y="32" font-size="18" font-weight="700" fill="#501313">方案 1 · Padding（传统做法）</text>
    <text x="22" y="54" font-size="12.5" fill="#791F1F">把所有样本 pad 到 max_len=7 · 用 mask 屏蔽 pad 位置 · 简单但浪费</text>

    <!-- Padding 后的样本 -->
    <g transform="translate(40, 80)">
      <text x="0" y="0" font-size="13" font-weight="700" fill="#1a1a1a">Padding 后（每条都是 7 token）：</text>

      <g transform="translate(0, 16)" font-family="ui-monospace, monospace" font-size="14">
        <!-- 样本 1: 全部有效 -->
        <text x="0" y="22" font-size="12" font-weight="600" fill="#501313">样本 1:</text>
        <g transform="translate(80, 0)">
          <rect x="0" y="0" width="40" height="32" rx="3" fill="#E1F5EE" stroke="#0F6E56" stroke-width="0.6"/>
          <text x="20" y="22" fill="#04342C" text-anchor="middle">我</text>
          <rect x="44" y="0" width="40" height="32" rx="3" fill="#E1F5EE" stroke="#0F6E56" stroke-width="0.6"/>
          <text x="64" y="22" fill="#04342C" text-anchor="middle">爱</text>
          <rect x="88" y="0" width="40" height="32" rx="3" fill="#E1F5EE" stroke="#0F6E56" stroke-width="0.6"/>
          <text x="108" y="22" fill="#04342C" text-anchor="middle">北</text>
          <rect x="132" y="0" width="40" height="32" rx="3" fill="#E1F5EE" stroke="#0F6E56" stroke-width="0.6"/>
          <text x="152" y="22" fill="#04342C" text-anchor="middle">京</text>
          <rect x="176" y="0" width="40" height="32" rx="3" fill="#E1F5EE" stroke="#0F6E56" stroke-width="0.6"/>
          <text x="196" y="22" fill="#04342C" text-anchor="middle">天</text>
          <rect x="220" y="0" width="40" height="32" rx="3" fill="#E1F5EE" stroke="#0F6E56" stroke-width="0.6"/>
          <text x="240" y="22" fill="#04342C" text-anchor="middle">安</text>
          <rect x="264" y="0" width="40" height="32" rx="3" fill="#E1F5EE" stroke="#0F6E56" stroke-width="0.6"/>
          <text x="284" y="22" fill="#04342C" text-anchor="middle">门</text>
        </g>
        <text x="400" y="22" font-size="11" fill="#5f5e5a">7×7 = 49 次 attention 计算</text>

        <!-- 样本 2: 后面 pad -->
        <text x="0" y="60" font-size="12" font-weight="600" fill="#501313">样本 2:</text>
        <g transform="translate(80, 38)">
          <rect x="0" y="0" width="40" height="32" rx="3" fill="#FAEEDA" stroke="#BA7517" stroke-width="0.6"/>
          <text x="20" y="22" fill="#412402" text-anchor="middle">你</text>
          <rect x="44" y="0" width="40" height="32" rx="3" fill="#FAEEDA" stroke="#BA7517" stroke-width="0.6"/>
          <text x="64" y="22" fill="#412402" text-anchor="middle">好</text>
          <rect x="88" y="0" width="40" height="32" rx="3" fill="url(#wasted)" stroke="#A32D2D" stroke-width="0.6"/>
          <text x="108" y="22" fill="#A32D2D" text-anchor="middle">P</text>
          <rect x="132" y="0" width="40" height="32" rx="3" fill="url(#wasted)" stroke="#A32D2D" stroke-width="0.6"/>
          <text x="152" y="22" fill="#A32D2D" text-anchor="middle">P</text>
          <rect x="176" y="0" width="40" height="32" rx="3" fill="url(#wasted)" stroke="#A32D2D" stroke-width="0.6"/>
          <text x="196" y="22" fill="#A32D2D" text-anchor="middle">P</text>
          <rect x="220" y="0" width="40" height="32" rx="3" fill="url(#wasted)" stroke="#A32D2D" stroke-width="0.6"/>
          <text x="240" y="22" fill="#A32D2D" text-anchor="middle">P</text>
          <rect x="264" y="0" width="40" height="32" rx="3" fill="url(#wasted)" stroke="#A32D2D" stroke-width="0.6"/>
          <text x="284" y="22" fill="#A32D2D" text-anchor="middle">P</text>
        </g>
        <text x="400" y="60" font-size="11" fill="#5f5e5a">7×7 = 49 次（5/7 是浪费）</text>

        <!-- 样本 3: 后面 pad -->
        <text x="0" y="98" font-size="12" font-weight="600" fill="#501313">样本 3:</text>
        <g transform="translate(80, 76)">
          <rect x="0" y="0" width="40" height="32" rx="3" fill="#E6F1FB" stroke="#378ADD" stroke-width="0.6"/>
          <text x="20" y="22" fill="#042C53" text-anchor="middle">今</text>
          <rect x="44" y="0" width="40" height="32" rx="3" fill="#E6F1FB" stroke="#378ADD" stroke-width="0.6"/>
          <text x="64" y="22" fill="#042C53" text-anchor="middle">天</text>
          <rect x="88" y="0" width="40" height="32" rx="3" fill="#E6F1FB" stroke="#378ADD" stroke-width="0.6"/>
          <text x="108" y="22" fill="#042C53" text-anchor="middle">天</text>
          <rect x="132" y="0" width="40" height="32" rx="3" fill="#E6F1FB" stroke="#378ADD" stroke-width="0.6"/>
          <text x="152" y="22" fill="#042C53" text-anchor="middle">气</text>
          <rect x="176" y="0" width="40" height="32" rx="3" fill="#E6F1FB" stroke="#378ADD" stroke-width="0.6"/>
          <text x="196" y="22" fill="#042C53" text-anchor="middle">真</text>
          <rect x="220" y="0" width="40" height="32" rx="3" fill="#E6F1FB" stroke="#378ADD" stroke-width="0.6"/>
          <text x="240" y="22" fill="#042C53" text-anchor="middle">好</text>
          <rect x="264" y="0" width="40" height="32" rx="3" fill="url(#wasted)" stroke="#A32D2D" stroke-width="0.6"/>
          <text x="284" y="22" fill="#A32D2D" text-anchor="middle">P</text>
        </g>
        <text x="400" y="98" font-size="11" fill="#5f5e5a">7×7 = 49 次（1/7 是浪费）</text>
      </g>
    </g>

    <!-- 计算量浪费可视化 -->
    <g transform="translate(40, 280)">
      <text x="0" y="0" font-size="13" font-weight="700" fill="#1a1a1a">attention 矩阵填充情况（红色斜纹 = 浪费的计算）：</text>

      <!-- 样本 2 的 attention 矩阵示意 -->
      <g transform="translate(0, 24)">
        <text x="0" y="80" font-size="12" font-weight="600" fill="#501313">样本 2 的 7×7 矩阵：</text>

        <g transform="translate(180, 0)">
          <!-- 7×7 矩阵, 每格 24px -->
          <g>
            <!-- 第 1, 2 行/列 是有效 token, 其他 pad -->
            <!-- 4 种区域 -->
            <!-- 有效 × 有效: 2×2 = 4 -->
            <rect x="0" y="0" width="48" height="48" fill="#FAEEDA" stroke="#BA7517" stroke-width="0.5"/>
            <text x="24" y="28" font-size="11" fill="#412402" text-anchor="middle">有效 4</text>

            <!-- 有效 × pad: 2×5 = 10 -->
            <rect x="48" y="0" width="120" height="48" fill="url(#wasted)" stroke="#A32D2D" stroke-width="0.5"/>
            <text x="108" y="28" font-size="11" fill="#A32D2D" text-anchor="middle">pad 10</text>

            <!-- pad × 有效: 5×2 = 10 -->
            <rect x="0" y="48" width="48" height="120" fill="url(#wasted)" stroke="#A32D2D" stroke-width="0.5"/>
            <text x="24" y="108" font-size="11" fill="#A32D2D" text-anchor="middle">10</text>

            <!-- pad × pad: 5×5 = 25 -->
            <rect x="48" y="48" width="120" height="120" fill="url(#wasted)" stroke="#A32D2D" stroke-width="0.5"/>
            <text x="108" y="108" font-size="11" fill="#A32D2D" text-anchor="middle">pad 25</text>
          </g>

          <!-- 标注 -->
          <text x="180" y="20" font-size="11" fill="#A32D2D">→ 49 次计算中</text>
          <text x="180" y="38" font-size="11" fill="#A32D2D" font-weight="700">  45 次是 pad 浪费</text>
          <text x="180" y="56" font-size="11" fill="#A32D2D">  仅 4 次有效</text>

          <text x="180" y="90" font-size="11" fill="#5f5e5a" font-style="italic">理论上 mask 屏蔽了 pad 区</text>
          <text x="180" y="108" font-size="11" fill="#5f5e5a" font-style="italic">但 GPU 还是把这些数算了</text>
          <text x="180" y="126" font-size="11" fill="#5f5e5a" font-style="italic">（kernel 是稠密计算）</text>
        </g>
      </g>
    </g>

    <!-- 总结 -->
    <g transform="translate(40, 460)">
      <rect x="0" y="0" width="1280" height="60" rx="6" fill="#FCEBEB" stroke="#E24B4A" stroke-width="0.6"/>
      <text x="14" y="22" font-size="13" font-weight="700" fill="#501313">Padding 方案总账</text>
      <text x="14" y="42" font-size="12" fill="#444441">总计算 = 3 × 49 = <tspan font-weight="700" fill="#A32D2D">147 次 attention</tspan> · 其中只有 49+4+36 = 89 次有效 · <tspan font-weight="700" fill="#A32D2D">浪费 39.5%</tspan></text>
    </g>
  </g>

  <!-- ============================================== -->
  <!-- 方案 2: Remove padding                            -->
  <!-- ============================================== -->
  <g transform="translate(60, 1020)">
    <rect x="0" y="0" width="1360" height="780" rx="8" fill="#FFFFFF" stroke="#0F6E56" stroke-width="1.2"/>
    <rect x="0" y="0" width="6" height="780" rx="2" fill="#0F6E56"/>

    <text x="22" y="32" font-size="18" font-weight="700" fill="#04342C">方案 2 · Remove Padding（FlashAttention varlen）</text>
    <text x="22" y="54" font-size="12.5" fill="#0F6E56">直接拼接成一条长序列 · 用 cu_seqlens 标记边界 · 块对角 attention 隔离</text>

    <!-- 拼接后的序列 -->
    <g transform="translate(40, 80)">
      <text x="0" y="0" font-size="13" font-weight="700" fill="#1a1a1a">拼接成 15 token 长序列：</text>

      <g transform="translate(0, 20)" font-family="ui-monospace, monospace" font-size="14">
        <!-- 样本 1: 0..6 -->
        <rect x="0" y="0" width="40" height="36" rx="3" fill="#E1F5EE" stroke="#0F6E56" stroke-width="0.6"/>
        <text x="20" y="24" fill="#04342C" text-anchor="middle">我</text>
        <rect x="42" y="0" width="40" height="36" rx="3" fill="#E1F5EE" stroke="#0F6E56" stroke-width="0.6"/>
        <text x="62" y="24" fill="#04342C" text-anchor="middle">爱</text>
        <rect x="84" y="0" width="40" height="36" rx="3" fill="#E1F5EE" stroke="#0F6E56" stroke-width="0.6"/>
        <text x="104" y="24" fill="#04342C" text-anchor="middle">北</text>
        <rect x="126" y="0" width="40" height="36" rx="3" fill="#E1F5EE" stroke="#0F6E56" stroke-width="0.6"/>
        <text x="146" y="24" fill="#04342C" text-anchor="middle">京</text>
        <rect x="168" y="0" width="40" height="36" rx="3" fill="#E1F5EE" stroke="#0F6E56" stroke-width="0.6"/>
        <text x="188" y="24" fill="#04342C" text-anchor="middle">天</text>
        <rect x="210" y="0" width="40" height="36" rx="3" fill="#E1F5EE" stroke="#0F6E56" stroke-width="0.6"/>
        <text x="230" y="24" fill="#04342C" text-anchor="middle">安</text>
        <rect x="252" y="0" width="40" height="36" rx="3" fill="#E1F5EE" stroke="#0F6E56" stroke-width="0.6"/>
        <text x="272" y="24" fill="#04342C" text-anchor="middle">门</text>

        <!-- 边界 -->
        <line x1="294" y1="-4" x2="294" y2="40" stroke="#534AB7" stroke-width="2"/>

        <!-- 样本 2: 7..8 -->
        <rect x="296" y="0" width="40" height="36" rx="3" fill="#FAEEDA" stroke="#BA7517" stroke-width="0.6"/>
        <text x="316" y="24" fill="#412402" text-anchor="middle">你</text>
        <rect x="338" y="0" width="40" height="36" rx="3" fill="#FAEEDA" stroke="#BA7517" stroke-width="0.6"/>
        <text x="358" y="24" fill="#412402" text-anchor="middle">好</text>

        <!-- 边界 -->
        <line x1="380" y1="-4" x2="380" y2="40" stroke="#534AB7" stroke-width="2"/>

        <!-- 样本 3: 9..14 -->
        <rect x="382" y="0" width="40" height="36" rx="3" fill="#E6F1FB" stroke="#378ADD" stroke-width="0.6"/>
        <text x="402" y="24" fill="#042C53" text-anchor="middle">今</text>
        <rect x="424" y="0" width="40" height="36" rx="3" fill="#E6F1FB" stroke="#378ADD" stroke-width="0.6"/>
        <text x="444" y="24" fill="#042C53" text-anchor="middle">天</text>
        <rect x="466" y="0" width="40" height="36" rx="3" fill="#E6F1FB" stroke="#378ADD" stroke-width="0.6"/>
        <text x="486" y="24" fill="#042C53" text-anchor="middle">天</text>
        <rect x="508" y="0" width="40" height="36" rx="3" fill="#E6F1FB" stroke="#378ADD" stroke-width="0.6"/>
        <text x="528" y="24" fill="#042C53" text-anchor="middle">气</text>
        <rect x="550" y="0" width="40" height="36" rx="3" fill="#E6F1FB" stroke="#378ADD" stroke-width="0.6"/>
        <text x="570" y="24" fill="#042C53" text-anchor="middle">真</text>
        <rect x="592" y="0" width="40" height="36" rx="3" fill="#E6F1FB" stroke="#378ADD" stroke-width="0.6"/>
        <text x="612" y="24" fill="#042C53" text-anchor="middle">好</text>
      </g>

      <!-- 索引 -->
      <g transform="translate(0, 60)" font-size="9.5" fill="#5f5e5a" text-anchor="middle">
        <text x="20">0</text><text x="62">1</text><text x="104">2</text><text x="146">3</text>
        <text x="188">4</text><text x="230">5</text><text x="272">6</text>
        <text x="316">7</text><text x="358">8</text>
        <text x="402">9</text><text x="444">10</text><text x="486">11</text>
        <text x="528">12</text><text x="570">13</text><text x="612">14</text>
      </g>

      <!-- cu_seqlens -->
      <g transform="translate(720, 0)">
        <rect x="0" y="0" width="500" height="60" rx="6" fill="#EEEDFE" stroke="#534AB7" stroke-width="0.8"/>
        <text x="14" y="22" font-size="12" font-weight="700" fill="#26215C">cu_seqlens（边界数组）</text>
        <text x="14" y="42" font-size="12" font-family="ui-monospace, monospace" fill="#534AB7">[0, 7, 9, 15]</text>
        <text x="170" y="42" font-size="11" fill="#5f5e5a" font-style="italic">→ 4 个数标出 3 个段</text>
      </g>
    </g>

    <!-- 块对角 mask 矩阵 -->
    <g transform="translate(40, 200)">
      <text x="0" y="0" font-size="13" font-weight="700" fill="#1a1a1a">块对角 attention mask（15×15 矩阵）：</text>

      <g transform="translate(60, 30)">
        <!-- Header row: token labels -->
        <g font-family="ui-monospace, monospace" font-size="10" fill="#5f5e5a" text-anchor="middle">
          <text x="20" y="0">我</text>
          <text x="44" y="0">爱</text>
          <text x="68" y="0">北</text>
          <text x="92" y="0">京</text>
          <text x="116" y="0">天</text>
          <text x="140" y="0">安</text>
          <text x="164" y="0">门</text>
          <text x="188" y="0">你</text>
          <text x="212" y="0">好</text>
          <text x="236" y="0">今</text>
          <text x="260" y="0">天</text>
          <text x="284" y="0">天</text>
          <text x="308" y="0">气</text>
          <text x="332" y="0">真</text>
          <text x="356" y="0">好</text>
        </g>

        <!-- Header column: token labels -->
        <g font-family="ui-monospace, monospace" font-size="10" fill="#5f5e5a" text-anchor="end">
          <text x="0" y="22">我</text>
          <text x="0" y="46">爱</text>
          <text x="0" y="70">北</text>
          <text x="0" y="94">京</text>
          <text x="0" y="118">天</text>
          <text x="0" y="142">安</text>
          <text x="0" y="166">门</text>
          <text x="0" y="190">你</text>
          <text x="0" y="214">好</text>
          <text x="0" y="238">今</text>
          <text x="0" y="262">天</text>
          <text x="0" y="286">天</text>
          <text x="0" y="310">气</text>
          <text x="0" y="334">真</text>
          <text x="0" y="358">好</text>
        </g>

        <!-- 矩阵：3 个对角块 + 其他全是 0 -->
        <!-- 块 1: 7×7 在 (0,0) -->
        <rect x="8" y="8" width="168" height="168" fill="#9FE1CB" stroke="#0F6E56" stroke-width="1"/>
        <text x="92" y="96" font-size="13" font-weight="700" fill="#04342C" text-anchor="middle">样本 1 内部</text>
        <text x="92" y="116" font-size="11" fill="#04342C" text-anchor="middle">7×7 = 49</text>

        <!-- 块 2: 2×2 在 (7,7) -->
        <rect x="176" y="176" width="48" height="48" fill="#FAC775" stroke="#BA7517" stroke-width="1"/>
        <text x="200" y="206" font-size="11" font-weight="700" fill="#412402" text-anchor="middle">2×2=4</text>

        <!-- 块 3: 6×6 在 (9,9) -->
        <rect x="224" y="224" width="144" height="144" fill="#85B7EB" stroke="#185FA5" stroke-width="1"/>
        <text x="296" y="288" font-size="13" font-weight="700" fill="#042C53" text-anchor="middle">样本 3 内部</text>
        <text x="296" y="308" font-size="11" fill="#042C53" text-anchor="middle">6×6 = 36</text>

        <!-- 其他区域：浅灰，标注 -->
        <!-- 样本 1 × 样本 2 (off-diag) -->
        <rect x="176" y="8" width="48" height="168" fill="#F1EFE8" stroke="#888780" stroke-width="0.4"/>
        <rect x="8" y="176" width="168" height="48" fill="#F1EFE8" stroke="#888780" stroke-width="0.4"/>

        <!-- 样本 1 × 样本 3 -->
        <rect x="224" y="8" width="144" height="168" fill="#F1EFE8" stroke="#888780" stroke-width="0.4"/>
        <rect x="8" y="224" width="168" height="144" fill="#F1EFE8" stroke="#888780" stroke-width="0.4"/>

        <!-- 样本 2 × 样本 3 -->
        <rect x="224" y="176" width="144" height="48" fill="#F1EFE8" stroke="#888780" stroke-width="0.4"/>
        <rect x="176" y="224" width="48" height="144" fill="#F1EFE8" stroke="#888780" stroke-width="0.4"/>

        <!-- 网格线 -->
        <g stroke="#d4d2c7" stroke-width="0.3">
          <line x1="32" y1="8" x2="32" y2="368"/>
          <line x1="56" y1="8" x2="56" y2="368"/>
          <line x1="80" y1="8" x2="80" y2="368"/>
          <line x1="104" y1="8" x2="104" y2="368"/>
          <line x1="128" y1="8" x2="128" y2="368"/>
          <line x1="152" y1="8" x2="152" y2="368"/>
          <line x1="200" y1="8" x2="200" y2="368"/>
          <line x1="248" y1="8" x2="248" y2="368"/>
          <line x1="272" y1="8" x2="272" y2="368"/>
          <line x1="296" y1="8" x2="296" y2="368"/>
          <line x1="320" y1="8" x2="320" y2="368"/>
          <line x1="344" y1="8" x2="344" y2="368"/>
          <line x1="8" y1="32" x2="368" y2="32"/>
          <line x1="8" y1="56" x2="368" y2="56"/>
          <line x1="8" y1="80" x2="368" y2="80"/>
          <line x1="8" y1="104" x2="368" y2="104"/>
          <line x1="8" y1="128" x2="368" y2="128"/>
          <line x1="8" y1="152" x2="368" y2="152"/>
          <line x1="8" y1="200" x2="368" y2="200"/>
          <line x1="8" y1="248" x2="368" y2="248"/>
          <line x1="8" y1="272" x2="368" y2="272"/>
          <line x1="8" y1="296" x2="368" y2="296"/>
          <line x1="8" y1="320" x2="368" y2="320"/>
          <line x1="8" y1="344" x2="368" y2="344"/>
        </g>

        <!-- 边界粗线 -->
        <line x1="176" y1="8" x2="176" y2="368" stroke="#534AB7" stroke-width="2"/>
        <line x1="224" y1="8" x2="224" y2="368" stroke="#534AB7" stroke-width="2"/>
        <line x1="8" y1="176" x2="368" y2="176" stroke="#534AB7" stroke-width="2"/>
        <line x1="8" y1="224" x2="368" y2="224" stroke="#534AB7" stroke-width="2"/>
      </g>

      <!-- 标注 -->
      <g transform="translate(480, 30)">
        <text x="0" y="0" font-size="13" font-weight="700" fill="#04342C">读图说明：</text>

        <g transform="translate(0, 24)">
          <rect x="0" y="0" width="20" height="20" fill="#9FE1CB" stroke="#0F6E56" stroke-width="0.6"/>
          <text x="30" y="14" font-size="12" fill="#444441">绿色：样本内 attention（允许）</text>
        </g>

        <g transform="translate(0, 54)">
          <rect x="0" y="0" width="20" height="20" fill="#F1EFE8" stroke="#888780" stroke-width="0.4"/>
          <text x="30" y="14" font-size="12" fill="#444441">灰色：跨样本（FlashAttention 根本不算）</text>
        </g>

        <g transform="translate(0, 100)">
          <text x="0" y="0" font-size="12" font-weight="700" fill="#04342C">关键洞察：</text>
          <text x="0" y="22" font-size="11.5" fill="#444441">"你"（位置 7-8）想看"我爱北京天安门"</text>
          <text x="0" y="40" font-size="11.5" fill="#444441">→ 落在灰色区域</text>
          <text x="0" y="58" font-size="11.5" fill="#444441">→ FlashAttention varlen 根本不算</text>
          <text x="0" y="76" font-size="11.5" fill="#04342C" font-weight="700">→ 数学上完全隔离</text>
        </g>

        <g transform="translate(0, 200)">
          <text x="0" y="0" font-size="12" font-weight="700" fill="#04342C">不是用 mask 屏蔽：</text>
          <text x="0" y="22" font-size="11.5" fill="#444441">普通 mask 是"算了再扔"</text>
          <text x="0" y="40" font-size="11.5" fill="#444441">FlashAttention varlen 是"根本不算"</text>
          <text x="0" y="62" font-size="11.5" fill="#5f5e5a" font-style="italic">这是性能差异的关键</text>
        </g>

        <g transform="translate(0, 300)">
          <text x="0" y="0" font-size="12" font-weight="700" fill="#04342C">总计算量：</text>
          <text x="0" y="22" font-size="11.5" fill="#444441">49 + 4 + 36 = <tspan font-weight="700" fill="#04342C">89 次</tspan></text>
        </g>
      </g>
    </g>
  </g>

  <!-- ============================================== -->
  <!-- 计算量对比                                       -->
  <!-- ============================================== -->
  <g transform="translate(60, 1820)">
    <rect x="0" y="0" width="1360" height="220" rx="8" fill="#FFFFFF" stroke="#534AB7" stroke-width="0.8"/>
    <text x="22" y="32" font-size="18" font-weight="700" fill="#26215C">计算量对比 · 直观感受节省</text>
    <line x1="22" y1="44" x2="500" y2="44" stroke="#CECBF6" stroke-width="0.6"/>

    <!-- Padding 总量 -->
    <g transform="translate(40, 70)">
      <text x="0" y="20" font-size="12" font-weight="700" fill="#501313">Padding：</text>
      <rect x="100" y="6" width="588" height="28" rx="3" fill="#F09595" stroke="#A32D2D" stroke-width="0.6"/>
      <text x="394" y="24" font-size="12" fill="#FFFFFF" text-anchor="middle" font-weight="700">147 次（pad 浪费 39.5%）</text>
    </g>

    <!-- Remove padding 总量 -->
    <g transform="translate(40, 110)">
      <text x="0" y="20" font-size="12" font-weight="700" fill="#04342C">Remove pad：</text>
      <rect x="100" y="6" width="356" height="28" rx="3" fill="#5DCAA5" stroke="#0F6E56" stroke-width="0.6"/>
      <text x="278" y="24" font-size="12" fill="#FFFFFF" text-anchor="middle" font-weight="700">89 次</text>
    </g>

    <!-- 极端例子 -->
    <g transform="translate(40, 150)">
      <rect x="0" y="0" width="1280" height="50" rx="6" fill="#EEEDFE" stroke="#534AB7" stroke-width="0.6"/>
      <text x="14" y="22" font-size="12" font-weight="700" fill="#26215C">极端例子（长尾分布）</text>
      <text x="14" y="40" font-size="11.5" fill="#444441">RL rollout 中 5 个样本 [100, 100, 5, 5, 5] · pad 到 100 总计 50000 次 · varlen 仅 20075 次 · <tspan font-weight="700" fill="#26215C">节省 60%</tspan></text>
    </g>
  </g>

  <!-- ============================================== -->
  <!-- 总结                                             -->
  <!-- ============================================== -->
  <g transform="translate(60, 2060)">
    <rect x="0" y="0" width="1360" height="200" rx="6" fill="#FFFFFF" stroke="#888780" stroke-width="0.6"/>
    <text x="22" y="28" font-size="14" font-weight="700" fill="#1a1a1a">为什么 RL 训练特别需要 remove padding</text>
    <line x1="22" y1="40" x2="450" y2="40" stroke="#d4d2c7" stroke-width="0.6"/>

    <g transform="translate(22, 60)" font-size="12.5">
      <text x="0" y="0" fill="#444441">
        <tspan font-weight="700" fill="#26215C">SFT 数据：</tspan>
        <tspan>长度相对均匀（人写的回复差不多长）· padding 浪费 10-20%</tspan>
      </text>
      <text x="0" y="24" fill="#444441">
        <tspan font-weight="700" fill="#A32D2D">RL rollout 数据：</tspan>
        <tspan>长度方差极大 · 数学题可能 100 token 也可能 4000 token · padding 浪费 50%+</tspan>
      </text>

      <text x="0" y="60" fill="#444441">
        <tspan font-weight="700" fill="#04342C">实战收益：</tspan>
        <tspan>verl 默认开启 use_remove_padding=True · 训练 throughput 提升 1.5-2 倍</tspan>
      </text>
      <text x="0" y="84" fill="#444441">
        <tspan font-weight="700" fill="#04342C">核心机制：</tspan>
        <tspan>cu_seqlens 标记边界 · FlashAttention varlen kernel 自动识别块对角结构 · 跨样本计算根本不发生</tspan>
      </text>
      <text x="0" y="108" fill="#5f5e5a" font-style="italic">
        和 token packing（前面那张图的"按 token 数打包"）配合使用 · packing 决定怎么塞，remove padding 决定塞了之后怎么算
      </text>
    </g>
  </g>

</svg>
