<?xml version="1.0" encoding="UTF-8"?>
<svg xmlns="http://www.w3.org/2000/svg" viewBox="0 0 1480 2380" font-family="-apple-system, BlinkMacSystemFont, 'Segoe UI', 'PingFang SC', 'Helvetica Neue', sans-serif">

  <defs>
    <linearGradient id="bg" x1="0" y1="0" x2="0" y2="1">
      <stop offset="0%" stop-color="#FAFAF7"/>
      <stop offset="100%" stop-color="#F3F2EC"/>
    </linearGradient>

    <marker id="arrow" viewBox="0 0 10 10" refX="9" refY="5" markerWidth="8" markerHeight="8" orient="auto-start-reverse">
      <path d="M2 1L8 5L2 9" fill="none" stroke="context-stroke" stroke-width="1.6" stroke-linecap="round" stroke-linejoin="round"/>
    </marker>
    <marker id="arrow-thin" viewBox="0 0 10 10" refX="9" refY="5" markerWidth="6" markerHeight="6" orient="auto-start-reverse">
      <path d="M2 1L8 5L2 9" fill="none" stroke="context-stroke" stroke-width="1.2" stroke-linecap="round" stroke-linejoin="round"/>
    </marker>
  </defs>

  <rect width="1480" height="2380" fill="url(#bg)"/>

  <!-- Title -->
  <text x="60" y="58" font-size="28" font-weight="600" fill="#1a1a1a" letter-spacing="-0.4">三个连环追问 · 把 forward 的账算清楚</text>
  <text x="60" y="86" font-size="14" fill="#6b6b66" font-style="italic">这些问题串起来揭示了 RLHF 工程里最微妙的设计权衡</text>
  <line x1="60" y1="100" x2="1420" y2="100" stroke="#d4d2c7" stroke-width="0.8"/>

  <!-- ============================================================ -->
  <!-- Q1: ref logp 能不能在 rollout 时一起算                         -->
  <!-- ============================================================ -->
  <g transform="translate(60, 120)">
    <rect x="0" y="0" width="1360" height="640" rx="8" fill="#FFFFFF" stroke="#D85A30" stroke-width="1.2"/>
    <rect x="0" y="0" width="6" height="640" rx="2" fill="#D85A30"/>

    <text x="22" y="34" font-size="20" font-weight="700" fill="#4A1B0C">Q1 · 既然 ref 只算 logp，能不能在 rollout 时一起算好？</text>
    <text x="22" y="58" font-size="13" fill="#993C1D">这是个非常好的优化直觉，但实际不可行。先看哪些可以"顺带"算，哪些必须独立算。</text>

    <!-- 关键区分 -->
    <g transform="translate(40, 90)">
      <text x="0" y="0" font-size="14" font-weight="700" fill="#1a1a1a">关键区分：actor logp 可以顺带算，ref logp 不行</text>

      <!-- Actor logp 顺带 -->
      <g transform="translate(0, 24)">
        <rect x="0" y="0" width="640" height="200" rx="6" fill="#E1F5EE" stroke="#0F6E56" stroke-width="0.8"/>
        <text x="20" y="28" font-size="13" font-weight="700" fill="#04342C">✓ Actor logp · 是 rollout 的免费副产品</text>
        <line x1="20" y1="40" x2="320" y2="40" stroke="#5DCAA5" stroke-width="0.6"/>

        <text x="20" y="62" font-size="12" fill="#444441">rollout 第 t 步：</text>
        <g transform="translate(20, 76)" font-size="11">
          <rect x="0" y="0" width="180" height="22" rx="3" fill="#FFFFFF" stroke="#0F6E56" stroke-width="0.5"/>
          <text x="90" y="14" font-size="11" fill="#04342C" text-anchor="middle">actor.forward(seq[:t])</text>

          <line x1="180" y1="11" x2="220" y2="11" stroke="#888780" stroke-width="1" marker-end="url(#arrow-thin)"/>

          <rect x="220" y="0" width="180" height="22" rx="3" fill="#FFFFFF" stroke="#0F6E56" stroke-width="0.5"/>
          <text x="310" y="14" font-size="11" fill="#04342C" text-anchor="middle">出完整 logits 分布</text>

          <line x1="400" y1="11" x2="440" y2="11" stroke="#888780" stroke-width="1" marker-end="url(#arrow-thin)"/>

          <rect x="440" y="0" width="180" height="22" rx="3" fill="#FFFFFF" stroke="#0F6E56" stroke-width="0.5"/>
          <text x="530" y="14" font-size="11" fill="#04342C" text-anchor="middle">采样 token + 取 logp</text>
        </g>

        <text x="20" y="124" font-size="12" fill="#444441">关键洞察：</text>
        <text x="20" y="142" font-size="11.5" fill="#04342C">采样 token 时已经算了 softmax，<tspan font-weight="700">这个 token 的 logp 是 logits 的一部分</tspan></text>
        <text x="20" y="160" font-size="11.5" fill="#04342C">vLLM 在生成时直接把 logp 一起返回 · 不需要额外 forward</text>
        <text x="20" y="184" font-size="11" fill="#5f5e5a" font-style="italic">所以 actor logp 在 rollout 200 次 forward 里"顺带"算好了</text>
      </g>

      <!-- Ref logp 必须独立 -->
      <g transform="translate(680, 24)">
        <rect x="0" y="0" width="600" height="200" rx="6" fill="#FCEBEB" stroke="#A32D2D" stroke-width="0.8"/>
        <text x="20" y="28" font-size="13" font-weight="700" fill="#501313">✗ Ref logp · 必须事后独立算</text>
        <line x1="20" y1="40" x2="320" y2="40" stroke="#F09595" stroke-width="0.6"/>

        <text x="20" y="62" font-size="12" fill="#444441">为什么不能顺带：</text>

        <text x="20" y="86" font-size="11.5" fill="#444441"><tspan font-weight="700" fill="#A32D2D">·</tspan> rollout 时 vLLM 装的是 actor 权重</text>
        <text x="20" y="106" font-size="11.5" fill="#444441"><tspan font-weight="700" fill="#A32D2D">·</tspan> ref 模型根本没参与生成 · 它对采样 token 的 logp 未知</text>
        <text x="20" y="126" font-size="11.5" fill="#444441"><tspan font-weight="700" fill="#A32D2D">·</tspan> 必须等 rollout 完，把 ref 权重装入 vLLM，重新 forward 一次</text>

        <text x="20" y="160" font-size="11" fill="#5f5e5a" font-style="italic">那能不能同时装两份权重？</text>
        <text x="20" y="180" font-size="11" fill="#5f5e5a" font-style="italic">vLLM 一个引擎只支持一份权重 · 装两份立刻 OOM（每份 70GB）</text>
      </g>
    </g>

    <!-- 完整流程 -->
    <g transform="translate(40, 348)">
      <text x="0" y="0" font-size="14" font-weight="700" fill="#1a1a1a">所以 verl 实际怎么安排：</text>

      <g transform="translate(0, 24)">
        <!-- Stage 1 -->
        <rect x="0" y="0" width="320" height="80" rx="6" fill="#FAECE7" stroke="#D85A30" stroke-width="0.8"/>
        <text x="160" y="22" font-size="12" font-weight="700" fill="#4A1B0C" text-anchor="middle">① Rollout (vLLM, actor 权重)</text>
        <text x="160" y="42" font-size="11" fill="#993C1D" text-anchor="middle">200 次自回归 forward</text>
        <text x="160" y="60" font-size="11" fill="#993C1D" text-anchor="middle">出 (response, actor_logp)</text>

        <line x1="320" y1="40" x2="360" y2="40" stroke="#888780" stroke-width="1.5" marker-end="url(#arrow)"/>

        <!-- Stage 2 -->
        <rect x="360" y="0" width="320" height="80" rx="6" fill="#FAECE7" stroke="#D85A30" stroke-width="0.8"/>
        <text x="520" y="22" font-size="12" font-weight="700" fill="#4A1B0C" text-anchor="middle">② 换 ref 权重 (仍 vLLM)</text>
        <text x="520" y="42" font-size="11" fill="#993C1D" text-anchor="middle">vLLM 引擎里换一下权重</text>
        <text x="520" y="60" font-size="11" fill="#993C1D" text-anchor="middle">布局不变 (TP=8)</text>

        <line x1="680" y1="40" x2="720" y2="40" stroke="#888780" stroke-width="1.5" marker-end="url(#arrow)"/>

        <!-- Stage 3 -->
        <rect x="720" y="0" width="320" height="80" rx="6" fill="#FAECE7" stroke="#D85A30" stroke-width="0.8"/>
        <text x="880" y="22" font-size="12" font-weight="700" fill="#4A1B0C" text-anchor="middle">③ Ref logp (vLLM TF)</text>
        <text x="880" y="42" font-size="11" fill="#993C1D" text-anchor="middle">1 次 teacher forcing forward</text>
        <text x="880" y="60" font-size="11" fill="#993C1D" text-anchor="middle">整序列并行算 logp</text>

        <line x1="1040" y1="40" x2="1080" y2="40" stroke="#534AB7" stroke-width="1.5" marker-end="url(#arrow)"/>

        <!-- Stage 4 -->
        <rect x="1080" y="0" width="240" height="80" rx="6" fill="#EEEDFE" stroke="#534AB7" stroke-width="0.8"/>
        <text x="1200" y="22" font-size="12" font-weight="700" fill="#26215C" text-anchor="middle">④ Reshard</text>
        <text x="1200" y="42" font-size="11" fill="#534AB7" text-anchor="middle">vLLM/TP → FSDP</text>
        <text x="1200" y="60" font-size="11" fill="#534AB7" text-anchor="middle">准备 training</text>
      </g>
    </g>

    <!-- 关键修正 -->
    <g transform="translate(40, 478)">
      <rect x="0" y="0" width="1280" height="140" rx="6" fill="#FFFFFF" stroke="#534AB7" stroke-width="0.8"/>
      <text x="14" y="24" font-size="13" font-weight="700" fill="#26215C">前面图里的错误修正</text>
      <line x1="14" y1="36" x2="220" y2="36" stroke="#CECBF6" stroke-width="0.6"/>

      <g transform="translate(14, 56)" font-size="12">
        <text x="0" y="0" fill="#444441"><tspan font-weight="700" fill="#A32D2D">前面说"actor logp 需要 1 次独立 forward"</tspan>——错的。actor logp 在 rollout 中已经免费拿到</text>
        <text x="0" y="24" fill="#444441"><tspan font-weight="700" fill="#A32D2D">前面说"reshard 在 rollout 之后立刻发生"</tspan>——错的。reshard 在 ref logp 之后才发生</text>
        <text x="0" y="48" fill="#444441"><tspan font-weight="700" fill="#04342C">正确顺序：rollout (200 fwd, 出 logp) → 换 ref 权重 → ref forward (1 次, 出 ref_logp) → reshard → training</tspan></text>
        <text x="0" y="76" fill="#5f5e5a" font-style="italic">这个细节很重要：reshard 只发生一次（vLLM→FSDP），ref logp 阶段不切换布局</text>
      </g>
    </g>
  </g>

  <!-- ============================================================ -->
  <!-- Q2: teacher forcing 不要 KV cache 吗                          -->
  <!-- ============================================================ -->
  <g transform="translate(60, 780)">
    <rect x="0" y="0" width="1360" height="640" rx="8" fill="#FFFFFF" stroke="#185FA5" stroke-width="1.2"/>
    <rect x="0" y="0" width="6" height="640" rx="2" fill="#185FA5"/>

    <text x="22" y="34" font-size="20" font-weight="700" fill="#042C53">Q2 · Teacher forcing 时不需要 KV cache 了？</text>
    <text x="22" y="58" font-size="13" fill="#185FA5">你的直觉对了一半。区分"持久化 KV cache"和"forward 内部的 KV 张量"</text>

    <!-- 两种模式对比 -->
    <g transform="translate(40, 90)">
      <text x="0" y="0" font-size="14" font-weight="700" fill="#1a1a1a">自回归 vs Teacher forcing：KV 的命运不同</text>

      <!-- 自回归 -->
      <g transform="translate(0, 24)">
        <rect x="0" y="0" width="640" height="220" rx="6" fill="#FAECE7" stroke="#D85A30" stroke-width="0.8"/>
        <text x="20" y="28" font-size="13" font-weight="700" fill="#4A1B0C">自回归生成（rollout）</text>
        <line x1="20" y1="40" x2="220" y2="40" stroke="#F0997B" stroke-width="0.6"/>

        <text x="20" y="62" font-size="12" fill="#444441">每步只算 1 个新 token：</text>

        <g transform="translate(20, 76)">
          <!-- 时刻 t -->
          <text x="0" y="14" font-size="11" fill="#993C1D">t=1:</text>
          <rect x="40" y="2" width="20" height="18" rx="2" fill="#F5C4B3" stroke="#D85A30" stroke-width="0.5"/>
          <text x="50" y="14" font-size="9" fill="#4A1B0C" text-anchor="middle">k,v</text>
          <text x="70" y="14" font-size="11" fill="#444441">→ 算第 2 token</text>

          <text x="0" y="38" font-size="11" fill="#993C1D">t=2:</text>
          <rect x="40" y="26" width="20" height="18" rx="2" fill="#F5C4B3" stroke="#D85A30" stroke-width="0.5"/>
          <rect x="62" y="26" width="20" height="18" rx="2" fill="#F5C4B3" stroke="#D85A30" stroke-width="0.5"/>
          <text x="92" y="38" font-size="11" fill="#444441">→ 用前 2 个 KV 算第 3 token</text>

          <text x="0" y="62" font-size="11" fill="#993C1D">t=3:</text>
          <rect x="40" y="50" width="20" height="18" rx="2" fill="#F5C4B3" stroke="#D85A30" stroke-width="0.5"/>
          <rect x="62" y="50" width="20" height="18" rx="2" fill="#F5C4B3" stroke="#D85A30" stroke-width="0.5"/>
          <rect x="84" y="50" width="20" height="18" rx="2" fill="#F5C4B3" stroke="#D85A30" stroke-width="0.5"/>
          <text x="114" y="62" font-size="11" fill="#444441">→ 用前 3 个 KV 算第 4 token</text>

          <text x="0" y="86" font-size="11" fill="#993C1D">⋯</text>

          <text x="0" y="110" font-size="11" fill="#993C1D">t=200:</text>
          <rect x="40" y="98" width="220" height="18" rx="2" fill="#F5C4B3" stroke="#D85A30" stroke-width="0.5"/>
          <text x="150" y="110" font-size="10" fill="#4A1B0C" text-anchor="middle">200 个 KV 累积</text>
          <text x="270" y="110" font-size="11" fill="#444441">→ 算第 201 token</text>
        </g>

        <text x="20" y="206" font-size="11" font-weight="700" fill="#993C1D">必须持久化 KV · 不缓存就 O(t²) 重复计算</text>
      </g>

      <!-- Teacher Forcing -->
      <g transform="translate(680, 24)">
        <rect x="0" y="0" width="600" height="220" rx="6" fill="#E6F1FB" stroke="#185FA5" stroke-width="0.8"/>
        <text x="20" y="28" font-size="13" font-weight="700" fill="#042C53">Teacher forcing（ref logp / training）</text>
        <line x1="20" y1="40" x2="320" y2="40" stroke="#85B7EB" stroke-width="0.6"/>

        <text x="20" y="62" font-size="12" fill="#444441">完整序列一次性算所有位置：</text>

        <g transform="translate(20, 86)">
          <!-- 一次性输入 300 个 token -->
          <text x="0" y="14" font-size="11" fill="#185FA5">输入：</text>
          <rect x="50" y="2" width="500" height="18" rx="2" fill="#B5D4F4" stroke="#378ADD" stroke-width="0.5"/>
          <text x="300" y="14" font-size="10" fill="#042C53" text-anchor="middle">完整 300 个 token (prompt + response)</text>

          <text x="0" y="40" font-size="11" fill="#185FA5">forward：</text>
          <rect x="50" y="28" width="500" height="18" rx="2" fill="#85B7EB" stroke="#185FA5" stroke-width="0.5"/>
          <text x="300" y="40" font-size="10" fill="#042C53" text-anchor="middle">一次算 300 位置的 K, V, attention 全部</text>

          <text x="0" y="66" font-size="11" fill="#185FA5">输出：</text>
          <rect x="50" y="54" width="500" height="18" rx="2" fill="#B5D4F4" stroke="#378ADD" stroke-width="0.5"/>
          <text x="300" y="66" font-size="10" fill="#042C53" text-anchor="middle">300 个位置的 logits (logp 来自这里)</text>

          <text x="0" y="92" font-size="11" fill="#185FA5">结束：</text>
          <rect x="50" y="80" width="500" height="18" rx="2" fill="#FCEBEB" stroke="#A32D2D" stroke-width="0.5"/>
          <text x="300" y="92" font-size="10" fill="#501313" text-anchor="middle">K, V 全部释放（这次 forward 用完了，不留）</text>
        </g>

        <text x="20" y="206" font-size="11" font-weight="700" fill="#185FA5">不需要持久化 KV · K/V 是 forward 内部瞬时张量</text>
      </g>
    </g>

    <!-- 关键澄清 -->
    <g transform="translate(40, 350)">
      <rect x="0" y="0" width="1280" height="120" rx="6" fill="#FFFFFF" stroke="#534AB7" stroke-width="0.8"/>
      <text x="14" y="24" font-size="13" font-weight="700" fill="#26215C">所以你的问题精确答案</text>
      <line x1="14" y1="36" x2="280" y2="36" stroke="#CECBF6" stroke-width="0.6"/>

      <g transform="translate(14, 56)" font-size="12">
        <text x="0" y="0" fill="#444441"><tspan font-weight="700" fill="#26215C">问：teacher forcing 不需要 KV cache？</tspan></text>
        <text x="0" y="22" fill="#444441"><tspan font-weight="700" fill="#04342C">答：不需要持久化 KV cache（不会跨步骤复用），但 forward 内部仍然要算 K 和 V，</tspan></text>
        <text x="0" y="40" fill="#444441"><tspan font-weight="700" fill="#04342C">    只是它们的存活时间 = 这次 forward 的时间，算完就释放，不算独立的"KV cache"</tspan></text>
        <text x="0" y="68" fill="#5f5e5a" font-style="italic">所以前面图里给 ref forward 标"KV cache 0.3GB"是不准确的——这部分应该归入激活值</text>
      </g>
    </g>

    <!-- Ref 显存重新核算 -->
    <g transform="translate(40, 488)">
      <text x="0" y="0" font-size="14" font-weight="700" fill="#1a1a1a">Ref forward 阶段显存重新核算（修正版）</text>

      <g transform="translate(0, 24)">
        <rect x="0" y="0" width="1280" height="120" rx="6" fill="#E6F1FB" stroke="#378ADD" stroke-width="0.6"/>

        <g transform="translate(14, 24)" font-size="12">
          <text x="0" y="0" fill="#444441">Ref 参数（vLLM 复用 TP=8 布局）：<tspan font-weight="700" fill="#185FA5">1.75 GB / 卡</tspan></text>
          <text x="0" y="22" fill="#444441">激活值（含瞬时 K/V，整序列并行）：<tspan font-weight="700" fill="#185FA5">≈ 2.5 GB / 卡</tspan></text>
          <text x="0" y="44" fill="#444441">总计：<tspan font-weight="700" fill="#185FA5">≈ 4.25 GB / 卡</tspan></text>
          <text x="0" y="74" fill="#5f5e5a" font-style="italic">注：之前图里写"参数 0.22GB" + "KV 0.3GB"是错的 · 正确是"参数 1.75GB" + "瞬时激活含 KV"</text>
        </g>
      </g>
    </g>
  </g>

  <!-- ============================================================ -->
  <!-- Q3: training 是否再 rollout                                   -->
  <!-- ============================================================ -->
  <g transform="translate(60, 1440)">
    <rect x="0" y="0" width="1360" height="900" rx="8" fill="#FFFFFF" stroke="#BA7517" stroke-width="1.2"/>
    <rect x="0" y="0" width="6" height="900" rx="2" fill="#BA7517"/>

    <text x="22" y="34" font-size="20" font-weight="700" fill="#412402">Q3 · Training 时还需要再 rollout 一次吗？</text>
    <text x="22" y="58" font-size="13" fill="#854F0B">绝对不会。Training 是 teacher forcing，对已经生成好的序列做 forward+backward。</text>

    <!-- 三个阶段对比 -->
    <g transform="translate(40, 90)">
      <text x="0" y="0" font-size="14" font-weight="700" fill="#1a1a1a">同一段 (prompt, response) 被使用 3 次</text>

      <!-- Stage 1: Rollout -->
      <g transform="translate(0, 24)">
        <rect x="0" y="0" width="1280" height="160" rx="6" fill="#FAECE7" stroke="#D85A30" stroke-width="0.8"/>
        <text x="20" y="28" font-size="13" font-weight="700" fill="#4A1B0C">第 1 次使用 · Rollout</text>
        <line x1="20" y1="40" x2="200" y2="40" stroke="#F0997B" stroke-width="0.6"/>

        <text x="20" y="62" font-size="12" fill="#444441">模式：自回归生成</text>
        <text x="20" y="80" font-size="12" fill="#444441">forward 次数：200 次（每次出 1 token）</text>
        <text x="20" y="98" font-size="12" fill="#444441">激活值：算完就丢（vLLM 不保留）</text>
        <text x="20" y="116" font-size="12" fill="#444441">副产品：response token 序列 + actor_logp</text>
        <text x="20" y="140" font-size="11" fill="#993C1D" font-style="italic">→ 这是从无到有"造"出 response 的过程</text>
      </g>

      <!-- Stage 2: Ref logp -->
      <g transform="translate(0, 200)">
        <rect x="0" y="0" width="1280" height="160" rx="6" fill="#E6F1FB" stroke="#378ADD" stroke-width="0.8"/>
        <text x="20" y="28" font-size="13" font-weight="700" fill="#042C53">第 2 次使用 · Ref logp 计算</text>
        <line x1="20" y1="40" x2="280" y2="40" stroke="#85B7EB" stroke-width="0.6"/>

        <text x="20" y="62" font-size="12" fill="#444441">模式：teacher forcing</text>
        <text x="20" y="80" font-size="12" fill="#444441">forward 次数：1 次（整段 300 token 并行）</text>
        <text x="20" y="98" font-size="12" fill="#444441">激活值：算完就丢（forward only）</text>
        <text x="20" y="116" font-size="12" fill="#444441">副产品：每个位置的 ref_logp</text>
        <text x="20" y="140" font-size="11" fill="#185FA5" font-style="italic">→ 把已知序列喂给 ref 模型，"问"它对这些 token 的概率判断</text>
      </g>

      <!-- Stage 3: Training -->
      <g transform="translate(0, 376)">
        <rect x="0" y="0" width="1280" height="200" rx="6" fill="#FAEEDA" stroke="#BA7517" stroke-width="0.8"/>
        <text x="20" y="28" font-size="13" font-weight="700" fill="#412402">第 3 次使用 · Actor Training</text>
        <line x1="20" y1="40" x2="280" y2="40" stroke="#FAC775" stroke-width="0.6"/>

        <text x="20" y="62" font-size="12" fill="#444441">模式：<tspan font-weight="700" fill="#854F0B">teacher forcing（绝不再 rollout）</tspan></text>
        <text x="20" y="80" font-size="12" fill="#444441">forward 次数：1 次（整段 300 token 并行）</text>
        <text x="20" y="98" font-size="12" fill="#444441">激活值：<tspan font-weight="700" fill="#854F0B">必须保留</tspan>（backward 求梯度需要）</text>
        <text x="20" y="116" font-size="12" fill="#444441">backward：1 次（用保留的激活反向求梯度）</text>
        <text x="20" y="134" font-size="12" fill="#444441">使用的输入：rollout 阶段已经生成好的 (prompt, response)</text>
        <text x="20" y="158" font-size="11" fill="#854F0B" font-style="italic">→ 把已知序列喂给 actor，算 loss = f(actor_logp_new, ref_logp, advantage)，然后梯度下降</text>
        <text x="20" y="180" font-size="11" fill="#A32D2D" font-weight="700">→ 注意：training 时算的 actor_logp 和 rollout 时算的 actor_logp 不一样！(参数已更新)</text>
      </g>
    </g>

    <!-- 关键追问 -->
    <g transform="translate(40, 614)">
      <rect x="0" y="0" width="1280" height="240" rx="6" fill="#FFFFFF" stroke="#534AB7" stroke-width="0.8"/>
      <text x="14" y="24" font-size="13" font-weight="700" fill="#26215C">为什么 training 不再 rollout？这其实是 RL 训练的灵魂问题</text>
      <line x1="14" y1="36" x2="540" y2="36" stroke="#CECBF6" stroke-width="0.6"/>

      <g transform="translate(14, 56)" font-size="12">
        <text x="0" y="0" font-weight="700" fill="#26215C">RL 训练的逻辑：</text>
        <text x="180" y="0" fill="#444441">"用已经采样到的轨迹更新策略，让好的轨迹概率↑、坏的概率↓"</text>

        <text x="0" y="24" font-weight="700" fill="#26215C">如果再 rollout：</text>
        <text x="180" y="24" fill="#444441">就会得到不同的 response（采样有随机性），和原来的 reward/advantage 对不上号</text>

        <text x="0" y="48" font-weight="700" fill="#26215C">所以必须 teacher forcing：</text>
        <text x="180" y="48" fill="#444441">用原来 rollout 出的那个 response，让 actor "复盘"它对这个序列的概率打分</text>

        <text x="0" y="84" font-weight="700" fill="#A32D2D">关键不同：</text>
        <text x="180" y="84" fill="#444441">同一段 (prompt, response)，actor 算两次 logp，数值不一样：</text>
        <text x="180" y="108" fill="#444441">· rollout 时：用<tspan font-weight="700" fill="#993C1D">采样那一刻</tspan>的参数 → <tspan font-weight="700" fill="#993C1D">old_logp</tspan></text>
        <text x="180" y="132" fill="#444441">· training fwd 时：用<tspan font-weight="700" fill="#854F0B">每一步更新后</tspan>的参数 → <tspan font-weight="700" fill="#854F0B">new_logp</tspan></text>

        <text x="0" y="168" font-weight="700" fill="#26215C">PPO/GRPO 公式：</text>
        <text x="180" y="168" fill="#444441">loss = -min(ratio × A, clip(ratio) × A)，where ratio = exp(new_logp - old_logp)</text>
        <text x="180" y="186" fill="#5f5e5a" font-style="italic">old_logp 是 rollout 副产品，new_logp 在每次 training fwd 时实时算</text>
      </g>
    </g>
  </g>

</svg>
