<?xml version="1.0" encoding="UTF-8"?>
<svg xmlns="http://www.w3.org/2000/svg" viewBox="0 0 1480 2200" font-family="-apple-system, BlinkMacSystemFont, 'Segoe UI', 'PingFang SC', 'Helvetica Neue', sans-serif">

  <defs>
    <linearGradient id="bg" x1="0" y1="0" x2="0" y2="1">
      <stop offset="0%" stop-color="#FAFAF7"/>
      <stop offset="100%" stop-color="#F3F2EC"/>
    </linearGradient>

    <marker id="arrow" viewBox="0 0 10 10" refX="9" refY="5" markerWidth="8" markerHeight="8" orient="auto-start-reverse">
      <path d="M2 1L8 5L2 9" fill="none" stroke="context-stroke" stroke-width="1.6" stroke-linecap="round" stroke-linejoin="round"/>
    </marker>
    <marker id="arrow-thin" viewBox="0 0 10 10" refX="9" refY="5" markerWidth="6" markerHeight="6" orient="auto-start-reverse">
      <path d="M2 1L8 5L2 9" fill="none" stroke="context-stroke" stroke-width="1.2" stroke-linecap="round" stroke-linejoin="round"/>
    </marker>

    <pattern id="idle" patternUnits="userSpaceOnUse" width="6" height="6" patternTransform="rotate(45)">
      <rect width="6" height="6" fill="#FCEBEB"/>
      <line x1="0" y1="0" x2="0" y2="6" stroke="#E24B4A" stroke-width="1.2"/>
    </pattern>
  </defs>

  <rect width="1480" height="2200" fill="url(#bg)"/>

  <!-- Title -->
  <text x="60" y="58" font-size="28" font-weight="600" fill="#1a1a1a" letter-spacing="-0.4">Token-budget Greedy Packing · 长样本带来的长尾问题</text>
  <text x="60" y="86" font-size="14" fill="#6b6b66" font-style="italic">RL 训练里 response 长度方差极大 · 按 token 数打包是必需的 · 但会带来卡间步调不一致</text>
  <line x1="60" y1="100" x2="1420" y2="100" stroke="#d4d2c7" stroke-width="0.8"/>

  <!-- ============================================== -->
  <!-- 输入条件                                         -->
  <!-- ============================================== -->
  <g transform="translate(60, 120)">
    <rect x="0" y="0" width="1360" height="140" rx="6" fill="#FFFFFF" stroke="#534AB7" stroke-width="0.8"/>
    <text x="22" y="28" font-size="14" font-weight="700" fill="#26215C">输入条件</text>
    <line x1="22" y1="40" x2="200" y2="40" stroke="#CECBF6" stroke-width="0.6"/>

    <g transform="translate(22, 60)" font-size="13">
      <text x="0" y="0" fill="#444441"><tspan font-weight="700" fill="#26215C">配置：</tspan>ppo_max_token_len_per_gpu = 20000（每个 micro batch 最多 20K token）</text>
      <text x="0" y="22" fill="#444441"><tspan font-weight="700" fill="#26215C">卡 A 的 4 个样本（token 数）：</tspan> 8000 · 9000 · 10000 · 9000  →  共 36,000 token</text>
      <text x="0" y="44" fill="#444441"><tspan font-weight="700" fill="#26215C">卡 B 的 4 个样本（token 数）：</tspan> 12000 · 13000 · 18000 · 19000  →  共 62,000 token</text>
      <text x="0" y="68" font-size="12" fill="#5f5e5a" font-style="italic">问：每张卡分别要切几个 micro batch？两卡微批数不一致会发生什么？</text>
    </g>
  </g>

  <!-- ============================================== -->
  <!-- 卡 A 的打包过程                                  -->
  <!-- ============================================== -->
  <g transform="translate(60, 280)">
    <rect x="0" y="0" width="1360" height="380" rx="8" fill="#FFFFFF" stroke="#0F6E56" stroke-width="1.2"/>
    <rect x="0" y="0" width="6" height="380" rx="2" fill="#0F6E56"/>

    <text x="22" y="32" font-size="18" font-weight="700" fill="#04342C">卡 A · 短样本顺利合并</text>
    <text x="22" y="54" font-size="12.5" fill="#0F6E56">贪心策略：能塞就塞，塞不下就关闭当前 batch 开新的</text>

    <!-- 4 个样本的可视化 -->
    <g transform="translate(40, 80)">
      <text x="0" y="0" font-size="13" font-weight="700" fill="#1a1a1a">原始 4 个样本（按 token 数等比例可视化，1 token = 0.05 px）：</text>

      <g transform="translate(0, 16)">
        <!-- 8000 -->
        <rect x="0" y="0" width="400" height="32" rx="3" fill="#9FE1CB" stroke="#0F6E56" stroke-width="0.8"/>
        <text x="200" y="20" font-size="12" fill="#04342C" text-anchor="middle" font-weight="600">样本 1: 8000 token</text>

        <!-- 9000 -->
        <rect x="410" y="0" width="450" height="32" rx="3" fill="#9FE1CB" stroke="#0F6E56" stroke-width="0.8"/>
        <text x="635" y="20" font-size="12" fill="#04342C" text-anchor="middle" font-weight="600">样本 2: 9000</text>

        <!-- 10000 -->
        <rect x="870" y="0" width="500" height="32" rx="3" fill="#9FE1CB" stroke="#0F6E56" stroke-width="0.8"/>
        <text x="1120" y="20" font-size="12" fill="#04342C" text-anchor="middle" font-weight="600">样本 3: 10000</text>
      </g>

      <g transform="translate(0, 60)">
        <rect x="0" y="0" width="450" height="32" rx="3" fill="#9FE1CB" stroke="#0F6E56" stroke-width="0.8"/>
        <text x="225" y="20" font-size="12" fill="#04342C" text-anchor="middle" font-weight="600">样本 4: 9000</text>
      </g>
    </g>

    <!-- 打包过程 -->
    <g transform="translate(40, 196)">
      <text x="0" y="0" font-size="13" font-weight="700" fill="#1a1a1a">贪心打包过程（试着拼一拼）：</text>

      <!-- Micro batch 1 -->
      <g transform="translate(0, 20)">
        <text x="0" y="20" font-size="12" fill="#04342C" font-weight="600">μbatch 1:</text>
        <rect x="80" y="6" width="400" height="32" rx="3" fill="#B5E8D2" stroke="#0F6E56" stroke-width="0.8"/>
        <text x="280" y="26" font-size="11" fill="#04342C" text-anchor="middle">8000</text>
        <text x="490" y="26" font-size="11" fill="#888780">+</text>
        <rect x="500" y="6" width="450" height="32" rx="3" fill="#B5E8D2" stroke="#0F6E56" stroke-width="0.8"/>
        <text x="725" y="26" font-size="11" fill="#04342C" text-anchor="middle">9000</text>
        <text x="970" y="26" font-size="11" fill="#04342C" font-weight="700">= 17000 ≤ 20000 ✓</text>

        <text x="1180" y="26" font-size="11" fill="#5f5e5a" font-style="italic">再加 10000 = 27000 ❌</text>
      </g>

      <!-- Micro batch 2 -->
      <g transform="translate(0, 60)">
        <text x="0" y="20" font-size="12" fill="#04342C" font-weight="600">μbatch 2:</text>
        <rect x="80" y="6" width="500" height="32" rx="3" fill="#B5E8D2" stroke="#0F6E56" stroke-width="0.8"/>
        <text x="330" y="26" font-size="11" fill="#04342C" text-anchor="middle">10000</text>
        <text x="590" y="26" font-size="11" fill="#888780">+</text>
        <rect x="600" y="6" width="450" height="32" rx="3" fill="#B5E8D2" stroke="#0F6E56" stroke-width="0.8"/>
        <text x="825" y="26" font-size="11" fill="#04342C" text-anchor="middle">9000</text>
        <text x="1070" y="26" font-size="11" fill="#04342C" font-weight="700">= 19000 ≤ 20000 ✓</text>
      </g>

      <!-- 结果 -->
      <g transform="translate(0, 116)">
        <rect x="0" y="0" width="1280" height="46" rx="6" fill="#E1F5EE" stroke="#1D9E75" stroke-width="0.6"/>
        <text x="14" y="22" font-size="13" font-weight="700" fill="#04342C">结论：卡 A 共 2 个 micro batch</text>
        <text x="14" y="40" font-size="11.5" fill="#444441">μbatch 1 [8000, 9000] · μbatch 2 [10000, 9000]</text>
      </g>
    </g>
  </g>

  <!-- ============================================== -->
  <!-- 卡 B 的打包过程                                  -->
  <!-- ============================================== -->
  <g transform="translate(60, 680)">
    <rect x="0" y="0" width="1360" height="500" rx="8" fill="#FFFFFF" stroke="#A32D2D" stroke-width="1.2"/>
    <rect x="0" y="0" width="6" height="500" rx="2" fill="#A32D2D"/>

    <text x="22" y="32" font-size="18" font-weight="700" fill="#501313">卡 B · 长样本各自为战（关键反直觉点）</text>
    <text x="22" y="54" font-size="12.5" fill="#791F1F">规则：不是"超过一半就单独跑" · 而是"任意两两组合都超阈值"才会单独跑</text>

    <!-- 4 个样本 -->
    <g transform="translate(40, 80)">
      <text x="0" y="0" font-size="13" font-weight="700" fill="#1a1a1a">原始 4 个样本：</text>

      <g transform="translate(0, 16)">
        <rect x="0" y="0" width="600" height="32" rx="3" fill="#F5C4B3" stroke="#D85A30" stroke-width="0.8"/>
        <text x="300" y="20" font-size="12" fill="#501313" text-anchor="middle" font-weight="600">样本 1: 12000</text>

        <rect x="610" y="0" width="650" height="32" rx="3" fill="#F5C4B3" stroke="#D85A30" stroke-width="0.8"/>
        <text x="935" y="20" font-size="12" fill="#501313" text-anchor="middle" font-weight="600">样本 2: 13000</text>
      </g>

      <g transform="translate(0, 60)">
        <rect x="0" y="0" width="900" height="32" rx="3" fill="#F09595" stroke="#A32D2D" stroke-width="0.8"/>
        <text x="450" y="20" font-size="12" fill="#FFFFFF" text-anchor="middle" font-weight="600">样本 3: 18000</text>
      </g>

      <g transform="translate(0, 100)">
        <rect x="0" y="0" width="950" height="32" rx="3" fill="#F09595" stroke="#A32D2D" stroke-width="0.8"/>
        <text x="475" y="20" font-size="12" fill="#FFFFFF" text-anchor="middle" font-weight="600">样本 4: 19000</text>
      </g>
    </g>

    <!-- 任意两两组合的检查 -->
    <g transform="translate(40, 220)">
      <text x="0" y="0" font-size="13" font-weight="700" fill="#1a1a1a">任意两两组合检查（全部超阈值）：</text>

      <g transform="translate(0, 20)" font-size="11.5">
        <text x="0" y="0" fill="#444441">12000 + 13000 = <tspan font-weight="700" fill="#A32D2D">25000 ❌</tspan></text>
        <text x="220" y="0" fill="#444441">12000 + 18000 = <tspan font-weight="700" fill="#A32D2D">30000 ❌</tspan></text>
        <text x="440" y="0" fill="#444441">12000 + 19000 = <tspan font-weight="700" fill="#A32D2D">31000 ❌</tspan></text>
        <text x="660" y="0" fill="#444441">13000 + 18000 = <tspan font-weight="700" fill="#A32D2D">31000 ❌</tspan></text>
        <text x="880" y="0" fill="#444441">13000 + 19000 = <tspan font-weight="700" fill="#A32D2D">32000 ❌</tspan></text>
        <text x="1100" y="0" fill="#444441">18000 + 19000 = <tspan font-weight="700" fill="#A32D2D">37000 ❌</tspan></text>
      </g>

      <text x="0" y="40" font-size="12" fill="#A32D2D" font-style="italic">所有两两组合都超 20000 → 每个 micro batch 只能塞 1 个样本</text>
    </g>

    <!-- 4 个独立 micro batch -->
    <g transform="translate(40, 296)">
      <text x="0" y="0" font-size="13" font-weight="700" fill="#1a1a1a">结果：4 个独立 micro batch：</text>

      <g transform="translate(0, 20)">
        <text x="0" y="20" font-size="12" font-weight="600" fill="#501313">μbatch 1:</text>
        <rect x="80" y="6" width="600" height="28" rx="3" fill="#FCEBEB" stroke="#A32D2D" stroke-width="0.6"/>
        <text x="380" y="24" font-size="11" fill="#501313" text-anchor="middle">12000</text>

        <text x="700" y="20" font-size="12" font-weight="600" fill="#501313">μbatch 2:</text>
        <rect x="780" y="6" width="500" height="28" rx="3" fill="#FCEBEB" stroke="#A32D2D" stroke-width="0.6"/>
        <text x="1030" y="24" font-size="11" fill="#501313" text-anchor="middle">13000</text>
      </g>

      <g transform="translate(0, 50)">
        <text x="0" y="20" font-size="12" font-weight="600" fill="#501313">μbatch 3:</text>
        <rect x="80" y="6" width="600" height="28" rx="3" fill="#FCEBEB" stroke="#A32D2D" stroke-width="0.6"/>
        <text x="380" y="24" font-size="11" fill="#501313" text-anchor="middle">18000</text>

        <text x="700" y="20" font-size="12" font-weight="600" fill="#501313">μbatch 4:</text>
        <rect x="780" y="6" width="500" height="28" rx="3" fill="#FCEBEB" stroke="#A32D2D" stroke-width="0.6"/>
        <text x="1030" y="24" font-size="11" fill="#501313" text-anchor="middle">19000</text>
      </g>

      <g transform="translate(0, 96)">
        <rect x="0" y="0" width="1280" height="46" rx="6" fill="#FCEBEB" stroke="#E24B4A" stroke-width="0.6"/>
        <text x="14" y="22" font-size="13" font-weight="700" fill="#501313">结论：卡 B 共 4 个 micro batch · 是卡 A 的 2 倍</text>
        <text x="14" y="40" font-size="11.5" fill="#444441">每个 batch 各塞一个样本 · 浪费率高（最差只用了 12000/20000 = 60% budget）</text>
      </g>
    </g>
  </g>

  <!-- ============================================== -->
  <!-- 长尾问题：时间轴可视化                            -->
  <!-- ============================================== -->
  <g transform="translate(60, 1200)">
    <rect x="0" y="0" width="1360" height="320" rx="8" fill="#FFFFFF" stroke="#888780" stroke-width="0.8"/>
    <text x="22" y="32" font-size="18" font-weight="700" fill="#1a1a1a">长尾问题 · 卡 A 跑完后只能空等卡 B</text>
    <line x1="22" y1="44" x2="500" y2="44" stroke="#d4d2c7" stroke-width="0.6"/>

    <text x="22" y="68" font-size="12" fill="#5f5e5a">FSDP 必须步调一致才能同步梯度 · 卡 A 提前完成只能等</text>

    <!-- 时间轴 -->
    <g transform="translate(80, 100)">
      <text x="-40" y="32" font-size="11" font-weight="700" fill="#04342C">卡 A</text>

      <!-- 卡 A 的两个 micro batch -->
      <rect x="0" y="20" width="240" height="32" rx="3" fill="#9FE1CB" stroke="#0F6E56" stroke-width="0.8"/>
      <text x="120" y="40" font-size="11" fill="#04342C" text-anchor="middle">μbatch 1 (17000)</text>

      <rect x="240" y="20" width="240" height="32" rx="3" fill="#9FE1CB" stroke="#0F6E56" stroke-width="0.8"/>
      <text x="360" y="40" font-size="11" fill="#04342C" text-anchor="middle">μbatch 2 (19000)</text>

      <!-- 空等部分 -->
      <rect x="480" y="20" width="720" height="32" rx="3" fill="url(#idle)" stroke="#A32D2D" stroke-width="0.6"/>
      <text x="840" y="40" font-size="11.5" fill="#501313" text-anchor="middle" font-weight="700">空等 60% 时间 · GPU 浪费</text>
    </g>

    <g transform="translate(80, 170)">
      <text x="-40" y="32" font-size="11" font-weight="700" fill="#501313">卡 B</text>

      <rect x="0" y="20" width="280" height="32" rx="3" fill="#F5C4B3" stroke="#D85A30" stroke-width="0.8"/>
      <text x="140" y="40" font-size="11" fill="#501313" text-anchor="middle">μbatch 1 (12000)</text>

      <rect x="280" y="20" width="300" height="32" rx="3" fill="#F5C4B3" stroke="#D85A30" stroke-width="0.8"/>
      <text x="430" y="40" font-size="11" fill="#501313" text-anchor="middle">μbatch 2 (13000)</text>

      <rect x="580" y="20" width="350" height="32" rx="3" fill="#F09595" stroke="#A32D2D" stroke-width="0.8"/>
      <text x="755" y="40" font-size="11" fill="#FFFFFF" text-anchor="middle">μbatch 3 (18000)</text>

      <rect x="930" y="20" width="370" height="32" rx="3" fill="#F09595" stroke="#A32D2D" stroke-width="0.8"/>
      <text x="1115" y="40" font-size="11" fill="#FFFFFF" text-anchor="middle">μbatch 4 (19000)</text>
    </g>

    <!-- 同步点标记 -->
    <line x1="1280" y1="100" x2="1280" y2="240" stroke="#534AB7" stroke-width="2" stroke-dasharray="4 3"/>
    <text x="1296" y="170" font-size="11" fill="#534AB7" font-weight="700" transform="rotate(90 1296 170)">梯度同步点</text>

    <!-- 时间轴 -->
    <g transform="translate(80, 240)">
      <line x1="0" y1="0" x2="1200" y2="0" stroke="#888780" stroke-width="0.6" marker-end="url(#arrow-thin)"/>
      <text x="0" y="16" font-size="10" fill="#5f5e5a">t=0</text>
      <line x1="480" y1="-4" x2="480" y2="4" stroke="#888780"/>
      <text x="480" y="16" font-size="10" fill="#5f5e5a" text-anchor="middle">卡 A 完成</text>
      <line x1="1200" y1="-4" x2="1200" y2="4" stroke="#888780"/>
      <text x="1200" y="16" font-size="10" fill="#5f5e5a" text-anchor="middle">卡 B 完成 = 同步</text>
    </g>

    <text x="80" y="296" font-size="11" fill="#5f5e5a" font-style="italic">长尾比例 = 卡 A 空等时间 / 总时间 ≈ 60% · 这个 step 的 GPU 利用率打了 4 折</text>
  </g>

  <!-- ============================================== -->
  <!-- 解决方案：balance_batch                          -->
  <!-- ============================================== -->
  <g transform="translate(60, 1540)">
    <rect x="0" y="0" width="1360" height="640" rx="8" fill="#FFFFFF" stroke="#534AB7" stroke-width="1.2"/>
    <rect x="0" y="0" width="6" height="640" rx="2" fill="#534AB7"/>

    <text x="22" y="32" font-size="18" font-weight="700" fill="#26215C">解决方案 · balance_batch（verl 的标配）</text>
    <text x="22" y="54" font-size="12.5" fill="#534AB7">不按"卡"分样本，而是把所有样本汇总后按 token 数重新均衡分配</text>

    <!-- 原始分配 -->
    <g transform="translate(40, 80)">
      <text x="0" y="0" font-size="13" font-weight="700" fill="#1a1a1a">原始分配（不均衡）：</text>

      <g transform="translate(0, 20)">
        <text x="0" y="20" font-size="11" fill="#04342C" font-weight="600">卡 A:</text>
        <rect x="60" y="6" width="160" height="28" rx="3" fill="#9FE1CB" stroke="#0F6E56" stroke-width="0.6"/>
        <text x="140" y="24" font-size="10" fill="#04342C" text-anchor="middle">8000</text>
        <rect x="225" y="6" width="180" height="28" rx="3" fill="#9FE1CB" stroke="#0F6E56" stroke-width="0.6"/>
        <text x="315" y="24" font-size="10" fill="#04342C" text-anchor="middle">9000</text>
        <rect x="410" y="6" width="200" height="28" rx="3" fill="#9FE1CB" stroke="#0F6E56" stroke-width="0.6"/>
        <text x="510" y="24" font-size="10" fill="#04342C" text-anchor="middle">10000</text>
        <rect x="615" y="6" width="180" height="28" rx="3" fill="#9FE1CB" stroke="#0F6E56" stroke-width="0.6"/>
        <text x="705" y="24" font-size="10" fill="#04342C" text-anchor="middle">9000</text>
        <text x="820" y="24" font-size="11" fill="#04342C" font-weight="700">总 36000 → 2 μbatch</text>
      </g>

      <g transform="translate(0, 54)">
        <text x="0" y="20" font-size="11" fill="#501313" font-weight="600">卡 B:</text>
        <rect x="60" y="6" width="240" height="28" rx="3" fill="#F5C4B3" stroke="#D85A30" stroke-width="0.6"/>
        <text x="180" y="24" font-size="10" fill="#501313" text-anchor="middle">12000</text>
        <rect x="305" y="6" width="260" height="28" rx="3" fill="#F5C4B3" stroke="#D85A30" stroke-width="0.6"/>
        <text x="435" y="24" font-size="10" fill="#501313" text-anchor="middle">13000</text>
        <rect x="570" y="6" width="360" height="28" rx="3" fill="#F09595" stroke="#A32D2D" stroke-width="0.6"/>
        <text x="750" y="24" font-size="10" fill="#FFFFFF" text-anchor="middle">18000</text>
        <rect x="935" y="6" width="380" height="28" rx="3" fill="#F09595" stroke="#A32D2D" stroke-width="0.6"/>
        <text x="1125" y="24" font-size="10" fill="#FFFFFF" text-anchor="middle">19000</text>
        <text x="-200" y="24" font-size="11" fill="#5f5e5a" font-style="italic"></text>
      </g>

      <text x="60" y="106" font-size="11" fill="#A32D2D" font-style="italic">问题：A 共 36K，B 共 62K，token 数差近 1 倍 → 微批数 2 vs 4 长尾</text>
    </g>

    <!-- balance_batch 重新分配 -->
    <g transform="translate(40, 220)">
      <line x1="0" y1="0" x2="1280" y2="0" stroke="#534AB7" stroke-width="1" stroke-dasharray="4 3"/>
      <text x="640" y="-6" font-size="12" fill="#534AB7" text-anchor="middle" font-weight="700">↓ balance_batch：跨卡重新分配 ↓</text>
    </g>

    <g transform="translate(40, 240)">
      <text x="0" y="20" font-size="13" font-weight="700" fill="#1a1a1a">重新分配后（按总 token 均衡）：</text>

      <g transform="translate(0, 40)">
        <text x="0" y="20" font-size="11" fill="#04342C" font-weight="600">卡 A:</text>
        <rect x="60" y="6" width="160" height="28" rx="3" fill="#9FE1CB" stroke="#0F6E56" stroke-width="0.6"/>
        <text x="140" y="24" font-size="10" fill="#04342C" text-anchor="middle">8000</text>
        <rect x="225" y="6" width="180" height="28" rx="3" fill="#9FE1CB" stroke="#0F6E56" stroke-width="0.6"/>
        <text x="315" y="24" font-size="10" fill="#04342C" text-anchor="middle">9000</text>
        <rect x="410" y="6" width="380" height="28" rx="3" fill="#F09595" stroke="#A32D2D" stroke-width="0.6"/>
        <text x="600" y="24" font-size="10" fill="#FFFFFF" text-anchor="middle">19000</text>
        <rect x="795" y="6" width="240" height="28" rx="3" fill="#F5C4B3" stroke="#D85A30" stroke-width="0.6"/>
        <text x="915" y="24" font-size="10" fill="#501313" text-anchor="middle">12000</text>
        <text x="1050" y="24" font-size="11" fill="#04342C" font-weight="700">总 48000</text>
      </g>

      <g transform="translate(0, 76)">
        <text x="0" y="20" font-size="11" fill="#501313" font-weight="600">卡 B:</text>
        <rect x="60" y="6" width="200" height="28" rx="3" fill="#9FE1CB" stroke="#0F6E56" stroke-width="0.6"/>
        <text x="160" y="24" font-size="10" fill="#04342C" text-anchor="middle">10000</text>
        <rect x="265" y="6" width="180" height="28" rx="3" fill="#9FE1CB" stroke="#0F6E56" stroke-width="0.6"/>
        <text x="355" y="24" font-size="10" fill="#04342C" text-anchor="middle">9000</text>
        <rect x="450" y="6" width="260" height="28" rx="3" fill="#F5C4B3" stroke="#D85A30" stroke-width="0.6"/>
        <text x="580" y="24" font-size="10" fill="#501313" text-anchor="middle">13000</text>
        <rect x="715" y="6" width="360" height="28" rx="3" fill="#F09595" stroke="#A32D2D" stroke-width="0.6"/>
        <text x="895" y="24" font-size="10" fill="#FFFFFF" text-anchor="middle">18000</text>
        <text x="1090" y="24" font-size="11" fill="#501313" font-weight="700">总 50000</text>
      </g>

      <text x="60" y="136" font-size="11" fill="#04342C" font-style="italic">现在两卡 token 数 48K vs 50K，差距很小，micro batch 数也接近</text>
    </g>

    <!-- 重新打包后的 micro batch -->
    <g transform="translate(40, 410)">
      <text x="0" y="0" font-size="13" font-weight="700" fill="#1a1a1a">重新贪心打包后的 micro batch：</text>

      <g transform="translate(0, 24)" font-size="11">
        <text x="0" y="20" font-weight="600" fill="#04342C">卡 A:</text>
        <rect x="60" y="6" width="120" height="28" rx="3" fill="#B5E8D2" stroke="#0F6E56" stroke-width="0.6"/>
        <text x="120" y="24" fill="#04342C" text-anchor="middle">μbatch 1 (17K)</text>
        <text x="190" y="24" fill="#888780">+</text>
        <rect x="200" y="6" width="120" height="28" rx="3" fill="#B5E8D2" stroke="#0F6E56" stroke-width="0.6"/>
        <text x="260" y="24" fill="#04342C" text-anchor="middle">μbatch 2 (19K)</text>
        <text x="330" y="24" fill="#888780">+</text>
        <rect x="340" y="6" width="120" height="28" rx="3" fill="#B5E8D2" stroke="#0F6E56" stroke-width="0.6"/>
        <text x="400" y="24" fill="#04342C" text-anchor="middle">μbatch 3 (12K)</text>
        <text x="500" y="24" fill="#04342C" font-weight="700">→ 3 个 μbatch</text>
      </g>

      <g transform="translate(0, 60)" font-size="11">
        <text x="0" y="20" font-weight="600" fill="#501313">卡 B:</text>
        <rect x="60" y="6" width="120" height="28" rx="3" fill="#F5C4B3" stroke="#D85A30" stroke-width="0.6"/>
        <text x="120" y="24" fill="#501313" text-anchor="middle">μbatch 1 (19K)</text>
        <text x="190" y="24" fill="#888780">+</text>
        <rect x="200" y="6" width="120" height="28" rx="3" fill="#F5C4B3" stroke="#D85A30" stroke-width="0.6"/>
        <text x="260" y="24" fill="#501313" text-anchor="middle">μbatch 2 (13K)</text>
        <text x="330" y="24" fill="#888780">+</text>
        <rect x="340" y="6" width="120" height="28" rx="3" fill="#F5C4B3" stroke="#D85A30" stroke-width="0.6"/>
        <text x="400" y="24" fill="#501313" text-anchor="middle">μbatch 3 (18K)</text>
        <text x="500" y="24" fill="#501313" font-weight="700">→ 3 个 μbatch</text>
      </g>

      <g transform="translate(0, 110)">
        <rect x="0" y="0" width="1280" height="60" rx="6" fill="#EEEDFE" stroke="#534AB7" stroke-width="0.6"/>
        <text x="14" y="22" font-size="13" font-weight="700" fill="#26215C">长尾问题被消除：</text>
        <text x="14" y="42" font-size="11.5" fill="#444441">两卡都是 3 个 μbatch · 步调一致 · 没有空等 · GPU 利用率几乎 100%</text>
      </g>
    </g>
  </g>

  <!-- 底部总结 -->
  <g transform="translate(60, 2200)">
    <!-- 占位 -->
  </g>

</svg>
