<?xml version="1.0" encoding="UTF-8"?>
<svg xmlns="http://www.w3.org/2000/svg" viewBox="0 0 1480 1480" font-family="-apple-system, BlinkMacSystemFont, 'Segoe UI', 'PingFang SC', 'Helvetica Neue', sans-serif">

  <defs>
    <linearGradient id="bg" x1="0" y1="0" x2="0" y2="1">
      <stop offset="0%" stop-color="#FAFAF7"/>
      <stop offset="100%" stop-color="#F3F2EC"/>
    </linearGradient>

    <marker id="arrow-thin" viewBox="0 0 10 10" refX="9" refY="5" markerWidth="6" markerHeight="6" orient="auto-start-reverse">
      <path d="M2 1L8 5L2 9" fill="none" stroke="context-stroke" stroke-width="1.2" stroke-linecap="round" stroke-linejoin="round"/>
    </marker>

    <!-- diagonal stripe pattern for "idle / wait" cells -->
    <pattern id="idle" patternUnits="userSpaceOnUse" width="6" height="6" patternTransform="rotate(45)">
      <rect width="6" height="6" fill="#F1EFE8"/>
      <line x1="0" y1="0" x2="0" y2="6" stroke="#D3D1C7" stroke-width="1"/>
    </pattern>

    <!-- diagonal stripe pattern for "straggler waiting" -->
    <pattern id="straggler" patternUnits="userSpaceOnUse" width="6" height="6" patternTransform="rotate(45)">
      <rect width="6" height="6" fill="#FCEBEB"/>
      <line x1="0" y1="0" x2="0" y2="6" stroke="#F09595" stroke-width="1"/>
    </pattern>
  </defs>

  <rect width="1480" height="1480" fill="url(#bg)"/>

  <!-- ====================== TITLE ====================== -->
  <text x="60" y="58" font-size="28" font-weight="600" fill="#1a1a1a" letter-spacing="-0.4">TRL vs verl · 2 节点 × 4 GPU 上的一个 RL step</text>
  <text x="60" y="86" font-size="14" fill="#6b6b66" font-style="italic">横轴 = 时间 · 纵轴 = 8 张 GPU · 每个色块代表"这张卡此刻在算什么" · 斜纹 = 闲置或等待</text>
  <line x1="60" y1="100" x2="1420" y2="100" stroke="#d4d2c7" stroke-width="0.8"/>

  <!-- ====================================================== -->
  <!-- LEGEND  (top right area)                                 -->
  <!-- ====================================================== -->
  <g transform="translate(60, 120)">
    <rect x="0" y="0" width="1360" height="56" rx="6" fill="#FFFFFF" stroke="#d4d2c7" stroke-width="0.8"/>
    <text x="16" y="22" font-size="12" font-weight="600" fill="#5f5e5a">图例</text>

    <!-- legend items -->
    <g transform="translate(70, 30)">
      <rect x="0"   y="0" width="22" height="16" rx="3" fill="#FAECE7" stroke="#D85A30" stroke-width="0.8"/>
      <text x="28"  y="13" font-size="11.5" fill="#444441">Actor rollout</text>

      <rect x="140" y="0" width="22" height="16" rx="3" fill="#F0997B" stroke="#993C1D" stroke-width="0.8"/>
      <text x="168" y="13" font-size="11.5" fill="#444441">Actor training</text>

      <rect x="290" y="0" width="22" height="16" rx="3" fill="#E6F1FB" stroke="#378ADD" stroke-width="0.8"/>
      <text x="318" y="13" font-size="11.5" fill="#444441">Ref logp</text>

      <rect x="400" y="0" width="22" height="16" rx="3" fill="#EAF3DE" stroke="#639922" stroke-width="0.8"/>
      <text x="428" y="13" font-size="11.5" fill="#444441">Reward score</text>

      <rect x="540" y="0" width="22" height="16" rx="3" fill="#EEEDFE" stroke="#534AB7" stroke-width="0.8"/>
      <text x="568" y="13" font-size="11.5" fill="#444441">Reshard 权重</text>

      <rect x="680" y="0" width="22" height="16" rx="3" fill="url(#idle)" stroke="#888780" stroke-width="0.8"/>
      <text x="708" y="13" font-size="11.5" fill="#444441">闲置 / GPU 没事做</text>

      <rect x="850" y="0" width="22" height="16" rx="3" fill="url(#straggler)" stroke="#A32D2D" stroke-width="0.8"/>
      <text x="878" y="13" font-size="11.5" fill="#444441">等长 response（straggler）</text>
    </g>
  </g>

  <!-- ====================================================== -->
  <!-- TRL FRAME                                                -->
  <!-- ====================================================== -->
  <g transform="translate(60, 200)">
    <rect x="0" y="0" width="1360" height="500" rx="8" fill="#FFFFFF" stroke="#A32D2D" stroke-width="1.4"/>
    <rect x="0" y="0" width="6" height="500" rx="2" fill="#A32D2D"/>

    <!-- Frame title -->
    <text x="22" y="32" font-size="20" font-weight="700" fill="#501313">TRL · 全部模型每张卡都装一份（ZeRO-3 / 数据并行）</text>
    <text x="22" y="54" font-size="13" fill="#791F1F">8 张卡每张都 hold actor + ref + reward 三个模型 · 每张卡负责 1/8 的 batch · 全程数据并行</text>

    <!-- Setup row: showing what each GPU holds -->
    <g transform="translate(22, 76)">
      <text x="0" y="14" font-size="11" font-weight="600" fill="#5f5e5a">每张 GPU 的常驻模型</text>
      <rect x="170" y="0" width="1160" height="28" rx="4" fill="#FCEBEB" stroke="#E24B4A" stroke-width="0.6"/>
      <text x="750" y="19" font-size="12" fill="#501313" text-anchor="middle">Actor (训练 + 推理共用 transformers.generate) + Ref (frozen) + Reward model (frozen) + 优化器状态 + KV cache</text>
    </g>

    <!-- Time axis -->
    <g transform="translate(150, 130)">
      <line x1="0" y1="0" x2="1180" y2="0" stroke="#888780" stroke-width="0.6"/>
      <text x="-90" y="4" font-size="11" font-weight="600" fill="#5f5e5a">time →</text>

      <!-- Phase markers along top -->
      <g font-size="11" fill="#5f5e5a" text-anchor="middle">
        <line x1="0"    y1="0" x2="0"    y2="-6" stroke="#888780"/>
        <text x="200" y="-10">rollout (model.generate)</text>
        <line x1="400"  y1="0" x2="400"  y2="-6" stroke="#888780"/>
        <text x="490" y="-10">ref forward</text>
        <line x1="580"  y1="0" x2="580"  y2="-6" stroke="#888780"/>
        <text x="670" y="-10">reward forward</text>
        <line x1="760"  y1="0" x2="760"  y2="-6" stroke="#888780"/>
        <text x="830" y="-10">advantage</text>
        <line x1="900"  y1="0" x2="900"  y2="-6" stroke="#888780"/>
        <text x="1040" y="-10">actor training (fwd + bwd + optim)</text>
        <line x1="1180" y1="0" x2="1180" y2="-6" stroke="#888780"/>
      </g>
    </g>

    <!-- GPU rows -->
    <g transform="translate(150, 150)" font-size="11">

      <!-- Node label -->
      <text x="-130" y="44" font-size="11" font-weight="700" fill="#5f5e5a">Node 0</text>
      <text x="-130" y="172" font-size="11" font-weight="700" fill="#5f5e5a">Node 1</text>

      <!-- 8 GPU rows, each 28px tall, gap 4 -->
      <!-- Phases x: rollout 0-400, ref 400-580, reward 580-760, advantage 760-900, training 900-1180 -->
      <!-- Each GPU has the same structure since data-parallel -->

      <!-- Helper: row template for GPU n -->

      <!-- GPU 0 (straggler row to show problem) -->
      <g transform="translate(0, 8)">
        <text x="-50" y="20" fill="#444441">GPU 0</text>
        <rect x="0"    y="2" width="320" height="24" rx="3" fill="#FAECE7" stroke="#D85A30" stroke-width="0.8"/>
        <text x="160" y="18" text-anchor="middle" font-size="11" fill="#4A1B0C">generate(short)</text>
        <rect x="320"  y="2" width="80"  height="24" rx="3" fill="url(#straggler)" stroke="#A32D2D" stroke-width="0.6"/>
        <rect x="400"  y="2" width="180" height="24" rx="3" fill="#E6F1FB" stroke="#378ADD" stroke-width="0.8"/>
        <text x="490" y="18" text-anchor="middle" font-size="11" fill="#042C53">ref forward</text>
        <rect x="580"  y="2" width="180" height="24" rx="3" fill="#EAF3DE" stroke="#639922" stroke-width="0.8"/>
        <text x="670" y="18" text-anchor="middle" font-size="11" fill="#173404">reward forward</text>
        <rect x="760"  y="2" width="140" height="24" rx="3" fill="url(#idle)" stroke="#888780" stroke-width="0.6"/>
        <text x="830" y="18" text-anchor="middle" font-size="11" fill="#444441">advantage (CPU)</text>
        <rect x="900"  y="2" width="280" height="24" rx="3" fill="#F0997B" stroke="#993C1D" stroke-width="0.8"/>
        <text x="1040" y="18" text-anchor="middle" font-size="11" fill="#4A1B0C">actor training</text>
      </g>

      <!-- GPU 1 -->
      <g transform="translate(0, 40)">
        <text x="-50" y="20" fill="#444441">GPU 1</text>
        <rect x="0"    y="2" width="280" height="24" rx="3" fill="#FAECE7" stroke="#D85A30" stroke-width="0.8"/>
        <text x="140" y="18" text-anchor="middle" font-size="11" fill="#4A1B0C">generate</text>
        <rect x="280"  y="2" width="120" height="24" rx="3" fill="url(#straggler)" stroke="#A32D2D" stroke-width="0.6"/>
        <rect x="400"  y="2" width="180" height="24" rx="3" fill="#E6F1FB" stroke="#378ADD" stroke-width="0.8"/>
        <text x="490" y="18" text-anchor="middle" font-size="11" fill="#042C53">ref forward</text>
        <rect x="580"  y="2" width="180" height="24" rx="3" fill="#EAF3DE" stroke="#639922" stroke-width="0.8"/>
        <text x="670" y="18" text-anchor="middle" font-size="11" fill="#173404">reward forward</text>
        <rect x="760"  y="2" width="140" height="24" rx="3" fill="url(#idle)" stroke="#888780" stroke-width="0.6"/>
        <rect x="900"  y="2" width="280" height="24" rx="3" fill="#F0997B" stroke="#993C1D" stroke-width="0.8"/>
        <text x="1040" y="18" text-anchor="middle" font-size="11" fill="#4A1B0C">actor training</text>
      </g>

      <!-- GPU 2 (long straggler) -->
      <g transform="translate(0, 72)">
        <text x="-50" y="20" fill="#444441">GPU 2</text>
        <rect x="0"    y="2" width="400" height="24" rx="3" fill="#FAECE7" stroke="#D85A30" stroke-width="0.8"/>
        <text x="200" y="18" text-anchor="middle" font-size="11" fill="#4A1B0C">generate (LONG response · 拖累全队)</text>
        <rect x="400"  y="2" width="180" height="24" rx="3" fill="#E6F1FB" stroke="#378ADD" stroke-width="0.8"/>
        <text x="490" y="18" text-anchor="middle" font-size="11" fill="#042C53">ref forward</text>
        <rect x="580"  y="2" width="180" height="24" rx="3" fill="#EAF3DE" stroke="#639922" stroke-width="0.8"/>
        <text x="670" y="18" text-anchor="middle" font-size="11" fill="#173404">reward forward</text>
        <rect x="760"  y="2" width="140" height="24" rx="3" fill="url(#idle)" stroke="#888780" stroke-width="0.6"/>
        <rect x="900"  y="2" width="280" height="24" rx="3" fill="#F0997B" stroke="#993C1D" stroke-width="0.8"/>
        <text x="1040" y="18" text-anchor="middle" font-size="11" fill="#4A1B0C">actor training</text>
      </g>

      <!-- GPU 3 -->
      <g transform="translate(0, 104)">
        <text x="-50" y="20" fill="#444441">GPU 3</text>
        <rect x="0"    y="2" width="260" height="24" rx="3" fill="#FAECE7" stroke="#D85A30" stroke-width="0.8"/>
        <text x="130" y="18" text-anchor="middle" font-size="11" fill="#4A1B0C">generate</text>
        <rect x="260"  y="2" width="140" height="24" rx="3" fill="url(#straggler)" stroke="#A32D2D" stroke-width="0.6"/>
        <rect x="400"  y="2" width="180" height="24" rx="3" fill="#E6F1FB" stroke="#378ADD" stroke-width="0.8"/>
        <text x="490" y="18" text-anchor="middle" font-size="11" fill="#042C53">ref forward</text>
        <rect x="580"  y="2" width="180" height="24" rx="3" fill="#EAF3DE" stroke="#639922" stroke-width="0.8"/>
        <text x="670" y="18" text-anchor="middle" font-size="11" fill="#173404">reward forward</text>
        <rect x="760"  y="2" width="140" height="24" rx="3" fill="url(#idle)" stroke="#888780" stroke-width="0.6"/>
        <rect x="900"  y="2" width="280" height="24" rx="3" fill="#F0997B" stroke="#993C1D" stroke-width="0.8"/>
        <text x="1040" y="18" text-anchor="middle" font-size="11" fill="#4A1B0C">actor training</text>
      </g>

      <!-- separator between nodes -->
      <line x1="-60" y1="138" x2="1180" y2="138" stroke="#d4d2c7" stroke-width="0.6" stroke-dasharray="4 3"/>

      <!-- GPU 4 -->
      <g transform="translate(0, 144)">
        <text x="-50" y="20" fill="#444441">GPU 4</text>
        <rect x="0"    y="2" width="300" height="24" rx="3" fill="#FAECE7" stroke="#D85A30" stroke-width="0.8"/>
        <text x="150" y="18" text-anchor="middle" font-size="11" fill="#4A1B0C">generate</text>
        <rect x="300"  y="2" width="100" height="24" rx="3" fill="url(#straggler)" stroke="#A32D2D" stroke-width="0.6"/>
        <rect x="400"  y="2" width="180" height="24" rx="3" fill="#E6F1FB" stroke="#378ADD" stroke-width="0.8"/>
        <text x="490" y="18" text-anchor="middle" font-size="11" fill="#042C53">ref forward</text>
        <rect x="580"  y="2" width="180" height="24" rx="3" fill="#EAF3DE" stroke="#639922" stroke-width="0.8"/>
        <text x="670" y="18" text-anchor="middle" font-size="11" fill="#173404">reward forward</text>
        <rect x="760"  y="2" width="140" height="24" rx="3" fill="url(#idle)" stroke="#888780" stroke-width="0.6"/>
        <rect x="900"  y="2" width="280" height="24" rx="3" fill="#F0997B" stroke="#993C1D" stroke-width="0.8"/>
        <text x="1040" y="18" text-anchor="middle" font-size="11" fill="#4A1B0C">actor training</text>
      </g>

      <!-- GPU 5 -->
      <g transform="translate(0, 176)">
        <text x="-50" y="20" fill="#444441">GPU 5</text>
        <rect x="0"    y="2" width="240" height="24" rx="3" fill="#FAECE7" stroke="#D85A30" stroke-width="0.8"/>
        <text x="120" y="18" text-anchor="middle" font-size="11" fill="#4A1B0C">generate</text>
        <rect x="240"  y="2" width="160" height="24" rx="3" fill="url(#straggler)" stroke="#A32D2D" stroke-width="0.6"/>
        <rect x="400"  y="2" width="180" height="24" rx="3" fill="#E6F1FB" stroke="#378ADD" stroke-width="0.8"/>
        <text x="490" y="18" text-anchor="middle" font-size="11" fill="#042C53">ref forward</text>
        <rect x="580"  y="2" width="180" height="24" rx="3" fill="#EAF3DE" stroke="#639922" stroke-width="0.8"/>
        <text x="670" y="18" text-anchor="middle" font-size="11" fill="#173404">reward forward</text>
        <rect x="760"  y="2" width="140" height="24" rx="3" fill="url(#idle)" stroke="#888780" stroke-width="0.6"/>
        <rect x="900"  y="2" width="280" height="24" rx="3" fill="#F0997B" stroke="#993C1D" stroke-width="0.8"/>
        <text x="1040" y="18" text-anchor="middle" font-size="11" fill="#4A1B0C">actor training</text>
      </g>

      <!-- GPU 6 -->
      <g transform="translate(0, 208)">
        <text x="-50" y="20" fill="#444441">GPU 6</text>
        <rect x="0"    y="2" width="320" height="24" rx="3" fill="#FAECE7" stroke="#D85A30" stroke-width="0.8"/>
        <text x="160" y="18" text-anchor="middle" font-size="11" fill="#4A1B0C">generate</text>
        <rect x="320"  y="2" width="80"  height="24" rx="3" fill="url(#straggler)" stroke="#A32D2D" stroke-width="0.6"/>
        <rect x="400"  y="2" width="180" height="24" rx="3" fill="#E6F1FB" stroke="#378ADD" stroke-width="0.8"/>
        <text x="490" y="18" text-anchor="middle" font-size="11" fill="#042C53">ref forward</text>
        <rect x="580"  y="2" width="180" height="24" rx="3" fill="#EAF3DE" stroke="#639922" stroke-width="0.8"/>
        <text x="670" y="18" text-anchor="middle" font-size="11" fill="#173404">reward forward</text>
        <rect x="760"  y="2" width="140" height="24" rx="3" fill="url(#idle)" stroke="#888780" stroke-width="0.6"/>
        <rect x="900"  y="2" width="280" height="24" rx="3" fill="#F0997B" stroke="#993C1D" stroke-width="0.8"/>
        <text x="1040" y="18" text-anchor="middle" font-size="11" fill="#4A1B0C">actor training</text>
      </g>

      <!-- GPU 7 -->
      <g transform="translate(0, 240)">
        <text x="-50" y="20" fill="#444441">GPU 7</text>
        <rect x="0"    y="2" width="280" height="24" rx="3" fill="#FAECE7" stroke="#D85A30" stroke-width="0.8"/>
        <text x="140" y="18" text-anchor="middle" font-size="11" fill="#4A1B0C">generate</text>
        <rect x="280"  y="2" width="120" height="24" rx="3" fill="url(#straggler)" stroke="#A32D2D" stroke-width="0.6"/>
        <rect x="400"  y="2" width="180" height="24" rx="3" fill="#E6F1FB" stroke="#378ADD" stroke-width="0.8"/>
        <text x="490" y="18" text-anchor="middle" font-size="11" fill="#042C53">ref forward</text>
        <rect x="580"  y="2" width="180" height="24" rx="3" fill="#EAF3DE" stroke="#639922" stroke-width="0.8"/>
        <text x="670" y="18" text-anchor="middle" font-size="11" fill="#173404">reward forward</text>
        <rect x="760"  y="2" width="140" height="24" rx="3" fill="url(#idle)" stroke="#888780" stroke-width="0.6"/>
        <rect x="900"  y="2" width="280" height="24" rx="3" fill="#F0997B" stroke="#993C1D" stroke-width="0.8"/>
        <text x="1040" y="18" text-anchor="middle" font-size="11" fill="#4A1B0C">actor training</text>
      </g>
    </g>

    <!-- TRL bottom commentary -->
    <g transform="translate(22, 444)">
      <text x="0" y="14" font-size="12" fill="#501313" font-weight="600">观察：</text>
      <text x="50" y="14" font-size="12" fill="#444441">8 卡同时干活听起来很高效，但 generate 用 transformers 没有 continuous batching · 只要一张卡分到长 response，其他 7 张全部等</text>
      <text x="50" y="32" font-size="12" fill="#444441">每张卡都装了三个模型 + KV cache · 显存压力大 · 7B+ 模型经常 OOM 或被迫缩小 batch · 没有 placement 旋钮可调</text>
    </g>
  </g>

  <!-- ====================================================== -->
  <!-- VERL FRAME                                               -->
  <!-- ====================================================== -->
  <g transform="translate(60, 730)">
    <rect x="0" y="0" width="1360" height="660" rx="8" fill="#FFFFFF" stroke="#0F6E56" stroke-width="1.4"/>
    <rect x="0" y="0" width="6" height="660" rx="2" fill="#0F6E56"/>

    <text x="22" y="32" font-size="20" font-weight="700" fill="#04342C">verl · 按 placement 分组 · 不同模型住在不同 GPU</text>
    <text x="22" y="54" font-size="13" fill="#0F6E56">Actor (rollout 用 vLLM, training 用 FSDP) → Node 0 全部 4 卡 · Ref → Node 1 GPU 4-5 · Reward → Node 1 GPU 6-7</text>

    <!-- Setup row: showing what each GPU holds -->
    <g transform="translate(22, 76)">
      <text x="0" y="14" font-size="11" font-weight="600" fill="#5f5e5a">每张 GPU 的常驻模型</text>

      <rect x="170" y="0" width="600" height="28" rx="4" fill="#FAECE7" stroke="#D85A30" stroke-width="0.6"/>
      <text x="470" y="19" font-size="12" fill="#4A1B0C" text-anchor="middle">Node 0 (GPU 0–3): Actor · vLLM 推理 + FSDP 训练（reshard 切换）</text>

      <rect x="780" y="0" width="270" height="28" rx="4" fill="#E6F1FB" stroke="#378ADD" stroke-width="0.6"/>
      <text x="915" y="19" font-size="12" fill="#042C53" text-anchor="middle">Node 1 GPU 4–5: Ref (frozen)</text>

      <rect x="1060" y="0" width="270" height="28" rx="4" fill="#EAF3DE" stroke="#639922" stroke-width="0.6"/>
      <text x="1195" y="19" font-size="12" fill="#173404" text-anchor="middle">Node 1 GPU 6–7: Reward</text>
    </g>

    <!-- Time axis -->
    <g transform="translate(150, 130)">
      <line x1="0" y1="0" x2="1180" y2="0" stroke="#888780" stroke-width="0.6"/>
      <text x="-90" y="4" font-size="11" font-weight="600" fill="#5f5e5a">time →</text>

      <g font-size="11" fill="#5f5e5a" text-anchor="middle">
        <line x1="0"   y1="0" x2="0"   y2="-6" stroke="#888780"/>
        <text x="120" y="-10">vLLM rollout · continuous batching</text>
        <line x1="240" y1="0" x2="240" y2="-6" stroke="#888780"/>
        <text x="295" y="-10">reshard</text>
        <line x1="350" y1="0" x2="350" y2="-6" stroke="#888780"/>
        <text x="430" y="-10">ref + reward 并行</text>
        <line x1="510" y1="0" x2="510" y2="-6" stroke="#888780"/>
        <text x="600" y="-10">advantage (driver, CPU)</text>
        <line x1="690" y1="0" x2="690" y2="-6" stroke="#888780"/>
        <text x="935" y="-10">actor training (FSDP across all 4 GPUs of Node 0)</text>
        <line x1="1180" y1="0" x2="1180" y2="-6" stroke="#888780"/>
      </g>
    </g>

    <!-- GPU rows -->
    <g transform="translate(150, 150)" font-size="11">

      <text x="-130" y="44" font-size="11" font-weight="700" fill="#5f5e5a">Node 0</text>
      <text x="-130" y="172" font-size="11" font-weight="700" fill="#5f5e5a">Node 1</text>

      <!-- GPU 0 — Actor: vLLM rollout (compact, no straggler), reshard, idle while ref/rm runs, then training -->
      <g transform="translate(0, 8)">
        <text x="-50" y="20" fill="#444441">GPU 0</text>
        <rect x="0"    y="2" width="240" height="24" rx="3" fill="#FAECE7" stroke="#D85A30" stroke-width="0.8"/>
        <text x="120" y="18" text-anchor="middle" font-size="11" fill="#4A1B0C">vLLM generate (continuous batching)</text>
        <rect x="240"  y="2" width="110" height="24" rx="3" fill="#EEEDFE" stroke="#534AB7" stroke-width="0.8"/>
        <text x="295" y="18" text-anchor="middle" font-size="11" fill="#26215C">reshard</text>
        <rect x="350"  y="2" width="160" height="24" rx="3" fill="url(#idle)" stroke="#888780" stroke-width="0.6"/>
        <text x="430" y="18" text-anchor="middle" font-size="11" fill="#444441">等 ref/reward 算完</text>
        <rect x="510"  y="2" width="180" height="24" rx="3" fill="url(#idle)" stroke="#888780" stroke-width="0.6"/>
        <text x="600" y="18" text-anchor="middle" font-size="11" fill="#444441">等 driver 算 advantage</text>
        <rect x="690"  y="2" width="490" height="24" rx="3" fill="#F0997B" stroke="#993C1D" stroke-width="0.8"/>
        <text x="935" y="18" text-anchor="middle" font-size="11" fill="#4A1B0C">actor training (FSDP shard 0/4)</text>
      </g>

      <!-- GPU 1 — same as GPU 0 (TP/DP partner) -->
      <g transform="translate(0, 40)">
        <text x="-50" y="20" fill="#444441">GPU 1</text>
        <rect x="0"    y="2" width="240" height="24" rx="3" fill="#FAECE7" stroke="#D85A30" stroke-width="0.8"/>
        <text x="120" y="18" text-anchor="middle" font-size="11" fill="#4A1B0C">vLLM generate</text>
        <rect x="240"  y="2" width="110" height="24" rx="3" fill="#EEEDFE" stroke="#534AB7" stroke-width="0.8"/>
        <text x="295" y="18" text-anchor="middle" font-size="11" fill="#26215C">reshard</text>
        <rect x="350"  y="2" width="340" height="24" rx="3" fill="url(#idle)" stroke="#888780" stroke-width="0.6"/>
        <rect x="690"  y="2" width="490" height="24" rx="3" fill="#F0997B" stroke="#993C1D" stroke-width="0.8"/>
        <text x="935" y="18" text-anchor="middle" font-size="11" fill="#4A1B0C">actor training (FSDP shard 1/4)</text>
      </g>

      <!-- GPU 2 — same -->
      <g transform="translate(0, 72)">
        <text x="-50" y="20" fill="#444441">GPU 2</text>
        <rect x="0"    y="2" width="240" height="24" rx="3" fill="#FAECE7" stroke="#D85A30" stroke-width="0.8"/>
        <text x="120" y="18" text-anchor="middle" font-size="11" fill="#4A1B0C">vLLM generate</text>
        <rect x="240"  y="2" width="110" height="24" rx="3" fill="#EEEDFE" stroke="#534AB7" stroke-width="0.8"/>
        <text x="295" y="18" text-anchor="middle" font-size="11" fill="#26215C">reshard</text>
        <rect x="350"  y="2" width="340" height="24" rx="3" fill="url(#idle)" stroke="#888780" stroke-width="0.6"/>
        <rect x="690"  y="2" width="490" height="24" rx="3" fill="#F0997B" stroke="#993C1D" stroke-width="0.8"/>
        <text x="935" y="18" text-anchor="middle" font-size="11" fill="#4A1B0C">actor training (FSDP shard 2/4)</text>
      </g>

      <!-- GPU 3 -->
      <g transform="translate(0, 104)">
        <text x="-50" y="20" fill="#444441">GPU 3</text>
        <rect x="0"    y="2" width="240" height="24" rx="3" fill="#FAECE7" stroke="#D85A30" stroke-width="0.8"/>
        <text x="120" y="18" text-anchor="middle" font-size="11" fill="#4A1B0C">vLLM generate</text>
        <rect x="240"  y="2" width="110" height="24" rx="3" fill="#EEEDFE" stroke="#534AB7" stroke-width="0.8"/>
        <text x="295" y="18" text-anchor="middle" font-size="11" fill="#26215C">reshard</text>
        <rect x="350"  y="2" width="340" height="24" rx="3" fill="url(#idle)" stroke="#888780" stroke-width="0.6"/>
        <rect x="690"  y="2" width="490" height="24" rx="3" fill="#F0997B" stroke="#993C1D" stroke-width="0.8"/>
        <text x="935" y="18" text-anchor="middle" font-size="11" fill="#4A1B0C">actor training (FSDP shard 3/4)</text>
      </g>

      <!-- node separator -->
      <line x1="-60" y1="138" x2="1180" y2="138" stroke="#d4d2c7" stroke-width="0.6" stroke-dasharray="4 3"/>

      <!-- GPU 4 — Ref -->
      <g transform="translate(0, 144)">
        <text x="-50" y="20" fill="#444441">GPU 4</text>
        <rect x="0"    y="2" width="350" height="24" rx="3" fill="url(#idle)" stroke="#888780" stroke-width="0.6"/>
        <text x="175" y="18" text-anchor="middle" font-size="11" fill="#444441">等 actor 把 responses 发过来</text>
        <rect x="350"  y="2" width="160" height="24" rx="3" fill="#E6F1FB" stroke="#378ADD" stroke-width="0.8"/>
        <text x="430" y="18" text-anchor="middle" font-size="11" fill="#042C53">ref forward (shard 0/2)</text>
        <rect x="510"  y="2" width="670" height="24" rx="3" fill="url(#idle)" stroke="#888780" stroke-width="0.6"/>
        <text x="845" y="18" text-anchor="middle" font-size="11" fill="#444441">等下一个 step（这一步用不到 ref 了）</text>
      </g>

      <!-- GPU 5 — Ref partner -->
      <g transform="translate(0, 176)">
        <text x="-50" y="20" fill="#444441">GPU 5</text>
        <rect x="0"    y="2" width="350" height="24" rx="3" fill="url(#idle)" stroke="#888780" stroke-width="0.6"/>
        <rect x="350"  y="2" width="160" height="24" rx="3" fill="#E6F1FB" stroke="#378ADD" stroke-width="0.8"/>
        <text x="430" y="18" text-anchor="middle" font-size="11" fill="#042C53">ref forward (shard 1/2)</text>
        <rect x="510"  y="2" width="670" height="24" rx="3" fill="url(#idle)" stroke="#888780" stroke-width="0.6"/>
      </g>

      <!-- GPU 6 — Reward -->
      <g transform="translate(0, 208)">
        <text x="-50" y="20" fill="#444441">GPU 6</text>
        <rect x="0"    y="2" width="350" height="24" rx="3" fill="url(#idle)" stroke="#888780" stroke-width="0.6"/>
        <rect x="350"  y="2" width="160" height="24" rx="3" fill="#EAF3DE" stroke="#639922" stroke-width="0.8"/>
        <text x="430" y="18" text-anchor="middle" font-size="11" fill="#173404">reward forward (shard 0/2)</text>
        <rect x="510"  y="2" width="670" height="24" rx="3" fill="url(#idle)" stroke="#888780" stroke-width="0.6"/>
      </g>

      <!-- GPU 7 — Reward partner -->
      <g transform="translate(0, 240)">
        <text x="-50" y="20" fill="#444441">GPU 7</text>
        <rect x="0"    y="2" width="350" height="24" rx="3" fill="url(#idle)" stroke="#888780" stroke-width="0.6"/>
        <rect x="350"  y="2" width="160" height="24" rx="3" fill="#EAF3DE" stroke="#639922" stroke-width="0.8"/>
        <text x="430" y="18" text-anchor="middle" font-size="11" fill="#173404">reward forward (shard 1/2)</text>
        <rect x="510"  y="2" width="670" height="24" rx="3" fill="url(#idle)" stroke="#888780" stroke-width="0.6"/>
      </g>
    </g>

    <!-- Annotations: parallelism callouts -->
    <g transform="translate(150, 408)">
      <!-- ref + reward run in parallel -->
      <rect x="350" y="0" width="160" height="6" rx="2" fill="#0F6E56" opacity="0.5"/>
      <text x="430" y="22" font-size="11" fill="#04342C" text-anchor="middle" font-weight="600">↑ ref &amp; reward 同时在不同卡上跑（Layer 3 fan-out）</text>
    </g>

    <g transform="translate(150, 408)">
      <rect x="0" y="0" width="240" height="6" rx="2" fill="#D85A30" opacity="0.5"/>
      <text x="120" y="22" font-size="11" fill="#4A1B0C" text-anchor="middle" font-weight="600">↑ vLLM 在 4 卡上 continuous batching</text>
    </g>

    <g transform="translate(150, 408)">
      <rect x="690" y="0" width="490" height="6" rx="2" fill="#993C1D" opacity="0.5"/>
      <text x="935" y="22" font-size="11" fill="#4A1B0C" text-anchor="middle" font-weight="600">↑ FSDP 把 4 卡聚合成一个训练 group · 同时 ref/reward 卡可空载或预取下一 batch</text>
    </g>

    <!-- verl bottom commentary -->
    <g transform="translate(22, 470)">
      <text x="0" y="14" font-size="12" fill="#04342C" font-weight="600">观察 1：</text>
      <text x="60" y="14" font-size="12" fill="#444441">vLLM 把 generate 阶段缩短了一半左右——长 response 不再阻塞短 response · KV cache + paged attention 让 4 卡的吞吐≈ TRL 8 卡</text>

      <text x="0" y="34" font-size="12" fill="#04342C" font-weight="600">观察 2：</text>
      <text x="60" y="34" font-size="12" fill="#444441">Ref 和 Reward 在不同 GPU 上真正并行（Layer 2 顺序触发，Layer 3 同时分发到不同 worker group）</text>

      <text x="0" y="54" font-size="12" fill="#04342C" font-weight="600">观察 3：</text>
      <text x="60" y="54" font-size="12" fill="#444441">代价：reshard 阶段 + 部分 GPU 在某些 phase 闲置 · 这是分组 placement 的天然成本，换来的是显存解耦和吞吐提升</text>

      <text x="0" y="74" font-size="12" fill="#04342C" font-weight="600">观察 4：</text>
      <text x="60" y="74" font-size="12" fill="#444441">想让闲置的 GPU 4-7 也帮忙训练？把 placement 改成 colocate 即可——Layer 2 算法代码完全不动 · 这是 verl 的核心可调旋钮</text>
    </g>

    <!-- Move callouts above commentary so they don't overlap -->
  </g>

  <!-- ====================================================== -->
  <!-- BOTTOM SUMMARY · core difference                        -->
  <!-- ====================================================== -->
  <g transform="translate(60, 1410)">
    <rect x="0" y="0" width="1360" height="56" rx="6" fill="#FFFFFF" stroke="#d4d2c7" stroke-width="0.8"/>
    <text x="22" y="24" font-size="13" fill="#444441">
      <tspan font-weight="700" fill="#501313">TRL：</tspan>
      <tspan>简单 · 全员上阵但全员等最慢的那张卡 · 显存挤 · 模型大了就跑不动</tspan>
      <tspan dx="20" font-weight="700" fill="#04342C">verl：</tspan>
      <tspan>分工 · 用 vLLM 加速 rollout · 模型按 placement 分到不同卡 · 复杂但可扩展</tspan>
    </text>
    <text x="22" y="44" font-size="12" fill="#5f5e5a" font-style="italic">
      本质区别：TRL 把"算什么"和"在哪算"耦合在一起；verl 用 placement + dispatch 把它们解耦，于是你能为每个模型独立选择资源
    </text>
  </g>

</svg>
