<?xml version="1.0" encoding="UTF-8"?>
<svg xmlns="http://www.w3.org/2000/svg" viewBox="0 0 1480 1500" font-family="-apple-system, BlinkMacSystemFont, 'Segoe UI', 'PingFang SC', 'Helvetica Neue', sans-serif">

  <defs>
    <linearGradient id="bg" x1="0" y1="0" x2="0" y2="1">
      <stop offset="0%" stop-color="#FAFAF7"/>
      <stop offset="100%" stop-color="#F3F2EC"/>
    </linearGradient>

    <pattern id="warn" patternUnits="userSpaceOnUse" width="6" height="6" patternTransform="rotate(45)">
      <rect width="6" height="6" fill="#FCEBEB"/>
      <line x1="0" y1="0" x2="0" y2="6" stroke="#E24B4A" stroke-width="1.2"/>
    </pattern>
  </defs>

  <rect width="1480" height="1500" fill="url(#bg)"/>

  <!-- Title -->
  <text x="60" y="58" font-size="28" font-weight="600" fill="#1a1a1a" letter-spacing="-0.4">TRL vs verl · 显存占用对比</text>
  <text x="60" y="86" font-size="14" fill="#6b6b66" font-style="italic">假设：7B 参数模型 (BF16) · 8 × H100 80GB · 同一时刻 GPU 显存里都装了什么</text>
  <line x1="60" y1="100" x2="1420" y2="100" stroke="#d4d2c7" stroke-width="0.8"/>

  <!-- ======================================================== -->
  <!-- MEMORY BUDGET BREAKDOWN (top reference)                    -->
  <!-- ======================================================== -->
  <g transform="translate(60, 120)">
    <rect x="0" y="0" width="1360" height="170" rx="6" fill="#FFFFFF" stroke="#d4d2c7" stroke-width="0.8"/>
    <text x="22" y="28" font-size="14" font-weight="600" fill="#1a1a1a">7B 模型每个组件的显存账本（BF16，参考值）</text>
    <line x1="22" y1="40" x2="380" y2="40" stroke="#d4d2c7" stroke-width="0.6"/>

    <!-- Component table -->
    <g transform="translate(22, 56)" font-size="12">
      <!-- Row 1: training state -->
      <g>
        <rect x="0" y="0" width="14" height="14" rx="2" fill="#F0997B" stroke="#993C1D" stroke-width="0.6"/>
        <text x="22" y="12" fill="#444441" font-weight="500">Actor 训练态</text>
        <text x="130" y="12" fill="#5f5e5a">参数 14GB + 梯度 14GB + Adam 优化器状态 56GB =</text>
        <text x="500" y="12" fill="#993C1D" font-weight="600">≈ 84 GB</text>
        <text x="580" y="12" fill="#5f5e5a">(FP32 优化器)</text>
      </g>

      <g transform="translate(0, 22)">
        <rect x="0" y="0" width="14" height="14" rx="2" fill="#FAECE7" stroke="#D85A30" stroke-width="0.6"/>
        <text x="22" y="12" fill="#444441" font-weight="500">Actor 推理态</text>
        <text x="130" y="12" fill="#5f5e5a">参数 14GB + KV cache 8–20GB =</text>
        <text x="500" y="12" fill="#D85A30" font-weight="600">≈ 22–34 GB</text>
        <text x="580" y="12" fill="#5f5e5a">(vLLM 用 paged KV)</text>
      </g>

      <g transform="translate(0, 44)">
        <rect x="0" y="0" width="14" height="14" rx="2" fill="#E6F1FB" stroke="#378ADD" stroke-width="0.6"/>
        <text x="22" y="12" fill="#444441" font-weight="500">Ref 模型</text>
        <text x="130" y="12" fill="#5f5e5a">参数 14GB（frozen，无优化器）=</text>
        <text x="500" y="12" fill="#378ADD" font-weight="600">≈ 14 GB</text>
      </g>

      <g transform="translate(0, 66)">
        <rect x="0" y="0" width="14" height="14" rx="2" fill="#EAF3DE" stroke="#639922" stroke-width="0.6"/>
        <text x="22" y="12" fill="#444441" font-weight="500">Reward 模型</text>
        <text x="130" y="12" fill="#5f5e5a">参数 14GB（frozen，无优化器）=</text>
        <text x="500" y="12" fill="#639922" font-weight="600">≈ 14 GB</text>
      </g>

      <g transform="translate(0, 88)">
        <rect x="0" y="0" width="14" height="14" rx="2" fill="#F1EFE8" stroke="#888780" stroke-width="0.6"/>
        <text x="22" y="12" fill="#444441" font-weight="500">激活值 / 临时缓冲</text>
        <text x="170" y="12" fill="#5f5e5a">batch 大小相关 =</text>
        <text x="500" y="12" fill="#5f5e5a" font-weight="600">≈ 5–15 GB</text>
      </g>
    </g>

    <!-- Right side: ZeRO note + scale -->
    <g transform="translate(720, 56)" font-size="11.5">
      <text x="0" y="12" font-size="13" font-weight="600" fill="#1a1a1a">分布式切分策略对显存的影响</text>
      <line x1="0" y1="20" x2="280" y2="20" stroke="#d4d2c7" stroke-width="0.6"/>

      <text x="0" y="40" fill="#444441"><tspan font-weight="600" fill="#534AB7">ZeRO-2 / FSDP-shard:</tspan> 优化器状态切 N 份</text>
      <text x="20" y="58" fill="#5f5e5a">8 卡 → 84GB / 8 ≈ 10.5GB 每卡（仅训练状态）</text>

      <text x="0" y="80" fill="#444441"><tspan font-weight="600" fill="#0F6E56">ZeRO-3 / FSDP-full:</tspan> 参数 + 梯度 + 优化器全切</text>
      <text x="20" y="98" fill="#5f5e5a">但 Ref / Reward 通常仍是每卡完整副本 (frozen + 没优化器，不切收益小)</text>

      <text x="0" y="124" fill="#A32D2D" font-style="italic">本图按"FSDP-shard 训练态 + Ref/Reward 完整副本"估算（贴近 TRL 默认行为）</text>
    </g>
  </g>

  <!-- ============================================================ -->
  <!-- TRL FRAME · 显存占用                                          -->
  <!-- ============================================================ -->
  <g transform="translate(60, 308)">
    <rect x="0" y="0" width="1360" height="540" rx="8" fill="#FFFFFF" stroke="#A32D2D" stroke-width="1.4"/>
    <rect x="0" y="0" width="6" height="540" rx="2" fill="#A32D2D"/>

    <text x="22" y="32" font-size="20" font-weight="700" fill="#501313">TRL · 每张卡都装下所有模型</text>
    <text x="22" y="54" font-size="13" fill="#791F1F">所有 8 张卡的显存布局完全相同 · 每张都装了 actor 训练态 + actor 推理态 + ref + reward + 激活值</text>

    <!-- ROW HEADER for memory bars -->
    <g transform="translate(22, 78)" font-size="11" fill="#5f5e5a">
      <text x="60" y="0">0</text>
      <text x="190" y="0">10</text>
      <text x="320" y="0">20</text>
      <text x="450" y="0">30</text>
      <text x="580" y="0">40</text>
      <text x="710" y="0">50</text>
      <text x="840" y="0">60</text>
      <text x="970" y="0">70</text>
      <text x="1100" y="0">80 GB</text>

      <!-- 80GB cap line -->
      <line x1="50" y1="6" x2="1110" y2="6" stroke="#d4d2c7" stroke-width="0.6"/>
      <line x1="1110" y1="2" x2="1110" y2="380" stroke="#A32D2D" stroke-width="1" stroke-dasharray="4 3"/>
      <text x="1118" y="20" font-size="10.5" fill="#A32D2D" font-weight="600">80GB cap</text>
    </g>

    <!-- 8 GPU memory bars (all identical, scale: 1GB = 13px, total 80GB = 1040px starting at x=50) -->
    <!-- Layout per row (in TRL all GPUs are identical):
         actor train state (FSDP-shard /8): 84/8 ≈ 10.5GB → 137px
         actor inference (params + KV): 14 + 8 = 22GB → 286px (params not double counted but transformers.generate uses extra memory)
         ref params: 14GB → 182px
         reward params: 14GB → 182px
         activations: 8GB → 104px
         Total ≈ 68.5GB → very tight on 80GB
    -->

    <g transform="translate(22, 92)" font-size="11">

      <!-- Node 0 label -->
      <text x="0" y="20" font-size="11" font-weight="700" fill="#5f5e5a">Node 0</text>

      <!-- GPU 0 bar -->
      <g transform="translate(0, 30)">
        <text x="0" y="20" fill="#444441">GPU 0</text>
        <!-- baseline rect (80GB cap shown as faint outline) -->
        <rect x="50" y="6" width="1040" height="22" rx="3" fill="#FFFFFF" stroke="#d4d2c7" stroke-width="0.6"/>
        <!-- segments -->
        <rect x="50"  y="6" width="137" height="22" fill="#F0997B" stroke="#993C1D" stroke-width="0.4"/>
        <rect x="187" y="6" width="286" height="22" fill="#FAECE7" stroke="#D85A30" stroke-width="0.4"/>
        <rect x="473" y="6" width="182" height="22" fill="#E6F1FB" stroke="#378ADD" stroke-width="0.4"/>
        <rect x="655" y="6" width="182" height="22" fill="#EAF3DE" stroke="#639922" stroke-width="0.4"/>
        <rect x="837" y="6" width="104" height="22" fill="#F1EFE8" stroke="#888780" stroke-width="0.4"/>
        <!-- Total label -->
        <text x="1100" y="22" font-size="11" fill="#501313" font-weight="600">≈ 68 GB · 86%</text>
      </g>

      <!-- GPU 1 -->
      <g transform="translate(0, 60)">
        <text x="0" y="20" fill="#444441">GPU 1</text>
        <rect x="50" y="6" width="1040" height="22" rx="3" fill="#FFFFFF" stroke="#d4d2c7" stroke-width="0.6"/>
        <rect x="50"  y="6" width="137" height="22" fill="#F0997B" stroke="#993C1D" stroke-width="0.4"/>
        <rect x="187" y="6" width="286" height="22" fill="#FAECE7" stroke="#D85A30" stroke-width="0.4"/>
        <rect x="473" y="6" width="182" height="22" fill="#E6F1FB" stroke="#378ADD" stroke-width="0.4"/>
        <rect x="655" y="6" width="182" height="22" fill="#EAF3DE" stroke="#639922" stroke-width="0.4"/>
        <rect x="837" y="6" width="104" height="22" fill="#F1EFE8" stroke="#888780" stroke-width="0.4"/>
        <text x="1100" y="22" font-size="11" fill="#501313" font-weight="600">≈ 68 GB · 86%</text>
      </g>

      <!-- GPU 2 -->
      <g transform="translate(0, 90)">
        <text x="0" y="20" fill="#444441">GPU 2</text>
        <rect x="50" y="6" width="1040" height="22" rx="3" fill="#FFFFFF" stroke="#d4d2c7" stroke-width="0.6"/>
        <rect x="50"  y="6" width="137" height="22" fill="#F0997B" stroke="#993C1D" stroke-width="0.4"/>
        <rect x="187" y="6" width="286" height="22" fill="#FAECE7" stroke="#D85A30" stroke-width="0.4"/>
        <rect x="473" y="6" width="182" height="22" fill="#E6F1FB" stroke="#378ADD" stroke-width="0.4"/>
        <rect x="655" y="6" width="182" height="22" fill="#EAF3DE" stroke="#639922" stroke-width="0.4"/>
        <rect x="837" y="6" width="104" height="22" fill="#F1EFE8" stroke="#888780" stroke-width="0.4"/>
        <text x="1100" y="22" font-size="11" fill="#501313" font-weight="600">≈ 68 GB · 86%</text>
      </g>

      <!-- GPU 3 -->
      <g transform="translate(0, 120)">
        <text x="0" y="20" fill="#444441">GPU 3</text>
        <rect x="50" y="6" width="1040" height="22" rx="3" fill="#FFFFFF" stroke="#d4d2c7" stroke-width="0.6"/>
        <rect x="50"  y="6" width="137" height="22" fill="#F0997B" stroke="#993C1D" stroke-width="0.4"/>
        <rect x="187" y="6" width="286" height="22" fill="#FAECE7" stroke="#D85A30" stroke-width="0.4"/>
        <rect x="473" y="6" width="182" height="22" fill="#E6F1FB" stroke="#378ADD" stroke-width="0.4"/>
        <rect x="655" y="6" width="182" height="22" fill="#EAF3DE" stroke="#639922" stroke-width="0.4"/>
        <rect x="837" y="6" width="104" height="22" fill="#F1EFE8" stroke="#888780" stroke-width="0.4"/>
        <text x="1100" y="22" font-size="11" fill="#501313" font-weight="600">≈ 68 GB · 86%</text>
      </g>

      <!-- node separator -->
      <line x1="-10" y1="160" x2="1090" y2="160" stroke="#d4d2c7" stroke-width="0.6" stroke-dasharray="4 3"/>

      <!-- Node 1 label -->
      <text x="0" y="180" font-size="11" font-weight="700" fill="#5f5e5a">Node 1</text>

      <!-- GPU 4 -->
      <g transform="translate(0, 188)">
        <text x="0" y="20" fill="#444441">GPU 4</text>
        <rect x="50" y="6" width="1040" height="22" rx="3" fill="#FFFFFF" stroke="#d4d2c7" stroke-width="0.6"/>
        <rect x="50"  y="6" width="137" height="22" fill="#F0997B" stroke="#993C1D" stroke-width="0.4"/>
        <rect x="187" y="6" width="286" height="22" fill="#FAECE7" stroke="#D85A30" stroke-width="0.4"/>
        <rect x="473" y="6" width="182" height="22" fill="#E6F1FB" stroke="#378ADD" stroke-width="0.4"/>
        <rect x="655" y="6" width="182" height="22" fill="#EAF3DE" stroke="#639922" stroke-width="0.4"/>
        <rect x="837" y="6" width="104" height="22" fill="#F1EFE8" stroke="#888780" stroke-width="0.4"/>
        <text x="1100" y="22" font-size="11" fill="#501313" font-weight="600">≈ 68 GB · 86%</text>
      </g>

      <!-- GPU 5 -->
      <g transform="translate(0, 218)">
        <text x="0" y="20" fill="#444441">GPU 5</text>
        <rect x="50" y="6" width="1040" height="22" rx="3" fill="#FFFFFF" stroke="#d4d2c7" stroke-width="0.6"/>
        <rect x="50"  y="6" width="137" height="22" fill="#F0997B" stroke="#993C1D" stroke-width="0.4"/>
        <rect x="187" y="6" width="286" height="22" fill="#FAECE7" stroke="#D85A30" stroke-width="0.4"/>
        <rect x="473" y="6" width="182" height="22" fill="#E6F1FB" stroke="#378ADD" stroke-width="0.4"/>
        <rect x="655" y="6" width="182" height="22" fill="#EAF3DE" stroke="#639922" stroke-width="0.4"/>
        <rect x="837" y="6" width="104" height="22" fill="#F1EFE8" stroke="#888780" stroke-width="0.4"/>
        <text x="1100" y="22" font-size="11" fill="#501313" font-weight="600">≈ 68 GB · 86%</text>
      </g>

      <!-- GPU 6 -->
      <g transform="translate(0, 248)">
        <text x="0" y="20" fill="#444441">GPU 6</text>
        <rect x="50" y="6" width="1040" height="22" rx="3" fill="#FFFFFF" stroke="#d4d2c7" stroke-width="0.6"/>
        <rect x="50"  y="6" width="137" height="22" fill="#F0997B" stroke="#993C1D" stroke-width="0.4"/>
        <rect x="187" y="6" width="286" height="22" fill="#FAECE7" stroke="#D85A30" stroke-width="0.4"/>
        <rect x="473" y="6" width="182" height="22" fill="#E6F1FB" stroke="#378ADD" stroke-width="0.4"/>
        <rect x="655" y="6" width="182" height="22" fill="#EAF3DE" stroke="#639922" stroke-width="0.4"/>
        <rect x="837" y="6" width="104" height="22" fill="#F1EFE8" stroke="#888780" stroke-width="0.4"/>
        <text x="1100" y="22" font-size="11" fill="#501313" font-weight="600">≈ 68 GB · 86%</text>
      </g>

      <!-- GPU 7 -->
      <g transform="translate(0, 278)">
        <text x="0" y="20" fill="#444441">GPU 7</text>
        <rect x="50" y="6" width="1040" height="22" rx="3" fill="#FFFFFF" stroke="#d4d2c7" stroke-width="0.6"/>
        <rect x="50"  y="6" width="137" height="22" fill="#F0997B" stroke="#993C1D" stroke-width="0.4"/>
        <rect x="187" y="6" width="286" height="22" fill="#FAECE7" stroke="#D85A30" stroke-width="0.4"/>
        <rect x="473" y="6" width="182" height="22" fill="#E6F1FB" stroke="#378ADD" stroke-width="0.4"/>
        <rect x="655" y="6" width="182" height="22" fill="#EAF3DE" stroke="#639922" stroke-width="0.4"/>
        <rect x="837" y="6" width="104" height="22" fill="#F1EFE8" stroke="#888780" stroke-width="0.4"/>
        <text x="1100" y="22" font-size="11" fill="#501313" font-weight="600">≈ 68 GB · 86%</text>
      </g>
    </g>

    <!-- TRL summary box -->
    <g transform="translate(22, 442)">
      <rect x="0" y="0" width="1316" height="76" rx="6" fill="#FCEBEB" stroke="#E24B4A" stroke-width="0.6"/>

      <text x="16" y="22" font-size="12" fill="#501313" font-weight="700">显存特征</text>
      <text x="120" y="22" font-size="12" fill="#444441">8 张卡显存布局完全一致 · 每张都装了 4 类模型 + 推理 + 训练相关数据 · ≈ 68 GB / 80 GB · 已经很挤</text>

      <text x="16" y="42" font-size="12" fill="#501313" font-weight="700">缩放风险</text>
      <text x="120" y="42" font-size="12" fill="#444441">换成 13B 模型 → 每张卡 ≈ 124 GB · OOM · 13B+ 实际上跑不动，必须降低 batch 或用更激进 ZeRO-3 切分</text>

      <text x="16" y="62" font-size="12" fill="#501313" font-weight="700">本质原因</text>
      <text x="120" y="62" font-size="12" fill="#444441">所有模型同进程同卡 · 没有 placement 旋钮把不同模型放到不同 GPU · 模型大了显存就线性叠加</text>
    </g>
  </g>

  <!-- ============================================================ -->
  <!-- VERL FRAME · 显存占用                                         -->
  <!-- ============================================================ -->
  <g transform="translate(60, 866)">
    <rect x="0" y="0" width="1360" height="600" rx="8" fill="#FFFFFF" stroke="#0F6E56" stroke-width="1.4"/>
    <rect x="0" y="0" width="6" height="600" rx="2" fill="#0F6E56"/>

    <text x="22" y="32" font-size="20" font-weight="700" fill="#04342C">verl · 不同 GPU 装不同模型 · 显存按角色分布</text>
    <text x="22" y="54" font-size="13" fill="#0F6E56">Node 0 (4 卡) 专门跑 Actor · Node 1 GPU 4–5 跑 Ref · Node 1 GPU 6–7 跑 Reward · 每卡显存压力小很多</text>

    <!-- ROW HEADER -->
    <g transform="translate(22, 78)" font-size="11" fill="#5f5e5a">
      <text x="60" y="0">0</text>
      <text x="190" y="0">10</text>
      <text x="320" y="0">20</text>
      <text x="450" y="0">30</text>
      <text x="580" y="0">40</text>
      <text x="710" y="0">50</text>
      <text x="840" y="0">60</text>
      <text x="970" y="0">70</text>
      <text x="1100" y="0">80 GB</text>

      <line x1="50" y1="6" x2="1110" y2="6" stroke="#d4d2c7" stroke-width="0.6"/>
      <line x1="1110" y1="2" x2="1110" y2="438" stroke="#A32D2D" stroke-width="1" stroke-dasharray="4 3"/>
      <text x="1118" y="20" font-size="10.5" fill="#A32D2D" font-weight="600">80GB cap</text>
    </g>

    <!-- Bars: -->
    <!-- Node 0 GPUs (Actor): 训练态切4份 = 84/4 = 21GB → 273px;
                              推理态(参数14GB + KV 8GB) = 22GB → 286px;
                              激活 8GB → 104px
                              ≈ 51GB · 64% · 比 TRL 节省了 ref 和 reward 的 28GB
       Note: rollout 和 training 是 reshard 切换的，同一时刻只有一个在用，但峰值需要算两者最大者 + 缓冲。
       为简化和对比，把"峰值"画出来（峰值≈训练态 21GB + 激活 8GB + reshard 期间临时 22GB ≈ 51GB） -->

    <g transform="translate(22, 92)" font-size="11">

      <text x="0" y="20" font-size="11" font-weight="700" fill="#5f5e5a">Node 0 · Actor</text>

      <!-- GPU 0 -->
      <g transform="translate(0, 30)">
        <text x="0" y="20" fill="#444441">GPU 0</text>
        <rect x="50" y="6" width="1040" height="22" rx="3" fill="#FFFFFF" stroke="#d4d2c7" stroke-width="0.6"/>
        <!-- Actor training state (FSDP shard /4): 21GB = 273px -->
        <rect x="50"  y="6" width="273" height="22" fill="#F0997B" stroke="#993C1D" stroke-width="0.4"/>
        <!-- Actor inference (params + KV) reshard 期间: 22GB = 286px -->
        <rect x="323" y="6" width="286" height="22" fill="#FAECE7" stroke="#D85A30" stroke-width="0.4"/>
        <!-- Activations: 8GB = 104px -->
        <rect x="609" y="6" width="104" height="22" fill="#F1EFE8" stroke="#888780" stroke-width="0.4"/>
        <!-- 剩余 free space -->
        <rect x="713" y="6" width="377" height="22" fill="none" stroke="#0F6E56" stroke-width="0.6" stroke-dasharray="3 2"/>
        <text x="900" y="22" text-anchor="middle" font-size="11" fill="#0F6E56" font-style="italic">空闲 ≈ 29 GB · 可放更大 batch</text>
        <text x="1100" y="22" font-size="11" fill="#04342C" font-weight="600">≈ 51 GB · 64%</text>
      </g>

      <!-- GPU 1 -->
      <g transform="translate(0, 60)">
        <text x="0" y="20" fill="#444441">GPU 1</text>
        <rect x="50" y="6" width="1040" height="22" rx="3" fill="#FFFFFF" stroke="#d4d2c7" stroke-width="0.6"/>
        <rect x="50"  y="6" width="273" height="22" fill="#F0997B" stroke="#993C1D" stroke-width="0.4"/>
        <rect x="323" y="6" width="286" height="22" fill="#FAECE7" stroke="#D85A30" stroke-width="0.4"/>
        <rect x="609" y="6" width="104" height="22" fill="#F1EFE8" stroke="#888780" stroke-width="0.4"/>
        <rect x="713" y="6" width="377" height="22" fill="none" stroke="#0F6E56" stroke-width="0.6" stroke-dasharray="3 2"/>
        <text x="1100" y="22" font-size="11" fill="#04342C" font-weight="600">≈ 51 GB · 64%</text>
      </g>

      <!-- GPU 2 -->
      <g transform="translate(0, 90)">
        <text x="0" y="20" fill="#444441">GPU 2</text>
        <rect x="50" y="6" width="1040" height="22" rx="3" fill="#FFFFFF" stroke="#d4d2c7" stroke-width="0.6"/>
        <rect x="50"  y="6" width="273" height="22" fill="#F0997B" stroke="#993C1D" stroke-width="0.4"/>
        <rect x="323" y="6" width="286" height="22" fill="#FAECE7" stroke="#D85A30" stroke-width="0.4"/>
        <rect x="609" y="6" width="104" height="22" fill="#F1EFE8" stroke="#888780" stroke-width="0.4"/>
        <rect x="713" y="6" width="377" height="22" fill="none" stroke="#0F6E56" stroke-width="0.6" stroke-dasharray="3 2"/>
        <text x="1100" y="22" font-size="11" fill="#04342C" font-weight="600">≈ 51 GB · 64%</text>
      </g>

      <!-- GPU 3 -->
      <g transform="translate(0, 120)">
        <text x="0" y="20" fill="#444441">GPU 3</text>
        <rect x="50" y="6" width="1040" height="22" rx="3" fill="#FFFFFF" stroke="#d4d2c7" stroke-width="0.6"/>
        <rect x="50"  y="6" width="273" height="22" fill="#F0997B" stroke="#993C1D" stroke-width="0.4"/>
        <rect x="323" y="6" width="286" height="22" fill="#FAECE7" stroke="#D85A30" stroke-width="0.4"/>
        <rect x="609" y="6" width="104" height="22" fill="#F1EFE8" stroke="#888780" stroke-width="0.4"/>
        <rect x="713" y="6" width="377" height="22" fill="none" stroke="#0F6E56" stroke-width="0.6" stroke-dasharray="3 2"/>
        <text x="1100" y="22" font-size="11" fill="#04342C" font-weight="600">≈ 51 GB · 64%</text>
      </g>

      <!-- node separator -->
      <line x1="-10" y1="160" x2="1090" y2="160" stroke="#d4d2c7" stroke-width="0.6" stroke-dasharray="4 3"/>

      <!-- Node 1 GPU 4-5: Ref -->
      <text x="0" y="180" font-size="11" font-weight="700" fill="#5f5e5a">Node 1 · Ref</text>

      <!-- GPU 4 -->
      <!-- Ref params 14GB (frozen, no opt, can shard 0/2 across two GPUs) = 7GB = 91px;
           activations small (forward only): 4GB = 52px
           Total ≈ 11GB · 14% -->
      <g transform="translate(0, 188)">
        <text x="0" y="20" fill="#444441">GPU 4</text>
        <rect x="50" y="6" width="1040" height="22" rx="3" fill="#FFFFFF" stroke="#d4d2c7" stroke-width="0.6"/>
        <rect x="50"  y="6" width="91" height="22" fill="#E6F1FB" stroke="#378ADD" stroke-width="0.4"/>
        <rect x="141" y="6" width="52" height="22" fill="#F1EFE8" stroke="#888780" stroke-width="0.4"/>
        <rect x="193" y="6" width="897" height="22" fill="none" stroke="#0F6E56" stroke-width="0.6" stroke-dasharray="3 2"/>
        <text x="640" y="22" text-anchor="middle" font-size="11" fill="#0F6E56" font-style="italic">空闲 ≈ 69 GB · 适合 colocate 其他模型</text>
        <text x="1100" y="22" font-size="11" fill="#04342C" font-weight="600">≈ 11 GB · 14%</text>
      </g>

      <!-- GPU 5 -->
      <g transform="translate(0, 218)">
        <text x="0" y="20" fill="#444441">GPU 5</text>
        <rect x="50" y="6" width="1040" height="22" rx="3" fill="#FFFFFF" stroke="#d4d2c7" stroke-width="0.6"/>
        <rect x="50"  y="6" width="91" height="22" fill="#E6F1FB" stroke="#378ADD" stroke-width="0.4"/>
        <rect x="141" y="6" width="52" height="22" fill="#F1EFE8" stroke="#888780" stroke-width="0.4"/>
        <rect x="193" y="6" width="897" height="22" fill="none" stroke="#0F6E56" stroke-width="0.6" stroke-dasharray="3 2"/>
        <text x="1100" y="22" font-size="11" fill="#04342C" font-weight="600">≈ 11 GB · 14%</text>
      </g>

      <!-- Node 1 GPU 6-7: Reward -->
      <text x="0" y="268" font-size="11" font-weight="700" fill="#5f5e5a">Node 1 · Reward</text>

      <!-- GPU 6 -->
      <g transform="translate(0, 276)">
        <text x="0" y="20" fill="#444441">GPU 6</text>
        <rect x="50" y="6" width="1040" height="22" rx="3" fill="#FFFFFF" stroke="#d4d2c7" stroke-width="0.6"/>
        <rect x="50"  y="6" width="91" height="22" fill="#EAF3DE" stroke="#639922" stroke-width="0.4"/>
        <rect x="141" y="6" width="52" height="22" fill="#F1EFE8" stroke="#888780" stroke-width="0.4"/>
        <rect x="193" y="6" width="897" height="22" fill="none" stroke="#0F6E56" stroke-width="0.6" stroke-dasharray="3 2"/>
        <text x="640" y="22" text-anchor="middle" font-size="11" fill="#0F6E56" font-style="italic">空闲 ≈ 69 GB · 同上</text>
        <text x="1100" y="22" font-size="11" fill="#04342C" font-weight="600">≈ 11 GB · 14%</text>
      </g>

      <!-- GPU 7 -->
      <g transform="translate(0, 306)">
        <text x="0" y="20" fill="#444441">GPU 7</text>
        <rect x="50" y="6" width="1040" height="22" rx="3" fill="#FFFFFF" stroke="#d4d2c7" stroke-width="0.6"/>
        <rect x="50"  y="6" width="91" height="22" fill="#EAF3DE" stroke="#639922" stroke-width="0.4"/>
        <rect x="141" y="6" width="52" height="22" fill="#F1EFE8" stroke="#888780" stroke-width="0.4"/>
        <rect x="193" y="6" width="897" height="22" fill="none" stroke="#0F6E56" stroke-width="0.6" stroke-dasharray="3 2"/>
        <text x="1100" y="22" font-size="11" fill="#04342C" font-weight="600">≈ 11 GB · 14%</text>
      </g>
    </g>

    <!-- verl summary box -->
    <g transform="translate(22, 470)">
      <rect x="0" y="0" width="1316" height="110" rx="6" fill="#E1F5EE" stroke="#1D9E75" stroke-width="0.6"/>

      <text x="16" y="22" font-size="12" fill="#04342C" font-weight="700">显存特征</text>
      <text x="120" y="22" font-size="12" fill="#444441">显存按角色分布 · Actor 卡 ≈ 51 GB / Ref / Reward 卡 ≈ 11 GB · 没有任何一张卡需要装四种模型</text>

      <text x="16" y="42" font-size="12" fill="#04342C" font-weight="700">缩放空间</text>
      <text x="120" y="42" font-size="12" fill="#444441">换 13B：Actor 卡 ≈ 75 GB（紧但能跑）· Ref / Reward 卡 ≈ 22 GB · 还有空间 · 70B 也能通过加 actor 卡数量解决</text>

      <text x="16" y="62" font-size="12" fill="#04342C" font-weight="700">优化空间</text>
      <text x="120" y="62" font-size="12" fill="#444441">看到 GPU 4–7 那大片绿色虚线了吗？显存利用率仅 14% · 可以把 ref 和 reward colocate 到同两张卡 · 或干脆塞进 actor 卡（节省 2 张卡）</text>

      <text x="16" y="82" font-size="12" fill="#04342C" font-weight="700">代价</text>
      <text x="120" y="82" font-size="12" fill="#444441">Actor 卡上推理态和训练态需要 reshard 切换（紫色块那一步）· 切换瞬间会有内存峰值 · sharding_manager 负责管理</text>
    </g>
  </g>

</svg>
